<svg width="379" height="251" viewBox="0 0 379 251" fill="none" xmlns="http://www.w3.org/2000/svg">
<path fill-rule="evenodd" clip-rule="evenodd" d="M375.414 0C375.593 0 375.77 0.0046435 375.945 0.0136176L365.683 0.000907841C365.64 0.00921067 365.595 0.0188637 365.551 0.0281431C364.398 0.102018 363.175 0.281381 362.536 0.00272352H362.507C355.431 0.0318728 350.704 1.35598 352.231 2.81158C354.022 4.5291 358.748 3.72881 362.213 4.04897C362.679 4.09193 363.113 4.11364 363.516 4.11888C364.019 4.49615 364.76 4.69492 365.695 4.74438L366.001 4.70534L366.289 4.80248C366.803 4.84509 367.307 4.90274 367.821 4.95954C369.736 5.17104 369.379 5.2681 371.054 5.5805C372.273 5.80653 372.282 6.54767 372.282 6.55552V7.52691C371.94 7.78188 372.624 7.6267 372.282 7.88188C371.373 7.9671 371.963 8.32328 371.054 8.40843C369.445 8.66401 367.821 9.13516 366.213 9.13561C364.458 9.13575 363.23 10.2433 361.502 11.0103C363.415 13.0551 365.817 12.4737 367.888 12.8714C369.694 13.2118 371.607 12.9858 373.467 12.9858H373.47C374.471 12.9858 375.5 12.9858 376.198 13.8791C376.594 14.376 377.066 15.1156 377.001 15.6693C376.895 16.5776 375.973 16.3241 375.366 16.3239H365.063C365.907 19.2207 367.585 19.8171 369.51 19.8881C371.37 19.9448 373.244 19.8157 375.09 19.9435C375.697 19.9851 376.621 19.5499 376.898 20.8686C377.24 22.4572 375.751 22.2762 375.341 23.0692C374.313 25.0427 375.233 22.0791 374.615 22.7432C374.404 22.9844 373.758 22.7029 373.428 22.8867C371.449 24.023 369.706 25.6837 367.239 25.6129C367.031 25.6083 366.822 25.671 366.645 25.79C356.498 26.0096 350.092 27.2319 352.421 28.5643C355.406 30.282 363.286 29.4815 369.06 29.8017C371.487 29.9361 373.398 29.8775 374.875 29.6755C376.848 31.5445 377.039 32.4643 374.839 33.8806C374.008 34.4202 373.68 35.4977 374.166 35.9242C376.698 38.1397 375.288 41.3792 376.21 43.964C376.369 44.4095 376.345 45.0334 376.474 45.5473C373.687 45.315 370.205 45.3609 367.432 45.412L367.379 45.3912C363.131 45.3501 357.716 44.8778 357.398 47.3648C357.079 50.1806 363.716 49.358 367.06 49.2758C370.09 49.1912 374.442 49.4254 377.545 49.1188C377.225 49.3368 377.035 49.5373 376.954 49.7161C376.219 49.8424 375.642 50.3022 375.585 51.7097C375.585 51.7128 375.584 51.7158 375.584 51.7188C375.208 51.6978 374.877 51.6585 374.608 51.5881H374.558C362.765 51.6172 354.886 52.9414 357.43 54.3969C359.564 55.625 364.2 55.5655 368.78 55.549C368.702 55.5691 368.624 55.59 368.548 55.6071C368.135 56.2743 367.541 56.3036 366.949 56.2753C366.136 58.9581 367.085 60.0789 369.137 60.2071L369.396 60.1681L369.64 60.2652C370.075 60.3078 370.501 60.3655 370.936 60.4223C371.14 60.323 371.347 60.2379 371.555 60.1654C372.441 60.1357 373.303 60.0807 373.979 60.0646C374.405 60.053 374.869 60.0499 375.354 60.051C376.374 60.2847 377.606 60.7407 376.897 62.8217L376.874 62.8508C376.584 63.106 376.283 63.3618 375.993 63.617C375.224 63.7021 374.441 63.786 373.672 63.8712C372.311 64.1268 370.936 64.5979 369.575 64.5984C368.091 64.5986 367.051 65.7061 365.589 66.4731C367.207 68.5178 369.24 67.9367 370.992 68.3341C372.521 68.6747 374.14 68.4485 375.714 68.4485H375.717C376.564 68.4485 377.434 68.4485 378.025 69.3418C378.359 69.8387 378.759 70.5784 378.704 71.1321C378.614 72.0404 377.834 71.7868 377.32 71.7867H368.602C369.316 74.6835 370.736 75.2798 372.366 75.3508C373.939 75.4075 375.525 75.2785 377.087 75.4062C377.6 75.448 378.381 75.0126 378.616 76.3313C378.905 77.9199 377.646 77.739 377.299 78.5319C376.429 80.5055 377.208 77.5415 376.684 78.206C376.506 78.4472 375.96 78.1658 375.68 78.3494C374.006 79.4858 372.531 81.1465 370.444 81.0757C369.919 81.0622 369.384 81.645 369.596 82.5391C369.797 83.4046 370.433 83.3488 370.979 83.3771C372.999 83.4906 374.921 82.9499 376.841 85.0657C378.571 86.9831 378.76 87.909 376.874 89.3434C376.171 89.8831 375.894 90.9606 376.306 91.3869C376.899 92.0007 377.235 92.6935 377.43 93.4287L367.405 93.4151C367.199 93.4576 366.98 93.5159 366.773 93.5585C366.323 94.2255 365.675 94.2551 365.029 94.2267C364.142 96.9095 365.178 98.0303 367.417 98.1585L367.699 98.1195L367.964 98.2166C368.439 98.2592 368.903 98.3169 369.378 98.3737C370.912 97.6921 372.533 97.6636 374.079 97.9761C375.211 98.2033 376.683 98.6166 375.882 100.773L375.857 100.802C375.541 101.057 375.211 101.313 374.895 101.568C374.055 101.654 373.202 101.737 372.363 101.823C370.878 102.078 369.379 102.549 367.894 102.55C366.275 102.55 365.141 103.657 363.546 104.424C365.311 106.469 367.528 105.888 369.44 106.286C371.108 106.626 372.874 106.4 374.591 106.4H374.594C375.518 106.4 376.467 106.4 377.111 107.293C377.476 107.79 377.912 108.53 377.852 109.084C377.755 109.992 376.903 109.738 376.343 109.738H366.832C367.612 112.635 369.16 113.231 370.937 113.302C372.654 113.359 374.384 113.23 376.088 113.358C376.648 113.399 377.501 112.964 377.757 114.283C378.072 115.871 376.699 115.69 376.32 116.483C375.371 118.457 376.22 115.494 375.65 116.157C375.455 116.398 374.859 116.118 374.554 116.301C372.728 117.437 371.119 119.098 368.842 119.027C368.27 119.013 367.685 119.596 367.916 120.491C368.135 121.356 368.829 121.3 369.425 121.328C371.629 121.442 373.726 120.901 375.821 123.017C377.708 124.934 377.914 125.86 375.857 127.295C375.09 127.834 374.786 128.912 375.236 129.338C375.434 129.526 375.605 129.722 375.754 129.924C374.305 129.907 372.751 129.967 371.329 129.981L371.277 130.002C365.703 129.899 357.261 129.817 357.367 131.976C357.527 134.503 366.498 133.722 371.648 133.866C371.817 133.87 371.996 133.876 372.182 133.884C371.922 133.997 371.779 134.193 371.828 134.519C371.95 135.394 373.066 136.043 376.007 135.839C376.271 135.821 376.546 135.81 376.827 135.803C376.872 136.345 376.957 136.874 377.123 137.378C377.233 137.713 377.248 138.149 377.299 138.563C377.282 138.771 377.27 138.981 377.262 139.192C376.253 139.197 375.207 139.24 374.235 139.252L374.192 139.273C369.631 139.17 362.725 139.088 362.812 141.247C362.943 143.774 370.283 142.993 374.496 143.137C375.167 143.157 376.001 143.221 376.872 143.266C376.661 143.91 376.322 144.517 375.771 145.062C375.34 145.489 375.63 146.567 376.365 147.107C378.336 148.541 378.139 149.466 376.331 151.383C374.324 153.499 372.314 152.959 370.202 153.072C369.631 153.1 368.966 153.045 368.756 153.91C368.535 154.804 369.095 155.388 369.643 155.374C371.825 155.304 373.367 156.963 375.117 158.1C375.409 158.284 375.981 158.002 376.168 158.243C376.714 158.907 375.9 155.944 376.81 157.917C377.173 158.71 378.489 158.529 378.187 160.118C377.942 161.437 377.125 161.002 376.588 161.044C374.955 161.172 373.296 161.042 371.651 161.099C369.948 161.17 368.464 161.766 367.717 164.662H376.831C377.368 164.662 378.184 164.409 378.277 165.318C378.335 165.872 377.918 166.61 377.568 167.107C376.951 168.001 376.041 168.001 375.155 168.001H375.152C373.507 168.001 371.814 167.774 370.216 168.115C369.92 168.179 369.617 168.216 369.309 168.245C367.627 167.527 364.185 167.026 359.869 167.008H359.839C358.371 167.648 353.82 165.873 354.113 168.507C354.29 170.196 355.905 171.448 360.163 171.055C362.03 170.882 364.263 171.032 366.207 170.941C367.014 171.437 367.788 171.851 368.735 171.851C370.158 171.851 371.595 172.322 373.018 172.578C373.822 172.663 374.64 172.747 375.444 172.832C375.747 173.087 376.062 173.343 376.365 173.598L376.39 173.628C377.157 175.784 375.747 176.198 374.662 176.425C373.18 176.738 371.627 176.709 370.157 176.028C369.702 176.085 369.257 176.141 368.802 176.184L368.547 176.282L368.277 176.243C366.131 176.371 365.139 177.492 365.989 180.175C366.608 180.146 367.229 180.175 367.661 180.843C367.859 180.885 368.068 180.944 368.266 180.986L375.561 180.975C375.521 181.166 375.495 181.383 375.485 181.629C375.449 182.637 375.697 183.177 376.079 183.454C374.724 183.43 373.332 183.45 372.127 183.472L372.089 183.458C369.046 183.43 365.166 183.101 364.938 184.83C364.84 185.67 365.658 186.043 366.813 186.193C366.263 188.515 367.218 189.504 369.137 189.624L369.396 189.585L369.64 189.682C370.075 189.724 370.501 189.782 370.936 189.839C372.342 189.157 373.827 189.129 375.245 189.441C376.282 189.668 377.632 190.082 376.897 192.238L376.874 192.267C376.584 192.522 376.283 192.778 375.993 193.033C375.224 193.119 374.441 193.202 373.672 193.288C372.311 193.543 370.936 194.014 369.575 194.015C368.091 194.015 367.051 195.122 365.589 195.889C367.207 197.934 369.24 197.353 370.992 197.751C372.521 198.091 374.14 197.865 375.714 197.865H375.717C376.564 197.865 377.434 197.865 378.025 198.758C378.359 199.255 378.759 199.995 378.704 200.549C378.614 201.457 377.834 201.203 377.32 201.203H368.602C368.62 201.278 368.64 201.351 368.659 201.423L366.384 201.42C366.178 201.463 365.959 201.521 365.752 201.563C365.302 202.231 364.653 202.26 364.008 202.232C363.121 204.914 364.156 206.035 366.396 206.164L366.678 206.124L366.943 206.222C367.417 206.264 367.882 206.322 368.357 206.379C369.891 205.697 371.511 205.669 373.058 205.981C374.089 206.188 375.402 206.549 375.022 208.242C374.386 208.722 373.762 209.234 373.106 209.65C372.518 209.709 371.926 209.768 371.342 209.828C369.857 210.083 368.358 210.554 366.873 210.555C365.254 210.555 364.12 211.662 362.525 212.429C364.29 214.474 366.507 213.893 368.419 214.291C370.087 214.631 371.853 214.405 373.57 214.405H373.573C374.497 214.405 375.446 214.405 376.09 215.298C376.455 215.795 376.891 216.535 376.831 217.088C376.733 217.997 375.882 217.743 375.322 217.743H365.811C366.591 220.64 368.139 221.236 369.916 221.307C371.633 221.364 373.363 221.235 375.067 221.363C375.627 221.404 376.48 220.969 376.736 222.288C377.051 223.876 375.678 223.695 375.299 224.488C374.35 226.462 375.199 223.499 374.629 224.162C374.434 224.403 373.838 224.123 373.533 224.306C371.707 225.442 370.098 227.103 367.821 227.032C367.249 227.018 366.664 227.601 366.895 228.496C367.114 229.361 367.808 229.305 368.404 229.333C370.608 229.447 372.705 228.906 374.799 231.022C376.687 232.939 376.893 233.865 374.836 235.3C374.069 235.839 373.765 236.917 374.215 237.343C374.689 237.793 374.932 238.298 375.031 238.839C374.096 238.883 373.195 238.955 372.478 238.977C368.265 239.12 360.924 238.339 360.794 240.868C360.707 243.025 367.613 242.943 372.174 242.84L372.217 242.861C372.903 242.869 373.627 242.892 374.348 242.908C374.093 243.886 373.935 244.841 374.215 245.693C374.219 245.704 374.224 245.715 374.227 245.726C374.077 245.716 373.929 245.705 373.785 245.695C370.898 245.496 369.966 246.677 369.817 247.548C364.249 247.627 355.51 246.916 355.348 249.767C355.326 250.277 355.668 250.681 356.279 251H335.944C336.183 250.721 336.323 250.419 336.378 250.101C336.867 247.467 329.283 249.243 326.836 248.602H326.786C316.115 248.629 308.65 249.715 309.21 251H282.778C283.494 250.77 283.959 250.434 284.047 249.939C284.38 247.827 277.442 248.444 273.945 248.505C268.561 248.613 259.182 248.027 259.015 249.923C258.981 250.43 259.821 250.772 261.171 251H248.758C249.259 250.346 249.456 249.242 249.376 248.223C249.213 246.167 247.144 246.354 246.606 246.634C245.206 247.363 244.098 248.858 242.86 250.054C243.095 250.466 243.348 250.773 243.611 251H193.82C194.321 250.622 194.591 250.184 194.673 249.712C195.162 247.077 187.578 248.853 185.131 248.213H185.081C173.344 248.242 165.485 249.553 167.918 251H162.261C162.434 249.339 162.918 247.585 162.608 246.104C162.489 245.532 161.312 243.9 159.552 245.1C158.129 246.072 156.996 247.723 158.102 248.662C158.894 249.326 159.306 250.604 160.584 251H126.588C127.304 250.77 127.768 250.434 127.856 249.939C128.189 247.827 121.251 248.444 117.755 248.505C112.371 248.613 102.991 248.027 102.825 249.923C102.79 250.43 103.631 250.772 104.981 251H92.5687C93.0698 250.346 93.2664 249.243 93.1865 248.223C93.0235 246.167 90.9545 246.354 90.417 246.634C89.0163 247.363 87.909 248.858 86.6712 250.054C86.906 250.466 87.1583 250.773 87.4215 251H17.9099C20.6083 250.756 22.5977 250.238 22.5461 249.183C22.4198 247.179 16.7562 247.253 11.8484 247.299C12.6505 246.901 13.3044 246.374 13.2022 245.685C13.1037 244.977 8.41029 244.015 5.06236 243.78C5.04105 243.182 4.87193 242.558 4.65718 241.928C5.00331 241.919 5.34515 241.91 5.67823 241.906L5.72209 241.885C10.2827 241.988 17.1878 242.07 17.1014 239.913C16.9711 237.384 9.63127 238.165 5.41796 238.021C4.91065 238.006 4.31041 237.966 3.6714 237.928C3.73605 237.439 3.93571 236.977 4.33685 236.557C4.744 236.13 4.46876 235.052 3.77436 234.512C1.91142 233.077 2.09861 232.151 3.80773 230.232C5.70452 228.115 7.60339 228.655 9.59941 228.542C10.1395 228.514 10.768 228.57 10.9665 227.704C11.1757 226.809 10.6466 226.225 10.1285 226.239C8.06632 226.309 6.60885 224.649 4.95463 223.511C4.67876 223.327 4.13861 223.609 3.96218 223.368C3.44494 222.703 4.21483 225.669 3.35489 223.694C3.01185 222.9 1.76773 223.082 2.05354 221.492C2.28508 220.172 3.05733 220.607 3.56463 220.566C5.10808 220.438 6.67495 220.567 8.22943 220.51C9.83944 220.439 11.2425 219.843 11.9485 216.945H3.33391C2.82657 216.945 2.05596 217.198 1.96774 216.289C1.91329 215.735 2.30741 214.996 2.63796 214.498C3.22159 213.605 4.08148 213.604 4.9184 213.604H4.92126C6.47599 213.604 8.07635 213.831 9.58702 213.49C10.2382 213.34 10.9285 213.329 11.6215 213.265C13.4938 213.791 16.4696 214.137 20.0454 214.152H20.075C21.5431 213.511 26.0945 215.287 25.8009 212.652C25.6246 210.963 24.0093 209.711 19.7518 210.104C17.573 210.306 14.8949 210.063 12.7617 210.283C12.2067 209.971 11.6402 209.751 10.9866 209.751C9.64162 209.751 8.2835 209.28 6.93858 209.024C6.17839 208.939 5.40591 208.855 4.64574 208.77C4.35945 208.515 4.06063 208.258 3.77436 208.003L3.75148 207.974C3.02551 205.816 4.35937 205.402 5.3846 205.175C6.78512 204.862 8.2528 204.891 9.64231 205.573C10.0723 205.516 10.4936 205.459 10.9236 205.416L11.1639 205.318L11.4194 205.357C13.4475 205.229 14.3847 204.107 13.5807 201.423C12.9965 201.451 12.4098 201.422 12.0019 200.755C11.815 200.712 11.6167 200.653 11.4299 200.61L1.8295 200.625C1.82457 200.452 1.81835 200.28 1.8152 200.109L1.76468 200.04C1.84198 197.842 1.91239 195.301 1.82664 192.832C3.27866 192.86 5.17414 192.566 6.04718 192.834H6.07769C13.6259 192.812 18.6691 191.818 17.0404 190.727C15.1299 189.438 10.0871 190.039 6.39135 189.799C4.2301 189.658 2.70745 189.798 1.68459 190.119C2.00815 187.711 1.36217 184.926 3.02788 182.955C3.38737 182.529 3.14491 181.454 2.53213 180.916C0.888076 179.484 1.05346 178.561 2.56169 176.648C4.23527 174.537 5.91057 175.076 7.67171 174.963C8.14829 174.935 8.70256 174.99 8.87772 174.127C9.06206 173.235 8.59585 172.653 8.13886 172.667C6.31929 172.738 5.03278 171.082 3.57321 169.948C3.32985 169.765 2.8538 170.045 2.69802 169.804C2.24163 169.141 2.92005 172.099 2.16127 170.129C1.85855 169.338 0.761289 169.519 1.01343 167.934C1.21772 166.618 1.89956 167.052 2.34718 167.01C3.70912 166.883 5.09214 167.011 6.4638 166.955C7.88427 166.884 9.12148 166.289 9.74433 163.4H2.14411C1.69646 163.4 1.01501 163.653 0.937156 162.746C0.889109 162.194 1.2375 161.456 1.52919 160.96C2.04416 160.069 2.80332 160.07 3.54174 160.07H3.5446C4.91621 160.07 6.32754 160.295 7.66027 159.955C9.18792 159.559 10.9599 160.138 12.3708 158.099C11.0963 157.334 10.1899 156.228 8.89583 156.228C7.70917 156.227 6.51119 155.757 5.32453 155.502C4.65361 155.417 3.97145 155.334 3.30054 155.249C3.04795 154.994 2.7847 154.739 2.53213 154.485L2.51211 154.456C1.8716 152.304 3.04806 151.892 3.95264 151.665C5.18841 151.353 6.4838 151.382 7.70985 152.062C8.08915 152.005 8.46029 151.948 8.83958 151.905L9.05218 151.807L9.27813 151.846C11.0585 151.719 11.8854 150.612 11.1944 147.964C12.2895 147.805 13.0518 147.429 12.9572 146.617C12.7287 144.888 8.84895 145.217 5.80598 145.246L5.76785 145.259C5.11411 145.247 4.40505 145.237 3.67712 145.233C3.90734 144.858 4.03771 144.304 4.00794 143.494C3.98485 142.94 3.89126 142.51 3.74481 142.178L9.82059 142.189C9.98544 142.146 10.16 142.088 10.3249 142.045C10.6849 141.38 11.2031 141.351 11.7187 141.379C12.4282 138.703 11.6012 137.584 9.81201 137.456L9.58607 137.495L9.37347 137.397C8.99417 137.355 8.62303 137.298 8.24373 137.241C7.01768 137.921 5.72229 137.95 4.48653 137.639C3.58199 137.412 2.40574 136.999 3.046 134.848L3.06602 134.818C3.3186 134.563 3.58182 134.308 3.83443 134.054C4.50533 133.969 5.18749 133.885 5.85842 133.8C7.04505 133.545 8.24308 133.075 9.42972 133.075C9.92639 133.075 10.3649 132.91 10.7902 132.667C12.9153 132.878 15.5693 132.642 17.7316 132.842C21.9892 133.235 23.6045 131.983 23.7807 130.294C24.0741 127.66 19.5229 129.436 18.0548 128.795H18.0252C14.6975 128.809 11.8891 129.109 10.0065 129.574C9.38936 129.508 8.77406 129.498 8.19416 129.347C6.86144 129.008 5.45007 129.234 4.07849 129.234H4.07563C3.33717 129.234 2.57805 129.234 2.06308 128.342C1.77134 127.847 1.42285 127.109 1.47104 126.557C1.54889 125.65 2.23034 125.903 2.678 125.903H10.2782C9.65536 123.013 8.41816 122.419 6.99769 122.348C5.62601 122.291 4.24301 122.42 2.88106 122.293C2.43345 122.251 1.7516 122.685 1.54731 121.368C1.29532 119.784 2.39259 119.965 2.69516 119.173C3.45393 117.204 2.77552 120.161 3.2319 119.498C3.3878 119.258 3.86377 119.539 4.10709 119.356C5.56675 118.222 6.85309 116.566 8.67274 116.637C9.12977 116.65 9.59609 116.068 9.4116 115.176C9.23645 114.313 8.68217 114.368 8.2056 114.34C6.44441 114.227 4.7692 114.766 3.09557 112.655C1.58744 110.742 1.42228 109.819 3.06602 108.388C3.67882 107.85 3.92126 106.774 3.56176 106.348C3.19819 105.918 2.94585 105.448 2.76857 104.953C2.99074 104.941 3.20238 104.931 3.39969 104.925C7.61278 104.781 14.9521 105.562 15.0832 103.035C15.17 100.876 8.26456 100.958 3.70382 101.061L3.65996 101.04C3.22751 101.035 2.78028 101.023 2.32811 101.011C2.32743 100.972 2.32698 100.933 2.32621 100.895C2.43119 100.373 2.40957 99.7261 2.53023 99.2679C2.66575 98.7541 2.73111 98.2143 2.76666 97.6619C5.05528 97.6879 5.95728 97.089 6.06625 96.3074C6.11469 95.9815 5.97218 95.7864 5.71351 95.6729C5.89838 95.6655 6.07615 95.6589 6.24548 95.6547C11.3947 95.5108 20.3657 96.2922 20.5259 93.7646C20.6321 91.6065 12.1915 91.6882 6.61729 91.7909L6.56391 91.7701C5.64049 91.7611 4.66183 91.7341 3.69238 91.7192C3.79502 91.5576 3.90872 91.3996 4.03749 91.2471C4.39698 90.8217 4.15452 89.7465 3.54174 89.2081C1.89769 87.7771 2.06307 86.8533 3.5713 84.9404C5.24489 82.8295 6.92018 83.3687 8.68132 83.2554C9.1579 83.2272 9.71218 83.2828 9.88733 82.4193C10.0717 81.5275 9.60546 80.9461 9.14847 80.9595C7.3289 81.0301 6.0424 79.3742 4.58282 78.2405C4.33946 78.0571 3.86341 78.3373 3.70763 78.0971C3.25125 77.4339 3.92966 80.3912 3.17089 78.4221C2.86816 77.631 1.7709 77.8116 2.02304 76.2269C2.22733 74.9106 2.90918 75.3444 3.35679 75.3027C4.71873 75.1753 6.10175 75.3039 7.47341 75.2473C8.89388 75.1764 10.1311 74.582 10.7539 71.6922H3.15373C2.70607 71.6924 2.02462 71.9453 1.94677 71.0386C1.89872 70.4862 2.24711 69.7485 2.53881 69.2529C3.05378 68.3618 3.81293 68.3623 4.55136 68.3623H4.55422C5.92582 68.3623 7.33715 68.5875 8.66988 68.2479C10.1975 67.8512 11.9695 68.4311 13.3805 66.3913C12.106 65.6261 11.1995 64.5204 9.90544 64.5203C8.71878 64.5198 7.5208 64.0499 6.33415 63.7949C5.66322 63.71 4.98106 63.6266 4.31015 63.5416C4.05757 63.287 3.79431 63.0319 3.54174 62.7772L3.52172 62.7482C2.88121 60.5969 4.05767 60.1842 4.96226 59.9575C6.19802 59.6457 7.49341 59.6742 8.71946 60.3542C9.09876 60.2976 9.4699 60.2406 9.8492 60.1981L10.0618 60.1L10.2877 60.139C12.0676 60.0117 12.8938 58.9053 12.204 56.2589C13.2997 56.0999 14.0624 55.7238 13.9677 54.9117C13.7393 53.1824 9.85952 53.5113 6.81655 53.5399L6.77841 53.5536C6.28512 53.5447 5.76021 53.5364 5.21966 53.5309C5.51276 51.5266 4.73262 50.8785 3.7143 50.5867L10.8531 50.5985C11.0337 50.556 11.2254 50.4977 11.406 50.4551C11.8001 49.7878 12.3669 49.7586 12.9314 49.7869C13.7082 47.104 12.8027 45.9833 10.8436 45.8551L10.5966 45.8941L10.364 45.7961C9.94862 45.7534 9.54194 45.6967 9.12655 45.6399C7.78435 46.3213 6.36656 46.3499 5.01374 46.0375C4.02337 45.8103 2.73489 45.3966 3.43592 43.2405L3.45785 43.2105C3.7344 42.9553 4.02309 42.6996 4.29967 42.4443C5.03414 42.3592 5.78079 42.2753 6.51528 42.1901C7.81438 41.9345 9.12592 41.4634 10.425 41.4629C11.0221 41.4629 11.5431 41.265 12.0515 40.98C14.1318 41.1507 16.6634 40.9432 18.7412 41.1352C22.9988 41.5282 24.6141 40.2763 24.7903 38.5878C25.0837 35.9534 20.5325 37.7294 19.0644 37.089H19.0348C15.5623 37.1033 12.6555 37.4299 10.7759 37.9305C10.1951 37.8838 9.61993 37.8571 9.07316 37.7272C7.61377 37.3866 6.06761 37.6128 4.56566 37.6128H4.5628C3.7544 37.6128 2.92427 37.6126 2.36053 36.7195C2.04115 36.2226 1.6596 35.4838 1.71224 34.9301C1.79747 34.0213 2.54253 34.2745 3.03265 34.2746H11.3546C10.6726 31.3779 9.31765 30.7824 7.76228 30.7114C6.26057 30.6547 4.74679 30.7837 3.25574 30.656C2.76567 30.6142 2.01888 31.0492 1.79518 29.73C1.51898 28.1412 2.72136 28.3226 3.05267 27.5294C3.88336 25.5558 3.13952 28.5195 3.63899 27.8553C3.80939 27.6141 4.33155 27.8957 4.59807 27.7119C6.19615 26.5755 7.60434 24.9157 9.59655 24.9865C10.097 25 10.608 24.4163 10.406 23.5222C10.2142 22.6571 9.60721 22.7125 9.08555 22.6842C7.15729 22.5707 5.32266 23.1116 3.49026 20.9956C1.8391 19.0784 1.65831 18.153 3.45785 16.7188C4.12873 16.1792 4.39475 15.1008 4.00127 14.6743C3.59654 14.2358 3.40247 13.7645 3.34344 13.2708C3.72649 13.2478 4.08626 13.2278 4.40835 13.2182C8.62144 13.0744 15.9607 13.8556 16.0918 11.328C16.1787 9.16997 9.27322 9.25163 4.71247 9.3544L4.66862 9.33352C4.55109 9.33213 4.43253 9.32759 4.31301 9.32535C4.57913 8.47387 4.73743 7.62821 4.50655 6.82697C4.4981 6.79761 4.48569 6.76821 4.47509 6.73709C6.95681 6.77094 7.93589 5.95265 8.05401 4.88509C8.11628 4.35788 7.88798 4.07945 7.50392 3.94185C12.6877 3.82809 21.3788 4.5438 21.5365 2.05626C21.6427 -0.101855 13.2021 -0.0201532 7.62786 0.0826136L7.57447 0.0617332C6.51609 0.0514878 5.38518 0.0149982 4.27869 0.00363137C4.33294 0.00278535 4.38726 7.56205e-10 4.44172 0H375.414ZM49.7703 247.266C49.6074 245.211 47.5383 245.397 47.0008 245.677C45.6001 246.406 44.4928 247.901 43.255 249.097C44.5745 251.414 46.4312 250.406 47.8321 250.611C49.298 250.817 49.9006 248.929 49.7703 247.266ZM205.959 247.266C205.796 245.211 203.727 245.397 203.189 245.677C201.789 246.406 200.681 247.901 199.444 249.097C200.763 251.414 202.62 250.406 204.021 250.611C205.487 250.817 206.089 248.929 205.959 247.266ZM69.401 247.464C65.1543 247.433 59.7395 247.079 59.4203 248.944C59.1017 251.056 65.7381 250.44 69.0826 250.378C74.2321 250.27 83.2038 250.855 83.363 248.959C83.4678 247.341 75.0282 247.402 69.4544 247.479L69.401 247.464ZM225.591 247.464C221.344 247.433 215.929 247.079 215.61 248.944C215.291 251.056 221.928 250.44 225.272 250.378C230.422 250.27 239.393 250.855 239.553 248.959C239.657 247.341 231.218 247.402 225.644 247.479L225.591 247.464ZM140.719 245.682C138.439 245.6 133.915 244.778 134.132 247.593C134.349 250.08 138.041 249.608 140.937 249.567L140.973 249.546C144.773 249.648 150.528 249.731 150.456 247.573C150.347 245.045 144.23 245.826 140.719 245.682ZM296.908 245.682C294.627 245.6 290.103 244.778 290.32 247.593C290.537 250.08 294.229 249.608 297.125 249.567L297.161 249.546C300.962 249.648 306.717 249.731 306.645 247.573C306.536 245.045 300.419 245.826 296.908 245.682ZM360.267 244.711C360.495 242.753 355.74 243.325 353.344 243.382C349.655 243.482 343.227 242.939 343.112 244.697C343.036 246.198 349.084 246.141 353.078 246.07L353.116 246.084C356.159 246.113 360.039 246.441 360.267 244.711ZM27.2157 243.129C23.7191 243.067 16.7818 242.451 17.1148 244.562C17.4481 246.427 23.1085 246.073 27.5484 246.042L27.6046 246.027C33.4321 246.104 42.2559 246.165 42.1453 244.547C41.9788 242.651 32.5993 243.237 27.2157 243.129ZM343.513 236.571C342.667 236.514 340.989 235.942 341.069 237.9C341.15 239.629 342.519 239.301 343.593 239.273L343.606 239.258C345.016 239.329 347.151 239.386 347.124 237.885C347.084 236.128 344.815 236.671 343.513 236.571ZM359.233 234.735C354.975 234.44 353.36 235.38 353.184 236.646C352.891 238.621 357.441 237.29 358.91 237.77H358.939C366.016 237.748 370.743 236.755 369.217 235.663C367.425 234.375 362.698 234.975 359.233 234.735ZM24.7112 235.689C24.535 234.423 22.9197 233.483 18.6621 233.778C15.1975 234.018 10.4708 233.418 8.67942 234.706C7.15258 235.798 11.8795 236.791 18.9557 236.813H18.9853C20.4533 236.333 25.0042 237.665 24.7112 235.689ZM364.05 229.033C364.311 226.921 358.882 227.538 356.145 227.599C351.932 227.707 344.591 227.121 344.461 229.018C344.374 230.636 351.28 230.574 355.841 230.497L355.884 230.513C359.359 230.544 363.79 230.898 364.05 229.033ZM21.751 226.644C19.0145 226.583 13.5851 225.966 13.8457 228.078C14.1066 229.943 18.5365 229.589 22.0112 229.558L22.0551 229.542C26.6157 229.619 33.521 229.681 33.4344 228.062C33.3041 226.166 25.9643 226.752 21.751 226.644ZM356.614 218.201C355.733 218.84 353.003 217.065 353.179 219.699C353.285 221.388 354.254 222.64 356.809 222.247C358.887 221.927 361.724 222.727 362.799 221.009C363.714 219.554 360.878 218.23 356.632 218.201H356.614ZM24.7169 218.743C24.8929 216.109 22.1619 217.885 21.281 217.245H21.2638C17.0181 217.274 14.1815 218.598 15.0975 220.053C16.1721 221.771 19.0086 220.971 21.0874 221.291C23.6419 221.684 24.6112 220.432 24.7169 218.743ZM351.781 211.201C347.57 210.923 345.972 211.81 345.798 213.006C345.509 214.872 350.01 213.614 351.462 214.067H351.491C358.49 214.047 363.166 213.108 361.655 212.077C359.884 210.861 355.208 211.428 351.781 211.201ZM23.2249 204.881C21.6589 205.361 16.8035 204.03 17.1167 206.006C17.3048 207.272 19.0279 208.21 23.569 207.916C27.2648 207.675 32.3076 208.276 34.2181 206.988C35.8464 205.896 30.8034 204.903 23.2554 204.881H23.2249ZM354.085 203.477C346.537 203.499 341.494 204.493 343.123 205.584C345.034 206.872 350.076 206.272 353.771 206.512C358.312 206.807 360.035 205.868 360.224 204.602C360.537 202.626 355.682 203.957 354.116 203.477H354.085ZM23.8922 196.644C23.7909 194.157 22.0679 194.629 20.7166 194.67L20.7004 194.691C18.9268 194.588 16.2411 194.507 16.2749 196.665C16.3258 199.192 19.1802 198.411 20.8186 198.555C21.8829 198.637 23.9935 199.459 23.8922 196.644ZM356.091 192.075C354.739 192.034 353.016 191.561 352.915 194.048C352.814 196.864 354.925 196.042 355.99 195.959C357.628 195.816 360.482 196.597 360.533 194.069C360.567 191.911 357.881 191.993 356.108 192.096L356.091 192.075ZM15.026 182.994C10.7789 182.952 5.36372 182.48 5.0452 184.967C4.72681 187.783 11.363 186.96 14.7075 186.878C19.8568 186.734 28.8278 187.516 28.988 184.988C29.0941 182.83 20.6536 182.912 15.0793 183.014L15.026 182.994ZM363.252 180.605C363.064 179.339 361.341 178.399 356.8 178.694C353.104 178.934 348.063 178.334 346.152 179.622C344.523 180.714 349.565 181.707 357.114 181.729H357.145C358.711 181.249 363.565 182.58 363.252 180.605ZM17.1014 169.376C13.6269 169.345 9.19718 168.991 8.93587 170.856C8.67526 172.968 14.1047 172.352 16.8412 172.29C21.0545 172.182 28.3943 172.767 28.5246 170.871C28.6103 169.253 21.7057 169.314 17.1453 169.391L17.1014 169.376ZM24.776 163.108C24.6703 161.42 23.701 160.168 21.1465 160.561C19.0677 160.881 16.2313 160.081 15.1566 161.798C14.2404 163.254 17.0771 164.579 21.3229 164.608H21.3401C22.221 163.968 24.9522 165.743 24.776 163.108ZM358.827 159.865C356.272 159.472 355.303 160.724 355.197 162.413C355.021 165.048 357.751 163.272 358.632 163.913H358.65C362.896 163.883 365.733 162.558 364.817 161.103C363.742 159.385 360.906 160.186 358.827 159.865ZM22.6386 152.893C18.1989 152.862 12.5388 152.508 12.205 154.373C11.872 156.485 18.8092 155.869 22.3058 155.807C27.6894 155.699 37.069 156.285 37.2355 154.388C37.345 152.77 28.5219 152.832 22.6948 152.909L22.6386 152.893ZM366.069 153.078C365.807 151.214 361.377 151.568 357.902 151.599L357.859 151.614C353.299 151.537 346.393 151.476 346.479 153.094C346.609 154.99 353.95 154.405 358.163 154.513C360.9 154.574 366.329 155.19 366.069 153.078ZM360.928 144.345C359.46 144.825 354.909 143.494 355.202 145.47C355.379 146.736 356.994 147.675 361.251 147.38C364.716 147.14 369.444 147.74 371.235 146.452C372.761 145.36 368.034 144.367 360.958 144.345H360.928ZM21.5508 135.031C17.0093 134.737 15.2863 135.676 15.0984 136.942C14.7859 138.918 19.6407 137.586 21.2066 138.066H21.2371C28.7853 138.045 33.8285 137.051 32.1998 135.959C30.2893 134.671 25.2465 135.272 21.5508 135.031ZM22.6977 124.203C22.5919 122.514 21.6226 121.262 19.0682 121.655C16.9894 121.976 14.153 121.175 13.0782 122.893C12.1621 124.348 14.9987 125.673 19.2446 125.702H19.2617C20.1426 125.062 22.8738 126.837 22.6977 124.203ZM362.149 114.694C360.798 114.653 359.075 114.181 358.974 116.668C358.872 119.483 360.984 118.661 362.048 118.579C363.687 118.435 366.541 119.216 366.592 116.688C366.626 114.53 363.94 114.612 362.166 114.715L362.149 114.694ZM19.992 113.388C16.5175 113.358 12.0878 113.004 11.8265 114.868C11.5659 116.98 16.9953 116.364 19.7318 116.303C23.9451 116.195 31.2849 116.78 31.4152 114.884C31.5009 113.266 24.5962 113.327 20.0359 113.404L19.992 113.388ZM16.9365 106.132C9.86025 106.154 5.13335 107.147 6.6602 108.239C8.45145 109.527 13.1782 108.927 16.6429 109.167C20.9002 109.462 22.5156 108.523 22.692 107.257C22.9856 105.281 18.4342 106.612 16.9661 106.132H16.9365ZM360.439 102.062C360.276 100.007 358.207 100.193 357.669 100.474C356.269 101.202 355.161 102.697 353.923 103.893C355.242 106.211 357.1 105.202 358.501 105.408C359.967 105.613 360.569 103.725 360.439 102.062ZM25.5282 96.9057C21.0886 96.8749 15.4285 96.5208 15.0946 98.3855C14.7616 100.497 21.6989 99.8816 25.1955 99.8199C30.5791 99.712 39.9586 100.297 40.1251 98.4009C40.2346 96.7828 31.4116 96.8441 25.5845 96.9212L25.5282 96.9057ZM371.888 87.3915C371.619 85.6623 367.055 85.9912 363.475 86.0198L363.431 86.0334C358.732 85.9619 351.616 85.9052 351.705 87.4061C351.84 89.1642 359.402 88.6215 363.743 88.7215C366.563 88.7787 372.156 89.3498 371.888 87.3915ZM21.5927 78.4575C21.4914 75.9705 19.7684 76.4427 18.4171 76.4838L18.4009 76.5047C16.6272 76.4019 13.9416 76.3202 13.9754 78.4784C14.0263 81.006 16.8807 80.2246 18.5191 80.3685C19.5833 80.4508 21.694 81.273 21.5927 78.4575ZM367.522 76.0726C366.203 73.7556 364.346 74.7645 362.945 74.5592C361.479 74.3536 360.876 76.2405 361.006 77.9037C361.169 79.9592 363.238 79.7727 363.776 79.4924C365.177 78.7636 366.284 77.2686 367.522 76.0726ZM23.5748 54.495C20.3527 54.4664 16.2441 54.1373 16.0022 55.8667C15.7605 57.825 20.7952 57.2539 23.3326 57.1967C27.2394 57.0967 34.0456 57.6394 34.1666 55.8813C34.2472 54.3804 27.8439 54.4371 23.6148 54.5086L23.5748 54.495ZM22.5594 43.324C18.018 43.0292 16.295 43.9686 16.1071 45.235C15.7946 47.2105 20.6494 45.8786 22.2153 46.3589H22.2458C29.794 46.3371 34.8372 45.3435 33.2085 44.2518C31.2979 42.9636 26.2552 43.5642 22.5594 43.324ZM373.7 41.1143C373.454 39.8479 371.193 38.9086 365.232 39.2033C360.382 39.4435 353.763 38.8429 351.255 40.1311C349.118 41.2228 355.737 42.2164 365.643 42.2382H365.684C367.74 41.7579 374.111 43.0899 373.7 41.1143ZM363.925 30.9692C361.609 30.928 358.655 30.456 358.482 32.9428C358.308 35.7586 361.928 34.9361 363.752 34.8538C366.561 34.71 371.454 35.4914 371.542 32.9637C371.6 30.8056 366.995 30.8873 363.955 30.9901L363.925 30.9692ZM23.7063 32.4944C23.6006 30.8059 22.6313 29.554 20.0769 29.947C17.998 30.2672 15.1616 29.4668 14.0869 31.1844C13.1708 32.64 16.0074 33.965 20.2532 33.9941H20.2704C21.1513 33.3536 23.8825 35.1291 23.7063 32.4944ZM21.0026 21.6802C17.528 21.6493 13.0983 21.2952 12.837 23.1599C12.5764 25.2718 18.0059 24.656 20.7423 24.5943C24.9556 24.4865 32.2955 25.0714 32.4258 23.1754C32.5115 21.5572 25.6068 21.6185 21.0464 21.6956L21.0026 21.6802ZM361.735 19.1028C361.629 17.4143 360.66 16.1625 358.105 16.5554C356.026 16.8756 353.19 16.0753 352.115 17.7928C351.199 19.2484 354.036 20.5734 358.282 20.6026H358.299C359.18 19.9621 361.911 21.7375 361.735 19.1028ZM17.9452 14.4247C10.8689 14.4466 6.14201 15.4401 7.66885 16.5318C9.46011 17.8198 14.1869 17.2195 17.6515 17.4596C21.9088 17.7544 23.5242 16.8158 23.7006 15.5495C23.9942 13.5735 19.4428 14.9051 17.9747 14.4247H17.9452ZM201.343 8.99852C200.023 6.68151 198.166 7.69045 196.766 7.48515C195.3 7.2796 194.696 9.1665 194.826 10.8296C194.989 12.8852 197.058 12.6987 197.596 12.4184C198.997 11.6896 200.105 10.1945 201.343 8.99852ZM170.521 9.40251C169.457 9.34085 167.345 8.72409 167.447 10.836C167.548 12.701 169.271 12.3466 170.622 12.3158L170.64 12.3003C172.413 12.3774 175.099 12.439 175.065 10.8206C175.014 8.92457 172.16 9.51035 170.521 9.40251ZM326.711 9.40251C325.647 9.34085 323.535 8.72409 323.636 10.836C323.738 12.701 325.461 12.3466 326.812 12.3158L326.829 12.3003C328.603 12.3774 331.288 12.439 331.255 10.8206C331.204 8.92457 328.349 9.51034 326.711 9.40251ZM351.488 9.27269C341.581 9.29453 334.963 10.2881 337.1 11.3798C339.607 12.668 346.226 12.0674 351.077 12.3076C357.037 12.6023 359.298 11.6637 359.545 10.3975C359.956 8.42149 353.584 9.75305 351.529 9.27269H351.488ZM52.025 6.7144C50.7057 4.39738 48.8488 5.40632 47.4479 5.20102C45.9819 4.99547 45.3785 6.88237 45.5088 8.54551C45.6717 10.601 47.7406 10.4145 48.2783 10.1342C49.6792 9.40542 50.787 7.91039 52.025 6.7144ZM79.0586 6.31222C77.9944 6.25056 75.8827 5.6338 75.984 7.7457C76.0854 9.61075 77.8084 9.25633 79.1597 9.22548L79.1768 9.21005C80.9504 9.28712 83.636 9.34868 83.6023 7.73027C83.5517 5.83427 80.6971 6.42006 79.0586 6.31222ZM235.247 6.31222C234.183 6.25056 232.071 5.6338 232.173 7.7457C232.274 9.61075 233.997 9.25633 235.348 9.22548L235.365 9.21005C237.139 9.28712 239.824 9.34868 239.791 7.73027C239.74 5.83427 236.886 6.42006 235.247 6.31222ZM26.5388 5.19921C22.0991 5.16836 16.439 4.81432 16.1052 6.67899C15.7722 8.79088 22.7095 8.17505 26.206 8.11338C31.5897 8.00547 40.9692 8.59051 41.1357 6.69442C41.2452 5.07627 32.4221 5.13757 26.595 5.21464L26.5388 5.19921ZM127.156 4.65269C125.836 2.33567 123.98 3.34462 122.579 3.13932C121.113 2.93376 120.509 4.82066 120.64 6.4838C120.802 8.53933 122.871 8.35282 123.409 8.07253C124.81 7.34371 125.918 5.84869 127.156 4.65269ZM283.345 4.65269C282.026 2.33568 280.169 3.34461 278.768 3.13932C277.302 2.93376 276.699 4.82066 276.829 6.4838C276.992 8.53935 279.061 8.35282 279.599 8.07253C280.999 7.34371 282.107 5.84869 283.345 4.65269ZM106.013 3.0912C96.1065 3.11303 89.4881 4.10663 91.6249 5.1983C94.1325 6.48653 100.751 5.88593 105.602 6.12611C111.562 6.42082 113.823 5.48224 114.07 4.21602C114.481 2.24 108.109 3.57156 106.054 3.0912H106.013ZM262.203 3.0912C252.296 3.11303 245.678 4.10663 247.814 5.1983C250.322 6.48653 256.941 5.88593 261.792 6.12611C267.752 6.42082 270.012 5.48224 270.259 4.21602C270.67 2.24 264.299 3.57156 262.244 3.0912H262.203ZM143.783 2.06352C142.315 2.54366 137.764 1.21243 138.057 3.18834C138.234 4.45462 139.849 5.39317 144.107 5.09844C147.571 4.85826 152.299 5.45886 154.09 4.17062C155.617 3.07894 150.889 2.08536 143.813 2.06352H143.783ZM171.043 2.19334C166.786 2.13165 158.341 1.515 158.746 3.62683C159.152 5.49186 166.044 5.13744 171.449 5.10661L171.517 5.09117C178.611 5.16825 189.353 5.22982 189.219 3.61139C189.016 1.71531 177.597 2.30125 171.043 2.19334ZM299.972 2.06352C298.504 2.54368 293.952 1.21242 294.246 3.18834C294.422 4.45462 296.038 5.39317 300.295 5.09844C303.76 4.85826 308.488 5.45886 310.279 4.17062C311.805 3.07894 307.078 2.08536 300.001 2.06352H299.972ZM327.231 2.19334C322.975 2.13165 314.53 1.51499 314.935 3.62683C315.341 5.49186 322.232 5.13744 327.638 5.10661L327.704 5.09117C334.799 5.16825 345.542 5.22986 345.407 3.61139C345.205 1.71531 333.785 2.30125 327.231 2.19334ZM64.3358 0.175213C60.0791 0.092953 51.6346 -0.729187 52.0393 2.08622C52.4447 4.57323 59.3366 4.10097 64.7419 4.05987L64.8096 4.03899C71.9039 4.14175 82.646 4.22411 82.5117 2.06625C82.309 -0.46187 70.8898 0.31909 64.3358 0.175213ZM213.954 0.174306C209.697 0.0920452 201.253 -0.730095 201.657 2.08531C202.063 4.57232 208.955 4.10007 214.36 4.05896L214.428 4.03808C221.522 4.14084 232.264 4.2232 232.13 2.06534C231.927 -0.462778 220.508 0.318182 213.954 0.174306Z" fill="#242329"/>
<path d="M378.998 183.604C378.813 183.586 378.622 183.569 378.427 183.555C378.473 183.549 378.517 183.543 378.56 183.54C378.698 183.528 378.846 183.524 379 183.523C378.999 183.55 378.999 183.577 378.998 183.604Z" fill="#242329"/>
<path d="M0.188766 3.99087C0.128174 3.99684 0.0681652 4.00368 0.00858027 4.00994C0.00525921 3.99527 0.00256217 3.98011 0 3.96454C0.0620967 3.97421 0.125132 3.98225 0.188766 3.99087Z" fill="#242329"/>
</svg>
