<svg width="220" height="51" viewBox="0 0 220 51" fill="none" xmlns="http://www.w3.org/2000/svg">
<path d="M0.00842819 41.4479L0.00662582 41.9845C-0.00531239 45.8454 3.12625 48.9773 6.98721 48.9844L15.4481 49C15.6024 48.9588 15.7659 48.9023 15.9203 48.8611C16.257 48.2147 16.7416 48.1864 17.224 48.2139C17.8877 45.6156 17.1137 44.5304 15.4398 44.4063L15.2287 44.4441L15.0303 44.3494C14.6753 44.3082 14.328 44.2529 13.9731 44.1979C12.8262 44.8579 11.6149 44.8857 10.4589 44.5831C9.61276 44.363 8.51216 43.9626 9.11137 41.8742L9.13017 41.8458C9.36644 41.5986 9.61258 41.351 9.84888 41.1038C10.4764 41.0213 11.1142 40.94 11.7418 40.8576C12.8518 40.6101 13.9724 40.1539 15.0825 40.1535C16.293 40.1535 17.1412 39.0809 18.3334 38.3381C17.0135 36.3577 15.3562 36.9204 13.9271 36.5353C12.6803 36.2055 11.3598 36.4248 10.0766 36.4248H10.0741C9.38338 36.4248 8.6738 36.4248 8.19209 35.5597C7.91918 35.0785 7.59334 34.3627 7.63843 33.8264C7.71125 32.9463 8.3479 33.1917 8.76664 33.1918H15.8764C15.2937 30.3865 14.1362 29.8098 12.8073 29.741C11.5241 29.6861 10.2308 29.8111 8.95676 29.6873C8.53806 29.6468 7.90057 30.0683 7.70947 28.7907C7.47349 27.2521 8.50031 27.4277 8.78335 26.6595C9.49312 24.7482 8.85787 27.619 9.28477 26.9753C9.43036 26.7417 9.87607 27.0144 10.1038 26.8363C11.4692 25.7359 12.6721 24.1283 14.3742 24.1969C14.8018 24.2102 15.2384 23.6454 15.0658 22.7793C14.9019 21.9412 14.3834 21.9953 13.9376 21.9679C12.2901 21.858 10.7229 22.3816 9.15733 20.3325C7.74652 18.4756 7.59231 17.5793 9.13017 16.1902C9.70339 15.6676 9.93027 14.6236 9.59399 14.2106C7.84715 12.0651 8.82008 8.92812 8.18373 6.42495C7.92891 5.42078 8.35609 3.4803 6.5541 4.12648C5.76395 4.41335 6.33523 2.1485 6.84451 1.77435C8.19176 0.811422 7.79108 0.11005 6.74423 1.74196e-07C3.02415 1.74196e-07 0.00842819 3.01571 0.00842819 6.73579V41.4479Z" fill="#8E0F0F"/>
<path d="M26.0969 44.9989C24.6321 44.5326 20.091 45.8255 20.384 43.9074C20.5598 42.6781 22.1711 41.7668 26.4192 42.0529C29.8763 42.286 34.5931 41.7032 36.3803 42.9536C37.9037 44.0134 33.1869 44.9777 26.1262 44.9989H26.0969Z" fill="#8E0F0F"/>
<path d="M53.9815 6.51547C52.8235 7.6764 51.7874 9.12757 50.477 9.83501C49.9741 10.1071 48.039 10.2885 47.8866 8.29315C47.7647 6.67873 48.3285 4.84664 49.6998 5.04617C51.0103 5.24571 52.7473 4.26617 53.9815 6.51547Z" fill="#8E0F0F"/>
<path d="M124.259 4.51547C123.101 5.6764 122.065 7.12757 120.755 7.83501C120.252 8.1071 118.317 8.2885 118.164 6.29315C118.042 4.67873 118.606 2.84664 119.978 3.04617C121.288 3.24571 123.025 2.26617 124.259 4.51547Z" fill="#8E0F0F"/>
<path d="M44.8966 38.0602C46.1607 38.0203 47.7723 37.5614 47.8671 39.9755C47.9619 42.7088 45.9869 41.9107 44.9914 41.8309C43.4588 41.6913 40.7885 42.4494 40.7411 39.9954C40.7095 37.9006 43.2218 37.9804 44.8808 38.0801L44.8966 38.0602Z" fill="#8E0F0F"/>
<path d="M24.2789 32.9985C25.1029 32.3768 27.6572 34.1006 27.4924 31.5432C27.3936 29.9041 26.4872 28.689 24.0976 29.0705C22.153 29.3814 19.4998 28.6042 18.4945 30.2715C17.6376 31.6845 20.2908 32.9703 24.2624 32.9985H24.2789Z" fill="#8E0F0F"/>
<path d="M201.28 40.9989C203.203 40.5326 209.163 41.8255 208.779 39.9074C208.548 38.6781 206.433 37.7668 200.857 38.0529C196.32 38.286 190.129 37.7032 187.783 38.9536C185.784 40.0134 191.975 40.9777 201.242 40.9989H201.28Z" fill="#8E0F0F"/>
<path d="M24.9618 21.0451C21.7114 21.0152 17.5671 20.6711 17.3233 22.4816C17.0796 24.5316 22.1583 23.9331 24.718 23.8732C28.6591 23.7685 35.5256 24.3371 35.6474 22.4966C35.7287 20.9254 29.2686 20.9853 25.0024 21.0601L24.9618 21.0451Z" fill="#8E0F0F"/>
<path d="M9.68402 9.06018C6.43363 9.02028 2.28935 8.56142 2.04557 10.9755C1.80179 13.7088 6.88056 12.9107 9.44025 12.8309C13.3814 12.6913 20.2478 13.4494 20.3697 10.9954C20.4509 8.90058 13.9908 8.98037 9.72463 9.08012L9.68402 9.06018Z" fill="#8E0F0F"/>
<path d="M23.6056 47.0602C19.6329 47.0203 14.5676 46.5614 14.2697 48.9755C13.9717 51.7088 20.1791 50.9107 23.3076 50.8309C28.1245 50.6913 36.5168 51.4494 36.6658 48.9954C36.7651 46.9006 28.8694 46.9804 23.6552 47.0801L23.6056 47.0602Z" fill="#8E0F0F"/>
<path d="M12.4019 0.060183C8.42915 0.0202808 3.36392 -0.438581 3.06597 1.9755C2.76801 4.7088 8.97541 3.91074 12.1039 3.83094C16.9208 3.69128 25.3131 4.44943 25.4621 1.99544C25.5614 -0.0994233 17.6657 -0.0196323 12.4515 0.0801232L12.4019 0.060183Z" fill="#8E0F0F"/>
<path d="M72.4945 45.0451C68.5217 45.0152 63.4565 44.6711 63.1586 46.4816C62.8606 48.5316 69.068 47.9331 72.1965 47.8732C77.0134 47.7685 85.4057 48.3371 85.5547 46.4966C85.654 44.9254 77.7583 44.9853 72.5441 45.0601L72.4945 45.0451Z" fill="#8E0F0F"/>
<path d="M202.865 44.0602C198.892 44.0203 193.827 43.5614 193.529 45.9755C193.231 48.7088 199.438 47.9107 202.567 47.8309C207.384 47.6913 215.776 48.4494 215.925 45.9954C216.024 43.9006 208.129 43.9804 202.914 44.0801L202.865 44.0602Z" fill="#8E0F0F"/>
<path d="M194.371 19.9985C195.195 19.3768 197.75 21.1006 197.585 18.5432C197.486 16.9041 196.58 15.689 194.19 16.0705C192.246 16.3814 189.592 15.6042 188.587 17.2715C187.73 18.6845 190.383 19.9703 194.355 19.9985H194.371Z" fill="#8E0F0F"/>
<path d="M199.635 30.0602C197.468 30.0203 194.705 29.5614 194.543 31.9755C194.38 34.7088 197.766 33.9107 199.473 33.8309C202.1 33.6913 206.678 34.4494 206.759 31.9954C206.813 29.9006 202.506 29.9804 199.662 30.0801L199.635 30.0602Z" fill="#8E0F0F"/>
<path d="M30.1415 5.04514C25.9882 5.01521 20.6927 4.67106 20.3813 6.48163C20.0698 8.5316 26.5593 7.93306 29.83 7.87321C34.8659 7.76846 43.6396 8.33707 43.7954 6.49658C43.8992 4.92543 35.6446 4.98528 30.1934 5.06009L30.1415 5.04514Z" fill="#8E0F0F"/>
<path d="M219.99 7.55205L219.992 7.01788C220.007 3.15602 216.872 0.0237009 213.011 0.0178911L201.119 1.74196e-07C200.931 0.0411531 200.731 0.0976908 200.542 0.138916C200.13 0.785305 199.538 0.813626 198.949 0.786141C198.137 3.38439 199.083 4.4696 201.129 4.59374L201.387 4.55585L201.63 4.65057C202.064 4.69183 202.488 4.74711 202.922 4.80212C204.324 4.14207 205.804 4.11434 207.217 4.41694C208.251 4.637 209.596 5.03743 208.864 7.12583L208.841 7.15424C208.552 7.40142 208.251 7.64901 207.963 7.89619C207.196 7.97866 206.416 8.05998 205.649 8.14245C204.292 8.38994 202.923 8.84608 201.566 8.84652C200.086 8.84652 199.05 9.91909 197.593 10.6619C199.206 12.6423 201.231 12.0796 202.978 12.4647C204.502 12.7945 206.116 12.5752 207.684 12.5752H207.687C208.532 12.5752 209.399 12.5752 209.988 13.4403C210.321 13.9215 210.719 14.6373 210.664 15.1736C210.575 16.0537 209.797 15.8083 209.285 15.8082H200.596C201.308 18.6135 202.723 19.1902 204.347 19.259C205.915 19.3139 207.496 19.1889 209.053 19.3127C209.565 19.3532 210.344 18.9317 210.577 20.2093C210.866 21.7479 209.611 21.5723 209.265 22.3405C208.397 24.2518 209.174 21.381 208.652 22.0247C208.474 22.2583 207.929 21.9856 207.651 22.1637C205.982 23.2641 204.512 24.8717 202.432 24.8031C201.909 24.7898 201.375 25.3546 201.586 26.2207C201.787 27.0588 202.42 27.0047 202.965 27.0321C204.979 27.142 206.894 26.6184 208.808 28.6675C210.532 30.5244 210.721 31.4207 208.841 32.8098C208.14 33.3324 207.863 34.3764 208.274 34.7894C210.409 36.9349 209.22 40.0719 209.998 42.5751C210.309 43.5792 209.787 45.5197 211.99 44.8735C212.955 44.5867 212.257 46.8515 211.635 47.2256C209.988 48.1886 210.478 48.8899 211.757 49H212.99C216.856 49 219.99 45.866 219.99 42V7.55205Z" fill="#8E0F0F"/>
<path d="M188.04 9.00111C189.962 9.46738 195.922 8.17455 195.538 10.0926C195.307 11.3219 193.192 12.2332 187.617 11.9471C183.079 11.714 176.888 12.2968 174.543 11.0464C172.543 9.98665 178.734 9.0223 188.001 9.00111H188.04Z" fill="#8E0F0F"/>
<path d="M104.521 3.00111C106.444 3.46738 112.404 2.17455 112.019 4.09262C111.789 5.32189 109.674 6.23324 104.098 5.94712C99.5607 5.71398 93.3698 6.29682 91.0242 5.04636C89.0247 3.98665 95.2155 3.0223 104.483 3.00111H104.521Z" fill="#8E0F0F"/>
<path d="M180.278 46.4845C181.436 45.3236 182.472 43.8724 183.782 43.165C184.285 42.8929 186.22 42.7115 186.373 44.7068C186.495 46.3213 185.931 48.1534 184.56 47.9538C183.249 47.7543 181.512 48.7338 180.278 46.4845Z" fill="#8E0F0F"/>
<path d="M88.6112 46.4845C89.7692 45.3236 90.8053 43.8724 92.1158 43.165C92.6186 42.8929 94.5537 42.7115 94.7061 44.7068C94.828 46.3213 94.2642 48.1534 92.8929 47.9538C91.5825 47.7543 89.8454 48.7338 88.6112 46.4845Z" fill="#8E0F0F"/>
<path d="M48.8889 49.4845C50.047 48.3236 51.0831 46.8724 52.3935 46.165C52.8964 45.8929 54.8315 45.7115 54.9839 47.7068C55.1058 49.3213 54.542 51.1534 53.1706 50.9538C51.8602 50.7543 50.1232 51.7338 48.8889 49.4845Z" fill="#8E0F0F"/>
<path d="M79.3628 8.95486C78.0987 8.98479 76.487 9.32894 76.3922 7.51837C76.2974 5.4684 78.2725 6.06694 79.268 6.12679C80.8006 6.23154 83.4709 5.66293 83.5183 7.50342C83.5499 9.07457 81.0376 9.01472 79.3785 8.93991L79.3628 8.95486Z" fill="#8E0F0F"/>
<path d="M164.918 11.9549C163.654 11.9848 162.043 12.3289 161.948 10.5184C161.853 8.4684 163.828 9.06694 164.824 9.12679C166.356 9.23154 169.026 8.66293 169.074 10.5034C169.105 12.0746 166.593 12.0147 164.934 11.9399L164.918 11.9549Z" fill="#8E0F0F"/>
<path d="M139.455 46.9398C138.191 46.9797 136.58 47.4386 136.485 45.0245C136.39 42.2912 138.365 43.0893 139.361 43.1691C140.893 43.3087 143.563 42.5506 143.611 45.0046C143.642 47.0994 141.13 47.0196 139.471 46.9199L139.455 46.9398Z" fill="#8E0F0F"/>
<path d="M139.813 2.00111C138.44 2.46738 134.183 1.17455 134.457 3.09262C134.622 4.32189 136.133 5.23324 140.115 4.94712C143.356 4.71398 147.778 5.29682 149.454 4.04636C150.882 2.98665 146.46 2.0223 139.841 2.00111H139.813Z" fill="#8E0F0F"/>
<path d="M22.1314 14.0011C23.5048 14.4674 27.762 13.1745 27.4874 15.0926C27.3226 16.3219 25.8119 17.2332 21.8293 16.9471C18.5883 16.714 14.1663 17.2968 12.4908 16.0464C11.0626 14.9866 15.4847 14.0223 22.104 14.0011H22.1314Z" fill="#8E0F0F"/>
<path d="M165.219 46.0015C167.508 46.6232 174.603 44.8994 174.146 47.4568C173.871 49.0959 171.353 50.311 164.715 49.9295C159.314 49.6186 151.944 50.3958 149.151 48.7285C146.771 47.3155 154.141 46.0297 165.173 46.0015H165.219Z" fill="#8E0F0F"/>
<path d="M204.941 25.0015C207.23 25.6232 214.326 23.8994 213.868 26.4568C213.593 28.0959 211.075 29.311 204.438 28.9295C199.036 28.6186 191.666 29.3958 188.874 27.7285C186.493 26.3155 193.863 25.0297 204.896 25.0015H204.941Z" fill="#8E0F0F"/>
<path d="M23.15 36.0015C24.5233 36.6232 28.7805 34.8994 28.5059 37.4568C28.3411 39.0959 26.8304 40.311 22.8478 39.9295C19.6068 39.6186 15.1848 40.3958 13.5094 38.7285C12.0811 37.3155 16.5032 36.0297 23.1225 36.0015H23.15Z" fill="#8E0F0F"/>
<path d="M198.335 0.00147734C199.708 0.623174 203.966 -1.1006 203.691 1.45683C203.526 3.09585 202.016 4.31099 198.033 3.92949C194.792 3.61864 190.37 4.39575 188.695 2.72848C187.266 1.31553 191.688 0.0297363 198.308 0.00147734H198.335Z" fill="#8E0F0F"/>
<path d="M116.372 46.9398C113.664 46.9797 110.21 47.4386 110.007 45.0245C109.804 42.2912 114.036 43.0893 116.169 43.1691C119.454 43.3087 125.176 42.5506 125.277 45.0046C125.345 47.0994 119.961 47.0196 116.406 46.9199L116.372 46.9398Z" fill="#8E0F0F"/>
<path d="M65.8768 3.93982C60.8206 3.97972 54.3739 4.43858 53.9947 2.0245C53.6155 -0.708803 61.5158 0.0892554 65.4976 0.16906C71.6282 0.308718 82.3093 -0.449428 82.4989 2.00456C82.6253 4.09942 72.5762 4.01963 65.9399 3.91988L65.8768 3.93982Z" fill="#8E0F0F"/>
<path d="M165.692 4.95486C160.635 4.98479 154.189 5.32894 153.81 3.51837C153.43 1.4684 161.331 2.06694 165.312 2.1268C171.443 2.23154 182.124 1.66293 182.314 3.50342C182.44 5.07457 172.391 5.01472 165.755 4.93991L165.692 4.95486Z" fill="#8E0F0F"/>
</svg>
