<svg width="390" height="99" viewBox="0 0 390 99" fill="none" xmlns="http://www.w3.org/2000/svg">
<path d="M257.101 86.221V47.9368C257.101 45.1831 255.153 43.1681 253.541 43.2353L247.765 43.5711V40.4815L266.773 39.474V81.0493C266.773 87.027 263.683 90.6539 259.183 93.7435C255.556 96.2958 252.332 97.9077 248.773 97.9077C245.146 97.9077 242.661 95.557 242.594 92.4674L249.377 88.5718C249.78 92.1315 251.795 93.6092 252.937 93.6092C254.885 93.6092 257.101 88.7733 257.101 86.221Z" fill="#E3DDD3"/>
<path d="M307.414 70.4372L313.056 72.2506C312.921 74.9372 312.317 76.885 310.167 79.0343C306.944 82.1911 298.279 85.818 292.705 85.818C289.413 85.818 287.6 84.9449 284.712 83.4001C276.585 79.0343 272.085 71.982 272.085 63.5863C272.085 56.3325 275.712 49.213 281.488 44.9816C286.257 41.489 294.585 38.5337 298.011 38.5337C302.981 38.5337 309.899 42.6308 311.309 46.8622L305.6 51.0936C302.645 47.1309 295.861 43.5711 292.167 43.5711C289.212 43.5711 287.13 45.1159 285.048 48.2727C283.033 51.2951 281.891 54.3175 281.891 57.0713C281.891 57.8101 281.958 58.2803 282.025 59.0191H301.436C304.929 59.0191 306.205 57.8773 307.279 56.6012L309.496 58.8176C308.824 60.0937 308.22 60.7654 306.339 61.6385C303.182 63.1162 299.69 63.7878 298.279 63.7878H282.495C282.495 64.258 282.428 64.5266 282.428 65.064C282.428 66.5416 283.772 70.1014 286.189 72.8551C289.749 76.9522 297.137 81.3179 299.757 81.3179C302.846 81.3179 306.138 78.0268 307.414 70.4372Z" fill="#E3DDD3"/>
<path d="M331.241 84.8777C324.592 84.8777 321.032 82.5269 320.36 77.4224C320.226 76.6835 320.36 76.2134 320.36 75.4746C320.36 75.0716 320.495 74.8701 320.562 74.4671L328.89 72.9223C328.42 73.7283 327.816 74.7358 327.816 75.4074C327.816 79.6388 330.234 81.9224 334.129 81.9224C337.017 81.9224 339.905 78.5642 339.905 75.2059C339.905 72.8551 339.905 71.3775 338.025 70.5043L322.913 63.7878C320.293 62.646 318.01 59.0863 318.01 55.728C318.01 52.0339 319.621 48.1383 322.174 45.3846C325.599 41.6905 333.189 38.6009 335.943 38.6009C337.555 38.6009 344.002 40.4815 347.428 45.3174L342.189 51.2951C341.719 48.7428 339.435 46.9294 335.54 45.5189C332.316 44.3771 329.763 43.9069 329.025 43.9069C326.875 43.9069 324.457 46.392 324.457 51.4294C324.457 53.7131 325.263 54.6534 327.48 55.5265L342.122 61.3027C345.682 62.7132 347.697 65.6685 347.697 70.1014C347.697 77.691 340.51 84.8777 331.241 84.8777Z" fill="#E3DDD3"/>
<path d="M382.989 69.6312L389.37 71.176C389.437 71.982 389.571 72.385 389.571 73.191C389.571 77.8925 386.415 81.3851 380.37 83.5344C377.549 84.5419 375.87 85.012 372.847 85.012C365.996 85.012 361.832 81.0493 361.832 73.5939V47.4667H352.228V43.101H361.832V39.5412L371.705 32.4217C371.974 32.2202 372.511 32.2202 372.511 32.556C372.511 32.556 371.437 34.5038 371.504 38.0636V43.101H382.788C384.736 43.101 385.877 42.0263 387.153 40.683L388.967 42.4293C387.892 44.7801 384.803 47.1309 380.638 47.1309H371.504V72.6536C371.504 77.1537 374.929 80.512 377.347 80.512C379.295 80.512 381.915 76.9522 382.989 69.6312Z" fill="#E3DDD3"/>
<path d="M76.8267 84.0153L67.2404 85.023L67.155 48.0148C67.155 46.2013 66.2818 45.5297 65.0728 44.9252L64.8713 43.5147L76.8267 42.3729V84.0153Z" fill="#E3DDD3"/>
<path d="M126.116 83.9482L115.84 85.0228C113.69 84.4183 112.884 82.7392 112.952 82.1347L114.631 59.7687C114.698 59.2314 114.698 58.9627 114.698 58.4254C114.698 53.9925 112.347 51.7089 107.981 49.0223C106.168 47.8805 104.892 47.1416 102.743 47.1416C100.66 47.1416 98.6455 49.0894 97.3022 52.6492C96.2275 55.6045 95.623 58.3582 95.5559 59.7687L94.817 84.0153L84.9438 85.0228L85.6154 51.9775C85.6826 48.6193 84.4736 46.4028 83.0631 44.052L92.3319 40.6938L94.5484 47.4775C94.6827 47.8805 94.8842 48.2834 95.3544 48.2834C96.0932 48.2834 97.3022 46.3357 99.5186 45.0595C104.019 42.5072 106.705 40.4251 108.183 40.4251C112.884 40.4251 124.773 47.9476 124.37 55.2015L122.959 78.4406C122.825 80.8586 123.631 81.463 126.116 82.3362V83.9482Z" fill="#E3DDD3"/>
<path d="M159.89 63.5299L174.397 62.6568V85.7616C174.397 88.8512 167.412 98.2543 159.822 98.2543C159.218 98.2543 158.949 98.1872 158.345 98.12L157.673 97.314C162.912 95.0304 165.33 91.4707 165.33 88.5154C165.33 85.4258 164.591 83.2765 163.248 83.2765C160.561 83.2765 155.054 87.1049 151.494 87.1049C141.285 87.1049 131.613 76.6943 131.613 66.6867C131.613 61.6493 133.494 55.806 136.315 52.2462C141.688 45.4625 153.845 40.4923 157.27 40.4923C162.173 40.4923 169.494 44.5894 171.308 48.3506L165.531 53.2537C162.173 49.0223 155.994 45.7983 151.427 45.7983C150.285 45.7983 149.681 46.2013 148.673 46.7386C143.3 49.5596 141.151 54.0597 141.151 61.3135C141.151 67.5599 141.755 71.4554 146.389 76.0227C150.486 80.1197 155.121 82.0675 157.203 82.0675C159.688 82.0675 164.726 78.3735 164.726 74.8809V68.9032C164.726 68.1643 164.121 67.224 163.449 66.9554L160.225 65.6121L159.89 63.5299Z" fill="#E3DDD3"/>
<path d="M180.672 40.2236H188.799C188.597 47.9476 187.187 55.7388 185.911 60.5075H179.866C180.739 55.8731 181.008 51.3059 181.008 46.8058C181.008 44.6565 180.941 42.4401 180.672 40.2236Z" fill="#E3DDD3"/>
<path d="M206.433 85.896C199.784 85.896 196.224 83.5452 195.552 78.4406C195.418 77.7018 195.552 77.2316 195.552 76.4928C195.552 76.0898 195.687 75.8883 195.754 75.4853L204.082 73.9405C203.612 74.7465 203.008 75.754 203.008 76.4257C203.008 80.6571 205.426 82.9407 209.321 82.9407C212.209 82.9407 215.097 79.5824 215.097 76.2242C215.097 73.8734 215.097 72.3957 213.217 71.5226L198.105 64.8061C195.485 63.6643 193.201 60.1045 193.201 56.7463C193.201 53.0522 194.813 49.1566 197.366 46.4028C200.791 42.7087 208.381 39.6191 211.135 39.6191C212.747 39.6191 219.194 41.4998 222.62 46.3357L217.381 52.3134C216.911 49.7611 214.627 47.9476 210.732 46.5372C207.508 45.3953 204.955 44.9252 204.217 44.9252C202.067 44.9252 199.649 47.4103 199.649 52.4477C199.649 54.7313 200.455 55.6716 202.672 56.5448L217.314 62.321C220.874 63.7314 222.888 66.6867 222.888 71.1196C222.888 78.7093 215.702 85.896 206.433 85.896Z" fill="#E3DDD3"/>
<path d="M0 6.96169L15.9811 0.642578C19.9764 4.88985 22.71 14.4203 22.71 25.4011V53.6817C22.71 54.7176 23.1306 55.8571 24.182 55.8571C26.3899 55.8571 30.5954 50.8847 36.7986 41.5614C43.7378 31.3058 48.5742 25.1939 48.5742 21.6717C48.5742 20.6358 48.4691 20.1179 48.3639 19.0819L60.4549 20.1179C59.8241 25.6082 56.6699 27.3693 55.4082 29.3375C52.0438 34.4136 49.8359 37.1069 45.42 41.3542C39.2168 47.3626 36.6935 52.6457 36.6935 53.1637C36.6935 54.1996 37.3243 54.7176 38.0603 55.5463L58.983 79.994C59.5087 80.6156 63.5607 81.8681 67.2406 82.3861V85.0229L48.4691 87.6598L30.0698 69.3241C28.4927 67.7702 27.231 65.9055 25.7591 65.9055C23.9717 65.9055 22.71 67.045 22.71 68.8061V84.8628L6.93917 86.9347V21.0502C6.93917 14.4203 4.94153 9.75867 0.630834 8.30838L0 6.96169Z" fill="#E3DDD3"/>
<path d="M82.9392 18.2425L85.6474 18.8981C85.6759 19.2402 85.7329 19.4113 85.7329 19.7534C85.7329 21.7488 84.3931 23.2312 81.8274 24.1434C80.6302 24.571 79.9175 24.7706 78.6347 24.7706C75.727 24.7706 73.9595 23.0887 73.9595 19.9244V8.83521H69.8831V6.98227H73.9595V5.4714L78.1501 2.44967C78.2641 2.36415 78.4921 2.36415 78.4921 2.50669C78.4921 2.50669 78.036 3.33338 78.0645 4.84425V6.98227H82.8537C83.6804 6.98227 84.165 6.52616 84.7066 5.95602L85.4763 6.6972C85.0202 7.69494 83.7089 8.69268 81.9415 8.69268H78.0645V19.5253C78.0645 21.4353 79.5184 22.8606 80.5446 22.8606C81.3713 22.8606 82.4831 21.3497 82.9392 18.2425Z" fill="#E3DDD3"/>
<path d="M88.9363 24.7135V6.35511C88.9363 4.53067 88.3947 3.24787 87.2259 2.84877L87.0549 2.47818L91.3879 0.739258C92.3002 1.76551 93.0128 3.96054 93.0698 5.49991L93.2124 8.63567C96.0916 6.52616 98.0586 5.75647 98.6002 5.75647C100.596 5.75647 103.845 7.83747 104.872 9.86146C105.413 10.9162 105.641 12.3701 105.584 12.8547L104.701 21.4923C104.615 22.2335 104.957 22.5755 105.584 23.0316V23.6873L100.197 24.343L101.308 13.0257C101.422 11.7999 100.767 10.9162 99.3699 10.0325C98.2011 9.29133 97.1463 8.7782 96.0061 8.7782C95.2649 8.7782 93.7825 10.061 93.5545 11.1158C93.3549 12.142 93.1269 13.0542 93.1269 13.5959L93.0128 24.343L88.9363 24.7135Z" fill="#E3DDD3"/>
<path d="M122.659 18.5846L125.053 19.3543C124.996 20.4945 124.74 21.3212 123.828 22.2335C122.459 23.5733 118.782 25.1126 116.416 25.1126C115.019 25.1126 114.249 24.7421 113.024 24.0864C109.574 22.2334 107.664 19.2402 107.664 15.6769C107.664 12.5981 109.204 9.57639 111.655 7.78046C113.679 6.2981 117.214 5.0438 118.668 5.0438C120.777 5.0438 123.714 6.78272 124.312 8.57865L121.889 10.3746C120.635 8.69268 117.756 7.18181 116.188 7.18181C114.934 7.18181 114.05 7.83747 113.166 9.1773C112.311 10.4601 111.826 11.7429 111.826 12.9117C111.826 13.2253 111.855 13.4248 111.883 13.7384H120.122C121.604 13.7384 122.146 13.2538 122.602 12.7122L123.543 13.6529C123.258 14.1945 123.001 14.4796 122.203 14.8502C120.863 15.4773 119.381 15.7624 118.782 15.7624H112.083C112.083 15.9619 112.054 16.076 112.054 16.304C112.054 16.9312 112.624 18.442 113.651 19.6108C115.162 21.3497 118.297 23.2027 119.409 23.2027C120.72 23.2027 122.117 21.8058 122.659 18.5846Z" fill="#E3DDD3"/>
</svg>
