<svg width="101" height="70" viewBox="0 0 101 70" fill="none" xmlns="http://www.w3.org/2000/svg">
<g id="Group 37397">
<path id="Vector 141" d="M83.184 68.2847H16.3571V54.8116L13.4828 47.0869L3.42285 14.2124L17.9739 25.5299L31.6267 30.5598L20.6685 34.1527L25.3392 42.4162H43.8424V22.6556L34.3213 21.5777L50.1298 4.51172C51.4233 7.38599 61.6868 17.0867 66.6569 21.5777L57.3155 22.6556V42.4162H75.4594L79.0522 34.1527L68.633 30.5598L83.184 25.5299L97.5554 12.5956L84.6212 54.8116L83.184 68.2847Z" fill="#E9B460"/>
<g id="Group 37389">
<path id="Vector" d="M100.221 8.92511C100.327 9.51509 100.115 9.90447 99.9967 10.3057C98.9289 13.9163 97.6427 17.4561 96.451 21.0255C95.9377 22.5594 95.4775 24.111 94.9997 25.6568C94.1973 28.2468 93.3536 30.8249 92.51 33.409C91.7489 35.7276 91.1176 38.0875 90.4097 40.4238C89.1353 44.6421 87.7194 48.8132 86.3624 53.008C86.0262 54.0581 85.6545 55.0965 85.3595 56.1525C85.2002 56.7189 84.917 56.9136 84.3388 56.9077C82.5335 56.8782 80.7282 56.89 78.917 56.89C74.3919 56.89 69.8609 56.8959 65.3358 56.89C57.5776 56.89 49.8195 56.8782 42.0613 56.8782C36.4742 56.8782 30.8872 56.8841 25.3001 56.89C22.4388 56.89 19.5715 56.8664 16.7101 56.9077C16.0198 56.9195 15.719 56.6422 15.5184 56.0522C14.3384 52.5537 13.1231 49.0728 12.1378 45.5094C11.0936 41.7277 9.83692 37.999 8.68647 34.2468C7.72481 31.1199 6.88705 27.9518 5.80739 24.8662C4.81034 22.0166 4.06107 19.0963 3.09352 16.2467C2.33835 14.0284 1.60088 11.8042 0.851615 9.58588C0.798517 9.42659 0.662822 9.2496 0.833914 9.1316C0.981407 9.03131 1.1525 9.1729 1.2941 9.2614C1.70708 9.51509 2.04336 9.85727 2.39735 10.1818C4.86934 12.4709 7.31773 14.7895 9.84282 17.0196C12.5803 19.4384 15.4004 21.7688 18.1555 24.1641C18.834 24.7541 19.6836 24.6833 20.4564 24.8721C22.2264 25.3087 23.9668 25.822 25.7072 26.3647C28.4093 27.2025 31.076 28.1229 33.7191 29.1376C34.8813 29.5801 36.0318 30.0521 37.1881 30.5182C38.1734 30.9134 38.2265 31.1081 37.7545 32.0639C37.1881 33.2084 36.9403 34.4651 36.4978 35.6568C36.3916 35.9341 36.5214 36.1583 36.6925 36.3825C37.9669 38.0757 39.3828 39.651 40.7516 41.2616C41.1763 41.7631 41.7073 41.6392 42.2029 41.6038C42.5156 41.5802 42.3976 41.2144 42.3976 40.9902C42.4094 38.6303 42.4153 36.2704 42.4153 33.9105C42.4153 30.6362 42.3976 27.3677 42.4212 24.0933C42.4212 23.5034 42.1793 23.3618 41.6719 23.3264C38.4566 23.0904 35.2471 22.8426 32.0317 22.5948C31.7486 22.5712 31.4654 22.5063 31.1763 22.4709C30.9049 22.4355 30.5037 22.5594 30.4329 22.2172C30.3739 21.9281 30.7456 21.7747 30.9698 21.6154C32.3739 20.6125 33.8194 19.6567 35.194 18.6184C37.666 16.7541 39.9197 14.6597 41.9197 12.2762C43.7663 10.0815 45.5421 7.85136 47.082 5.41477C48.0908 3.81594 49.0761 2.19351 50.0672 0.576983C50.4094 0.0165074 50.6336 0.134502 50.9227 0.582882C51.9552 2.19941 53.0525 3.77464 54.0201 5.42657C56.262 9.2555 59.1115 12.6066 62.2384 15.7098C63.7251 17.1847 65.3889 18.4945 67.1824 19.6449C68.2207 20.3116 69.2827 20.9783 70.2561 21.7629C70.4272 21.8986 70.6455 21.993 70.5924 22.2644C70.5275 22.5771 70.2502 22.5653 70.0202 22.5771C67.6426 22.7305 65.265 22.878 62.8874 23.0314C61.5894 23.114 60.2974 23.2261 58.9994 23.3146C58.7163 23.3323 58.557 23.3972 58.5629 23.7335C58.5924 25.6096 58.6278 27.4857 58.616 29.3618C58.616 30.7187 58.5511 32.0757 58.498 33.4326C58.4036 35.7925 58.616 38.1465 58.7222 40.5005C58.7281 40.648 58.7458 40.7719 58.9109 40.8486C59.2826 41.0079 60.5806 40.8073 60.8697 40.5123C62.0142 39.3383 63.0644 38.0816 64.1027 36.8191C64.498 36.3353 64.616 35.8397 64.3859 35.2262C63.9434 34.0403 63.7546 32.7601 63.088 31.6568C62.8048 31.1848 63.1883 31.0727 63.4773 30.9311C65.0939 30.1465 66.8048 29.5978 68.4803 28.9547C70.8166 28.058 73.1116 27.0314 75.5246 26.3588C77.324 25.8515 79.094 25.2497 80.9052 24.8131C82.6574 24.3942 84.1028 23.4326 85.3477 22.2408C88.7105 19.0373 92.2858 16.0697 95.6427 12.8602C96.8404 11.7157 98.1914 10.7363 99.3773 9.56819C99.5956 9.35579 99.8669 9.2024 100.221 8.94281V8.92511ZM85.9082 38.2232C85.6604 38.2763 85.6604 38.4946 85.6132 38.6775C84.504 39.3501 83.5601 40.235 82.5866 41.0846C81.2415 42.2527 80.15 43.7041 78.5925 44.6303C78.5512 44.589 78.5099 44.5418 78.4686 44.5005C79.4715 43.3383 80.7459 42.4415 81.7134 41.2439C82.0733 40.7955 82.4391 40.3353 82.8816 39.9754C84.9701 38.2881 86.7518 36.2763 88.7813 34.53C89.33 34.058 89.4598 33.527 89.2474 32.8722C87.5955 34.2055 86.1028 35.7158 84.2149 36.7129C84.7577 36.0108 85.3772 35.3913 85.979 34.7601C86.9937 33.704 88.2327 32.9075 89.3064 31.9223C90.3271 31.291 90.5336 30.2586 90.6928 29.1376C89.8374 29.6686 89.153 30.2999 88.4627 30.9193C88.2209 31.0727 87.9377 31.1848 87.7371 31.3795C86.8521 32.2114 85.92 32.9725 84.8285 33.5211C84.7872 33.4739 84.74 33.4267 84.6987 33.3795C85.2238 32.7896 85.7961 32.2468 86.4332 31.763C87.9436 30.6303 89.153 29.1553 90.6928 28.0403C91.3005 27.6037 91.7135 26.9783 91.5896 26.1052C90.8816 26.3883 90.5099 27.0255 89.9672 27.4385C88.6338 28.4591 87.3359 29.5211 86.0085 30.5536C85.6781 30.8072 85.3536 31.1671 84.8108 30.9193C84.9937 30.7777 85.1589 30.6775 85.2887 30.5477C86.8757 28.9842 88.5866 27.5506 90.3153 26.1523C91.0114 25.5919 91.4657 24.7954 92.2268 24.3175C92.6221 24.0697 92.8639 23.7276 92.8993 23.2615C92.9229 22.9016 93.271 22.4178 92.8876 22.2231C92.6752 22.1169 92.2799 22.5712 92.0262 22.8544C91.2887 23.6745 90.5631 24.5063 89.7253 25.2261C88.504 26.2703 87.2828 27.3205 86.0262 28.3235C85.4244 28.8013 84.9642 29.4621 84.1441 29.8692C84.3978 29.2497 84.7518 28.8721 85.1353 28.5181C86.4627 27.2969 87.7666 26.0462 89.0468 24.7895C90.333 23.5329 91.5719 22.2231 92.9465 21.055C93.4126 20.6597 93.8079 20.229 94.1619 19.7393C94.3684 19.4561 94.4687 19.173 94.3389 18.8367C94.8286 18.937 94.746 18.4827 95.0233 18.1818C94.7047 18.3824 94.3743 18.2998 94.2917 18.6243C93.2887 19.7216 92.1206 20.642 91.035 21.6508C90.1737 22.4473 89.212 23.1376 88.3801 23.9635C87.1294 25.1966 85.8197 26.3588 84.5099 27.5211C83.6544 28.2822 82.6692 28.8662 81.5011 28.937C79.212 29.0786 76.9995 29.6096 74.7871 30.1465C74.2562 30.2763 73.6662 30.294 73.1234 30.6892C73.7783 30.819 74.3388 30.6892 74.911 30.7954C76.1087 31.0255 77.324 31.1376 78.5335 31.3028C79.7016 31.4621 80.8816 31.3854 82.0497 31.5742C82.5807 31.6627 82.7046 31.8987 82.5571 32.3589C82.4981 32.5418 82.4332 32.7247 82.3506 32.8957C80.5689 36.5359 78.8049 40.1819 76.6515 43.6274C76.3152 44.1643 75.8491 44.4474 75.2237 44.4297C74.5984 44.4179 73.9789 44.3707 73.3535 44.3412C71.0703 44.2291 68.7812 44.3412 66.4921 44.2056C63.206 44.0227 59.9139 44.2527 56.6278 44.294C55.6838 44.3058 55.7015 44.294 55.7015 43.3737C55.6956 41.4799 55.6602 39.5861 55.6425 37.6922C55.6307 36.3471 55.5894 34.9961 55.6189 33.6509C55.6484 32.1347 55.7841 30.6244 55.8077 29.114C55.8431 26.6597 55.8667 24.1995 55.8077 21.7452C55.79 21.055 56.0791 20.8249 56.6278 20.76C58.4095 20.5417 60.1971 20.3529 61.9847 20.1464C62.5393 20.0815 63.0939 20.0107 63.7782 19.9222C63.5835 19.7629 63.554 19.7216 63.5127 19.7098C62.9877 19.5092 62.2856 19.6626 62.0024 18.9488C61.9552 18.8367 61.7605 18.642 61.5953 18.7718C61.4773 18.8603 61.4124 19.055 61.3888 19.2084C61.3534 19.4266 61.5363 19.6744 61.2708 19.8632C61.1115 19.7275 61.2354 19.5387 61.1705 19.3971C60.8579 18.7718 61.088 17.9517 60.4508 17.4266C60.1912 17.2083 60.0732 17.1552 60.0024 17.5505C59.908 18.0638 59.7723 18.5771 59.6543 19.0845C59.5068 18.2998 59.5009 17.5446 59.5068 16.7836C59.5068 16.2408 59.1292 15.8337 58.734 15.7865C58.3269 15.7334 58.4803 16.288 58.4331 16.5889C58.2974 17.462 58.3151 18.347 58.2384 19.2261C58.1263 18.3588 58.0142 17.4974 58.0555 16.642C58.1027 15.5623 57.8077 14.701 56.8283 14.0638V17.462C55.9552 15.7688 56.9227 13.7452 55.4773 12.17C54.9817 14.4001 55.1587 16.5358 54.8932 18.642C54.7988 17.698 54.728 16.76 54.7044 15.816C54.669 14.4237 54.6808 13.0372 54.6336 11.6449C54.6159 11.226 54.6159 10.7599 54.2266 10.4531C54.0968 10.3529 54.0142 10.1287 53.8313 10.1818C53.5894 10.2526 53.6838 10.5062 53.672 10.6832C53.6071 11.7452 53.554 12.813 53.495 13.8927C53.2177 13.8278 53.2944 13.639 53.2826 13.5269C53.2118 12.4473 53.1764 11.3617 53.0879 10.288C53.0289 9.57408 53.1292 8.78352 52.4389 8.24074C52.1204 8.55343 52.1203 8.93101 52.0732 9.3145C51.8431 11.3086 51.9316 13.3086 51.9257 15.3027C51.9257 15.6508 51.9965 16.0225 51.731 16.3352C51.4419 16.1759 51.5363 15.9399 51.5717 15.698C51.6189 15.4148 51.6897 15.1198 51.6484 14.8426C51.4478 13.4974 51.7841 12.1464 51.5776 10.7953C51.4242 9.75108 51.4242 8.68912 51.3357 7.63307C51.3003 7.19649 51.1351 6.78941 50.7693 6.25253C50.8873 9.39119 50.0377 12.2408 50.0613 15.1788C49.9728 12.347 49.8549 9.53869 49.4065 6.74221C48.964 9.53869 49.0407 12.3942 48.3445 15.167C48.4684 13.9576 48.2029 12.7776 48.2206 11.58C48.2324 10.7658 48.3091 9.95167 48.3268 9.1316C48.3268 8.94281 48.4566 8.63603 48.1675 8.57113C47.8784 8.50623 47.7899 8.80712 47.6837 9.01361C47.5009 9.36169 47.4537 9.73928 47.4596 10.1287C47.4655 10.5593 47.5599 11.0195 47.4478 11.4207C46.9463 13.2024 47.1646 15.0313 47.0289 16.8367C46.9935 17.2791 47.1587 17.7747 46.7575 18.3234C46.7575 17.9871 46.7398 17.7924 46.7575 17.6095C46.9522 15.6626 46.8814 13.7275 46.5392 11.7983C46.4979 11.5741 46.551 11.226 46.3091 11.1965C45.9669 11.1552 46.0849 11.5387 46.0141 11.7452C45.961 11.8986 45.9374 12.0756 45.9433 12.2408C46.0318 14.1936 45.725 16.1228 45.6601 18.0697C45.6542 18.3175 45.7014 18.583 45.318 18.9488C45.3592 16.8072 44.9876 14.8484 44.9994 12.8484C43.9197 14.7069 44.6336 16.8426 44.02 18.8249C43.7368 18.5063 43.6778 18.1995 43.7486 17.8455C43.9492 16.8957 43.9079 15.9399 43.7486 14.99C43.7191 14.819 43.8076 14.5476 43.5893 14.4886C43.3651 14.4296 43.2117 14.6715 43.0583 14.8131C42.8637 14.9841 42.8991 15.2555 42.8401 15.4856C42.5687 16.524 42.6808 17.5918 42.6572 18.6479C42.6513 18.937 42.728 19.2792 42.2914 19.4089C42.2147 18.2939 42.138 17.2201 42.0495 15.9576C41.7073 16.5004 41.4064 16.819 41.4005 17.285C41.3887 18.1995 41.3828 19.114 41.3651 20.0343C41.3651 20.2821 41.4005 20.4355 41.7014 20.4591C42.7457 20.5417 43.7899 20.6715 44.8342 20.7305C45.3298 20.76 45.5657 20.8957 45.5657 21.4444C45.5657 24.6656 45.5952 27.8928 45.5952 31.114C45.5952 33.6096 45.5598 36.0993 45.6719 38.5949C45.7486 40.2468 45.5893 41.9106 45.5362 43.5684C45.5244 44.005 45.3592 44.1879 44.8755 44.1702C42.5392 44.1053 40.2088 44.123 37.8725 44.1112C33.9079 44.0817 29.9373 44.1937 25.9727 44.2763C25.4476 44.2881 25.1408 44.0817 24.8282 43.7159C23.8901 42.6126 23.2175 41.3324 22.486 40.0993C21.2765 38.0639 20.2264 35.9341 19.0936 33.8515C18.7042 33.1317 18.1437 32.4946 17.9845 31.5978C21.4063 31.5388 24.722 30.8721 28.0789 30.5182C27.1998 30.0934 26.2087 30.1347 25.3414 29.8633C23.4063 29.2556 21.4299 29.0845 19.4417 28.8957C18.8045 28.8367 18.1379 28.9075 17.6187 28.3943C15.9667 26.7482 14.0021 25.4385 12.4446 23.6863C12.0965 23.291 11.7307 22.9134 11.3472 22.5476C10.2499 21.5152 9.12305 20.5063 8.0316 19.4561C7.62451 19.0668 7.40622 18.4473 6.67466 18.5122C6.89885 19.3323 7.29413 20.0343 7.9195 20.6302C8.91066 21.5742 9.96081 22.465 10.8635 23.5034C11.5065 24.2408 12.2263 24.9193 12.7573 25.7453C12.7101 25.7984 12.657 25.8456 12.6098 25.8987C10.9402 24.4768 9.27054 23.0609 7.48882 21.5388C7.8723 22.8485 8.44458 23.8514 9.32364 24.6597C10.7396 25.9636 12.1024 27.3205 13.4476 28.6951C13.9136 29.173 14.3561 29.6745 14.8104 30.1642C12.5036 29.0491 11.1408 26.8249 8.96376 25.5506C10.3679 28.6892 13.1054 30.7423 15.2942 33.2497C13.2175 32.1347 11.8841 30.1524 10.0316 28.76C10.2676 29.6096 10.6334 30.3766 11.1585 31.0609C12.3148 32.5477 13.713 33.8043 15.1113 35.0492C15.4712 35.3677 15.837 35.6804 16.0965 36.3058C14.7927 35.3087 13.6363 34.4238 12.48 33.5388C12.3561 33.4444 12.2204 33.2615 12.0493 33.4149C11.8723 33.5742 12.067 33.704 12.1378 33.8456C12.6039 34.8545 13.424 35.5801 14.2263 36.2822C15.7485 37.6096 17.2234 38.9902 18.6452 40.4238C19.2352 41.0197 19.8252 41.6274 20.1438 42.4297C20.1143 42.4651 20.0848 42.4946 20.0553 42.53C19.5597 42.1524 19.0464 41.7985 18.5685 41.4032C16.8753 40.0167 15.3473 38.4533 13.7425 36.9725C13.4948 36.7424 13.2116 36.5477 12.8045 36.5064C12.9048 36.8014 12.9402 37.0846 13.0877 37.2852C13.7956 38.2291 14.4741 39.1672 15.3886 39.9754C17.1054 41.4976 18.6511 43.2085 20.3267 44.7896C20.7927 45.2321 21.3591 45.6805 21.3355 46.4474C21.3001 46.4828 21.2647 46.5182 21.2352 46.5536C18.48 44.412 16.2381 41.6982 13.4889 39.5448C13.7661 40.235 13.9313 40.9607 14.4623 41.4799C15.831 42.8191 17.1998 44.1642 18.3974 45.6687C19.3178 46.825 20.5154 47.6746 21.6305 48.6186C21.5892 48.6658 21.5538 48.7071 21.5125 48.7542C20.5508 48.4239 19.8724 47.6628 19.1231 47.0492C18.3325 46.3944 17.4948 45.7926 16.7573 45.061C16.1437 44.4592 15.6659 43.6923 14.8635 43.1672C14.6393 44.3117 15.247 44.9666 15.9254 45.5861C16.893 46.4711 17.7544 47.4563 18.7396 48.5478C17.7072 48.2233 17.011 47.7159 16.3738 46.9902C16.2853 47.5448 16.2794 47.9106 16.5626 48.2764C16.7868 48.5714 17.0759 48.8427 17.1349 49.2498C17.1703 49.4976 17.3945 49.4563 17.5951 49.4563C19.2529 49.4327 20.9166 49.415 22.5745 49.3973C23.0169 49.3973 23.4004 49.533 23.7957 49.7867C23.5892 49.9873 23.365 49.946 23.1585 49.9519C21.4594 50.0227 19.7544 50.0817 18.0553 50.1643C17.8665 50.1702 17.5538 50.0286 17.5184 50.3413C17.4948 50.5537 17.542 50.8074 17.7249 51.0079C17.9609 51.2734 18.2558 51.238 18.5213 51.1967C19.3001 51.0728 20.1084 51.0197 20.8694 51.0433C22.1497 51.0846 23.4358 51.0433 24.722 51.1318C26.1379 51.2262 27.5479 51.356 28.9639 51.4681C28.9639 51.5271 28.9698 51.5861 28.9757 51.6451C28.3444 51.5389 27.7367 51.6097 27.1291 51.7336C25.6187 52.0404 24.0789 52.2292 22.5391 52.0994C21.0641 51.9755 19.6541 52.3118 18.2145 52.4829C18.0376 52.5065 17.778 52.536 17.8429 52.8133C17.9019 53.0611 17.9668 53.4268 18.2617 53.4091C19.3355 53.3501 20.4033 53.5507 21.4594 53.4917C23.8842 53.356 26.3149 53.4799 28.7397 53.3147C30.1202 53.2203 31.5185 53.3973 32.9049 53.4091C35.8784 53.4268 38.8459 53.4091 41.8194 53.4209C46.0259 53.4386 50.2324 53.4917 54.439 53.474C56.9168 53.4622 59.3888 53.3796 61.8726 53.3914C64.9818 53.415 68.085 53.4681 71.2001 53.3206C74.8874 53.1437 78.5925 53.3678 82.2916 53.1437C82.504 53.1319 82.8521 53.2852 82.9052 52.9549C82.9642 52.5714 82.5689 52.6304 82.3388 52.5596C81.153 52.2056 79.9258 52.4239 78.7164 52.2941C76.7105 52.0817 74.6986 51.9224 72.675 51.9519C72.2208 51.9578 71.7665 51.9165 71.3181 51.7631C71.4361 51.533 71.6072 51.5625 71.7783 51.5507C74.3388 51.3619 76.9052 51.5389 79.4715 51.415C80.8049 51.3501 82.15 51.415 83.4834 51.4386C83.8138 51.4386 83.9258 51.3501 83.9553 51.002C83.9907 50.5714 83.7194 50.6717 83.5011 50.6599C81.0586 50.5419 78.6338 50.1761 76.1795 50.241C75.4833 50.2587 74.7871 50.2233 74.1028 50.0522C74.1028 49.9814 74.091 49.9106 74.0851 49.8457C75.2827 49.5389 76.5099 49.4622 77.7252 49.5094C79.0704 49.5625 80.3919 49.3383 81.7488 49.4976C84.2798 49.7985 84.3683 49.6805 84.9524 47.5979C85.0055 47.415 85.0114 47.2262 85.0468 47.0374C85.0704 46.9017 85.153 46.7424 84.9996 46.648C84.8521 46.5536 84.7223 46.6716 84.6161 46.766C84.4922 46.8781 84.4037 47.0256 84.2739 47.1318C83.6545 47.6569 83.153 48.3826 82.2031 48.3944C82.2031 48.3236 82.1913 48.2528 82.2149 48.2351C83.4421 47.3796 84.3211 46.1584 85.4598 45.2085C85.8905 44.8486 85.8905 44.3825 85.743 43.7985C84.3034 45.0728 82.6987 46.005 81.33 47.3796C81.3182 46.9548 81.5305 46.7719 81.7311 46.5713C82.9583 45.3619 84.1618 44.123 85.4185 42.9489C86.2562 42.1642 86.6102 41.1082 87.1825 40.176C87.1825 40.1111 87.1943 40.0403 87.2002 39.9754C87.1707 39.9813 87.1412 39.9931 87.1117 39.999C87.1353 40.058 87.1648 40.117 87.1884 40.176C86.8462 40.0108 86.622 40.2645 86.445 40.4533C84.9701 42.0285 83.2828 43.3619 81.6308 44.7306C81.3182 44.9902 80.9583 45.2498 80.4391 45.3147C82.2739 43.0669 84.4155 41.3147 86.2621 39.2675C87.1235 38.5123 87.9377 37.7158 88.2916 36.471C87.2769 36.884 86.7754 37.7866 85.9259 38.2173L85.9082 38.2232ZM34.4329 32.7188C34.1143 32.7483 33.9197 32.7483 33.7368 32.7896C31.7073 33.2438 29.6659 33.6922 27.6423 34.1819C26.5037 34.4592 25.3178 34.5123 24.2087 34.9489C23.8134 35.1023 23.7072 35.2792 23.9255 35.6922C24.7456 37.238 25.5361 38.7955 26.3385 40.353C26.5332 40.7365 26.7987 40.8958 27.2529 40.8722C28.191 40.8309 29.135 40.8132 30.0671 40.8722C30.6866 40.9135 30.9639 40.6716 31.1822 40.1288C31.8193 38.5772 32.4093 37.002 33.1881 35.5152C33.6424 34.6421 34.0258 33.7453 34.427 32.7188H34.4329ZM72.8048 40.8899C73.5954 40.9135 74.3388 40.9312 74.7458 40.0226C75.3712 38.6185 76.0084 37.2203 76.7164 35.8633C77.0644 35.1966 76.858 35.0079 76.2267 34.8722C73.2768 34.2291 70.3328 33.5624 67.3889 32.9076C67.2532 32.8781 67.0821 32.8073 66.9995 32.9665C66.9287 33.0963 67.0172 33.232 67.0762 33.3677C67.4951 34.3412 68.0673 35.232 68.4626 36.2173C69.0172 37.6214 69.678 38.9843 70.262 40.3766C70.4154 40.7365 70.6219 40.9076 71.0054 40.9017C71.6072 40.8899 72.2031 40.9017 72.8048 40.9017V40.8899ZM40.7575 17.6272C40.4684 17.9281 39.9079 17.9399 39.9315 18.5063C39.9492 18.9842 39.961 19.462 39.9197 19.934C39.8784 20.4355 40.2501 20.288 40.492 20.3352C40.7988 20.3942 40.9639 20.3116 40.9698 19.9281C40.9757 19.1612 40.7044 18.4237 40.7634 17.6213L40.7575 17.6272ZM39.3297 18.524C38.7633 18.8721 38.5628 19.3087 38.7043 19.8927C38.7869 20.2349 39.0406 20.1641 39.2766 20.1582C39.4359 20.1523 39.6011 20.0992 39.5008 19.9104C39.2766 19.4797 39.489 19.0078 39.3297 18.524Z" fill="#D45F00"/>
<path id="Vector_2" d="M42.2853 48.1469C37.3295 48.1587 32.4269 48.3593 27.5242 48.0053C29.7012 47.4566 31.8959 47.4625 34.1142 47.5982C35.8841 47.7044 37.6717 47.6395 39.4475 47.6454C40.1673 47.6454 40.893 47.6336 41.6127 47.6454C41.8605 47.6454 42.1614 47.5805 42.2853 48.1528V48.1469Z" fill="#D45F00"/>
<path id="Vector_3" d="M58.1084 51.7338C58.7102 51.4743 59.1822 51.4448 59.6364 51.4153C62.7279 51.2383 65.8194 51.3799 68.9049 51.4153C68.9993 51.4153 69.0996 51.4153 69.194 51.4389C69.4595 51.5097 69.9374 51.4566 69.9197 51.728C69.8961 52.0878 69.4418 52.1055 69.1173 52.1114C66.2854 52.135 63.4477 52.1114 60.6158 51.9521C59.8429 51.9049 59.0583 51.9226 58.1084 51.7397V51.7338Z" fill="#D45F00"/>
<path id="Vector_4" d="M47.0878 22.707C47.5008 27.3265 47.2589 31.9401 47.2353 36.5655C46.9816 36.0758 46.9344 35.5508 46.9226 35.0257C46.9049 33.6097 47.135 32.2056 46.8931 30.7838C46.5096 28.5124 46.7869 26.2292 46.8931 23.9519C46.9108 23.533 47.017 23.12 47.0819 22.707H47.0878Z" fill="#D45F00"/>
<path id="Vector_5" d="M31.5596 51.6328C31.6717 51.2612 31.9608 51.2553 32.2439 51.2435C34.2027 51.1786 36.1673 51.0547 38.1319 51.155C38.2735 51.1609 38.4092 51.214 38.5508 51.2376C38.7926 51.2789 39.0699 51.3261 39.0404 51.6446C39.0109 51.9337 38.7985 52.1048 38.4918 52.0989C36.2735 52.0517 34.0552 52.0871 31.8546 51.739C31.7661 51.7272 31.6776 51.6741 31.5655 51.6269L31.5596 51.6328Z" fill="#D45F00"/>
<path id="Vector_6" d="M55.9197 51.7454C52.7044 52.0994 49.489 52.4593 46.2795 51.6923C47.3297 51.3324 55.194 51.3737 55.9197 51.7454Z" fill="#D45F00"/>
<path id="Vector_7" d="M48.9936 22.748C49.265 26.518 49.265 30.2879 48.9936 34.0578C48.4862 33.2909 48.5216 23.8631 48.9936 22.748Z" fill="#D45F00"/>
<path id="Vector_8" d="M61.3589 49.8459C62.0374 49.5804 62.7689 49.5745 63.471 49.5627C66.0846 49.5096 68.6982 49.5214 71.3176 49.5273C71.471 49.5273 71.7365 49.4034 71.7778 49.6571C71.825 49.9639 71.5359 49.9462 71.3353 49.9757C69.8132 50.2117 68.2793 50.0878 66.7454 50.1173C65.235 50.1468 63.7247 50.0819 62.2143 50.0701C61.9194 50.0701 61.6421 50.017 61.3707 49.9108L61.3648 49.8459H61.3589Z" fill="#D45F00"/>
<path id="Vector_9" d="M33.6423 49.9159C34.132 49.6681 34.5981 49.4321 35.1527 49.4852C37.194 49.6858 39.2294 49.3023 41.2648 49.3731C41.5775 49.3849 41.8902 49.3672 42.2029 49.4026C42.3562 49.4203 42.6158 49.3849 42.604 49.6681C42.5922 49.9572 42.3622 49.91 42.1852 49.9159C40.7692 49.969 39.3474 49.9336 37.9432 50.0929C36.486 50.2581 35.0937 49.6032 33.6482 49.91L33.6423 49.9159Z" fill="#D45F00"/>
<path id="Vector_10" d="M75.306 47.881C71.7072 48.5359 68.0906 48.0993 64.48 48.0462C68.0788 47.4857 71.6954 48.0167 75.306 47.881Z" fill="#D45F00"/>
<path id="Vector_11" d="M52.7043 33.9282C52.6394 33.5624 52.5391 33.2615 52.5391 32.9547C52.5509 29.8987 52.3031 26.8485 52.3975 23.7924C52.3975 23.6214 52.2972 23.3382 52.5981 23.35C52.8635 23.3618 52.7928 23.645 52.7928 23.816C52.8459 26.8898 52.893 29.9636 52.9402 33.0373C52.9402 33.3264 52.9108 33.6096 52.7043 33.9282Z" fill="#D45F00"/>
<path id="Vector_12" d="M54.256 23.6982C54.8518 26.9136 54.6867 30.1467 54.6513 33.3738H54.2973C54.4802 30.1467 54.0731 26.9313 54.256 23.6982Z" fill="#D45F00"/>
<path id="Vector_13" d="M31.1582 46.1879C31.0874 46.1761 30.9871 46.1997 30.9517 46.1584C30.757 45.9402 31.0638 46.011 31.0756 46.011C31.9075 45.9166 32.7394 45.7809 33.5712 45.7632C35.0344 45.7337 36.4975 45.7691 37.9547 45.7927C38.2261 45.7927 38.6509 45.8104 38.6037 46.1643C38.5506 46.5714 38.1671 46.3649 37.8721 46.3944C37.0698 46.4711 36.2674 46.3649 35.4709 46.3649C34.2674 46.3649 33.0461 46.4239 31.8426 46.2056C31.6125 46.2056 31.3824 46.1938 31.1523 46.1938L31.1582 46.1879Z" fill="#D45F00"/>
<path id="Vector_14" d="M58.427 46.0876C60.8754 45.6806 63.3238 45.6688 65.784 46.0758C63.3356 46.3826 60.8813 46.4003 58.427 46.0876Z" fill="#D45F00"/>
<path id="Vector_15" d="M50.964 23.999C51.548 26.9607 50.8755 29.8516 51.0997 32.884C50.6513 32.0581 50.5864 25.3501 50.964 23.999Z" fill="#D45F00"/>
<path id="Vector_16" d="M58.6748 49.9633C56.3975 49.8748 54.1497 50.1167 51.896 49.9397C51.8016 49.9338 51.7072 49.9043 51.6128 49.9102C51.4299 49.9161 51.247 49.8866 51.2588 49.6683C51.2706 49.4678 51.4771 49.5327 51.601 49.5268C52.25 49.5091 52.899 49.4678 53.542 49.5032C55.0052 49.5799 56.4683 49.5386 57.9314 49.515C58.2382 49.515 58.5981 49.4265 58.6689 49.9633H58.6748Z" fill="#D45F00"/>
<path id="Vector_17" d="M31.4536 49.4215C30.6159 50.0468 29.8253 50.1707 28.958 50.0527C28.0141 49.9229 27.0583 49.8108 26.1026 49.917C25.9079 49.9406 25.7073 49.917 25.7073 49.7341C25.7073 49.5276 25.9256 49.5807 26.0908 49.5689C27.3887 49.4804 28.6866 49.3566 29.9905 49.2858C30.4271 49.2622 30.8754 49.3625 31.4477 49.4215H31.4536Z" fill="#D45F00"/>
<path id="Vector_18" d="M79.1648 41.6092C80.0557 40.388 81.1589 39.3555 82.2091 38.2817C82.5335 37.9455 82.8875 37.68 83.507 37.8747C82.0616 39.1667 80.8521 40.618 79.3418 41.7567C79.2828 41.7095 79.2297 41.6564 79.1707 41.6092H79.1648Z" fill="#D45F00"/>
<path id="Vector_19" d="M55.6719 47.7578H62.846C62.846 47.8404 62.846 47.9289 62.846 48.0115C60.4507 48.277 58.0554 48.3124 55.666 47.9407C55.666 47.8817 55.666 47.8168 55.6719 47.7578Z" fill="#D45F00"/>
<path id="Vector_20" d="M74.0199 46.2176C72.0258 46.2707 70.0258 46.4831 68.0435 46.0878C70.0435 45.6866 72.0317 45.8813 74.0199 46.2176Z" fill="#D45F00"/>
<path id="Vector_21" d="M77.0347 46.5178C77.5774 46.1343 78.0612 46.0989 78.5627 46.0812C79.1586 46.0576 79.7604 46.1166 80.3503 45.9396C80.5627 45.8747 80.9108 45.8275 80.9757 46.1166C81.0406 46.4352 80.6866 46.5945 80.4565 46.6063C79.3651 46.6771 78.2618 46.8836 77.0347 46.5119V46.5178Z" fill="#D45F00"/>
<path id="Vector_22" d="M18.1672 37.5742C19.3826 38.3235 20.3383 39.3559 21.241 40.4415C19.8192 39.9164 18.9578 38.7837 18.1672 37.5742Z" fill="#D45F00"/>
<path id="Vector_23" d="M40.1909 45.6748C41.7484 45.7633 43.306 45.8577 44.8694 45.9462C43.306 46.1291 41.7425 46.4595 40.1909 45.9462C40.1909 45.8577 40.1909 45.7633 40.1909 45.6748Z" fill="#D45F00"/>
<path id="Vector_24" d="M40.9226 51.3321C41.9138 51.4383 42.7456 51.1021 43.5952 51.4029C43.7604 51.4619 43.9315 51.4442 43.902 51.6861C43.8725 51.8985 43.7309 51.9634 43.548 51.9575C42.6984 51.9339 41.8076 52.1286 40.9285 51.3321H40.9226Z" fill="#D45F00"/>
<path id="Vector_25" d="M44.3267 47.7987C45.5538 47.7633 46.7869 47.7338 48.0022 48.0111C46.7574 48.3474 45.542 48.1232 44.3267 47.7987Z" fill="#D45F00"/>
<path id="Vector_26" d="M50.8577 46.0937V41.5273C50.9049 41.5273 50.9521 41.5273 50.9934 41.5273V46.0878C50.9462 46.0878 50.899 46.0878 50.8577 46.0878V46.0937Z" fill="#D45F00"/>
<path id="Vector_27" d="M52.8047 36.3584C53.082 37.5265 52.846 38.6652 52.6455 39.8097C52.5216 38.6534 52.4213 37.497 52.8047 36.3584Z" fill="#D45F00"/>
<path id="Vector_28" d="M49.0464 40.7183C48.7042 39.68 48.8989 38.6593 49.1998 37.6387C49.4063 38.6652 49.3709 39.6918 49.0464 40.7183Z" fill="#D45F00"/>
<path id="Vector_29" d="M49.2827 42.2705C49.4715 43.4741 49.6013 44.5065 49.3004 45.5744C48.9937 45.0316 48.9583 43.1083 49.2827 42.2705Z" fill="#D45F00"/>
<path id="Vector_30" d="M29.229 46.1466C29.1405 46.182 29.0756 46.2351 29.0225 46.2292C27.7658 46.0345 26.521 46.4652 25.1995 46.3177C26.344 45.6805 27.4119 46.0286 29.2349 46.1466H29.229Z" fill="#D45F00"/>
<path id="Vector_31" d="M53.5302 16.1406C53.4771 17.1318 53.4299 18.1229 53.3709 19.2321C53.0287 18.6067 53.0641 16.825 53.5302 16.1406Z" fill="#D45F00"/>
<path id="Vector_32" d="M54.132 41.374C54.5037 42.2531 54.4506 43.1203 54.132 43.9935C53.9668 43.1203 53.8901 42.2472 54.132 41.374Z" fill="#D45F00"/>
<path id="Vector_33" d="M46.0967 49.7158C45.1999 50.1052 44.2206 50.0226 43.7014 49.4857C44.5333 49.4326 45.2648 49.4857 46.0967 49.7158Z" fill="#D45F00"/>
<path id="Vector_34" d="M47.5716 42.6123C47.5716 43.6802 47.7309 44.5651 47.3946 45.4383C47.3533 44.5592 46.8518 43.6625 47.5716 42.6123Z" fill="#D45F00"/>
<path id="Vector_35" d="M51.0761 34.0225V37.1611C50.7044 36.2467 50.6749 34.754 51.0761 34.0225Z" fill="#D45F00"/>
<path id="Vector_36" d="M21.1406 43.5918C21.8014 44.1759 22.4563 44.7658 23.1583 45.3853C22.4976 45.3145 21.6185 44.5535 21.1406 43.5918Z" fill="#D45F00"/>
<path id="Vector_37" d="M81.4951 36.8959C82.032 36.2942 82.4037 35.5036 83.2591 35.2617C82.8226 35.9697 82.1323 36.4122 81.4951 36.8959Z" fill="#D45F00"/>
<path id="Vector_38" d="M16.8931 34.6719C17.6069 35.1203 18.1556 35.7338 18.6571 36.4005C17.7957 36.1055 17.2824 35.4506 16.8931 34.6719Z" fill="#D45F00"/>
<path id="Vector_39" d="M47.4417 41.0139C47.1172 40.241 47.1703 39.4682 47.3591 38.6953C47.306 39.4682 47.6777 40.241 47.4417 41.0139Z" fill="#D45F00"/>
<path id="Vector_40" d="M52.8341 43.5685C52.4919 42.8193 52.663 42.0405 52.7279 41.2617C53.0229 42.011 52.958 42.7839 52.8341 43.5685Z" fill="#D45F00"/>
<path id="Vector_41" d="M22.4031 43.002C21.7719 42.7306 21.4474 42.1997 21.0403 41.7572C21.5359 41.5979 22.1376 42.1407 22.4031 43.002Z" fill="#D45F00"/>
<path id="Vector_42" d="M54.0674 39.8689V37.8984C54.3624 38.5297 54.1972 39.2082 54.2562 39.8631C54.1913 39.8631 54.1323 39.8631 54.0674 39.8631V39.8689Z" fill="#D45F00"/>
<path id="Vector_43" d="M14.1198 27.35C13.5888 26.8722 13.052 26.3943 12.521 25.9223C12.5918 25.8515 12.6567 25.7866 12.7275 25.7158C13.3411 26.0934 13.813 26.6244 14.2378 27.2026C14.2024 27.2498 14.1611 27.3028 14.1257 27.35H14.1198Z" fill="#D45F00"/>
<path id="Vector_44" d="M48.5747 19.6209C48.1322 18.9837 48.5039 18.323 48.5747 17.6504V19.6209Z" fill="#D45F00"/>
<path id="Vector_45" d="M19.8958 30.152C20.1848 30.1343 20.4503 30.1461 20.6981 30.093C20.9341 30.0458 21.0226 30.1284 21.0285 30.3349C21.0344 30.5119 20.9164 30.5768 20.7512 30.5827C20.4031 30.5886 20.0963 30.5414 19.9016 30.1579L19.8958 30.152Z" fill="#D45F00"/>
<path id="Vector_46" d="M49.2176 49.8753C48.8046 50.011 48.4801 49.9402 48.2146 49.7219C48.1261 49.6452 48.2382 49.5095 48.3739 49.4741C48.7397 49.3679 49.0111 49.4741 49.2176 49.8812V49.8753Z" fill="#D45F00"/>
<path id="Vector_47" d="M14.3737 27.3496C14.7867 27.5915 15.0935 27.9455 15.3354 28.388C14.9696 28.0753 14.6038 27.7685 14.238 27.4558C14.2852 27.4204 14.3265 27.385 14.3737 27.3438V27.3496Z" fill="#D45F00"/>
<path id="Vector_48" d="M25.0579 48.0938C24.7157 48.4064 24.4031 48.3887 24.0137 48.0938H25.0579Z" fill="#D45F00"/>
<path id="Vector_49" d="M79.3359 41.7569C79.2592 41.9044 79.1235 42.0932 78.9819 41.9575C78.8403 41.8218 79.0881 41.7215 79.1648 41.6094C79.2238 41.6566 79.2769 41.7097 79.3359 41.7569Z" fill="#D45F00"/>
<path id="Vector_50" d="M78.5922 44.6357C78.5155 44.7301 78.427 44.7714 78.3208 44.6888C78.3739 44.6298 78.4211 44.5649 78.4742 44.5059C78.5155 44.5472 78.5568 44.5944 78.5981 44.6357H78.5922Z" fill="#D45F00"/>
<path id="Vector_51" d="M84.8226 33.5098C84.7577 33.5865 84.6515 33.6337 84.5866 33.5629C84.504 33.4685 84.6397 33.4272 84.6928 33.3682C84.7341 33.4154 84.7813 33.4626 84.8226 33.5098Z" fill="#D45F00"/>
<path id="Vector_52" d="M21.6185 48.6064C21.6362 48.6536 21.6539 48.7008 21.6657 48.748C21.6126 48.748 21.5536 48.748 21.5005 48.7421C21.5418 48.6949 21.5772 48.6536 21.6185 48.6064Z" fill="#D45F00"/>
<path id="Vector_53" d="M21.3234 46.4414C21.3529 46.4886 21.4237 46.5653 21.4119 46.583C21.3352 46.6951 21.2821 46.5889 21.2231 46.5476C21.2585 46.5122 21.2939 46.4768 21.3234 46.4414Z" fill="#D45F00"/>
<path id="Vector_54" d="M20.1378 42.418C20.1614 42.4593 20.1909 42.5006 20.2145 42.5419C20.1614 42.536 20.1024 42.5242 20.0493 42.5183C20.0788 42.4829 20.1083 42.4475 20.1378 42.418Z" fill="#D45F00"/>
<path id="Vector_55" d="M14.2381 27.2031C14.2853 27.2503 14.3325 27.3034 14.3797 27.3506C14.3325 27.386 14.2912 27.4214 14.244 27.4627C14.2027 27.4273 14.1614 27.386 14.126 27.3506C14.1614 27.3034 14.2027 27.2503 14.2381 27.2031Z" fill="#D45F00"/>
</g>
<g id="Group 37390">
<path id="Vector_56" d="M79.9643 69.8855C79.1915 69.8973 77.7755 70.033 76.3891 69.974C72.0882 69.7911 67.7873 69.9445 63.4864 69.8855C60.7194 69.8501 57.9465 69.9209 55.1796 69.8737C51.9111 69.8147 48.6367 69.8796 45.3683 69.8737C44.147 69.8737 42.9199 70.0507 41.734 69.9858C40.0998 69.8914 38.4774 69.9327 36.8491 69.9032C35.0909 69.8678 33.3328 69.9268 31.5747 69.9209C26.9906 69.915 22.4065 69.8973 17.8283 69.8796C17.1026 69.8796 16.3888 70.0684 15.6513 69.9504C15.2324 69.8796 14.9905 69.7734 15.0023 69.2956C15.0908 66.1923 14.8253 63.089 14.9787 59.9799C15.0613 58.3456 15.0023 56.7055 14.9197 55.0713C14.843 53.6376 15.1852 53.2896 16.6189 53.3604C18.1115 53.4312 19.61 53.4607 21.0968 53.384C22.8313 53.2896 24.554 53.4076 26.2885 53.3958C28.2413 53.384 30.206 53.3014 32.1529 53.3368C35.4744 53.3958 38.796 53.4135 42.1234 53.4194C45.6397 53.4194 49.1559 53.3073 52.6663 53.3486C56.6368 53.3958 60.6073 53.4548 64.5778 53.3722C67.4156 53.3132 70.2534 53.266 73.0852 53.325C77.0322 53.4135 80.9732 53.3545 84.9142 53.3545C85.5809 53.3545 85.7461 53.6199 85.7284 54.204C85.693 55.384 85.6753 56.5639 85.6694 57.7439C85.6635 61.0123 85.6694 64.2808 85.6694 67.5551C85.6694 68.0625 85.575 68.564 85.6045 69.0655C85.6399 69.6908 85.4334 69.915 84.7903 69.8973C83.3921 69.856 81.9939 69.8855 79.9643 69.8855ZM23.8814 56.3043C23.4272 56.3043 22.967 56.3043 22.5127 56.3043C22.3534 56.2984 22.1941 56.2866 22.0702 56.4105C21.492 56.4695 20.9139 56.5285 20.3298 56.5934C19.8873 56.1981 19.5274 56.6937 19.1203 56.7055C18.9375 56.7055 18.6897 56.6819 18.7015 56.971C18.7133 57.1952 18.9257 57.3368 19.1027 57.3191C20.0584 57.2188 21.0083 57.5728 21.9581 57.3368C22.6779 57.2247 23.4272 57.502 24.1292 57.1657L24.2826 57.1539C24.3711 57.1952 24.4478 57.2601 24.5422 57.2778C25.8697 57.4725 27.2089 57.4135 28.5363 57.5197C29.1735 57.5728 29.8638 57.4666 30.5068 57.9386C30.2473 57.9386 30.0585 57.9032 29.8933 57.9386C28.5658 58.2748 27.2325 58.2099 25.8873 58.0861C25.203 58.0212 24.5127 57.8442 23.8165 58.033C22.2118 58.4754 20.495 57.8737 18.9021 58.5403C18.7546 58.6052 18.4006 58.2335 18.4242 58.735C18.436 59.0772 18.4478 59.4843 18.9611 59.4725C19.2973 59.4725 19.6336 59.4666 19.964 59.4194C21.1204 59.2542 22.2826 59.4961 23.4449 59.3604C23.9404 59.3014 24.436 59.7026 24.9788 59.6908C26.9139 59.6377 28.8372 59.9209 30.7723 59.8088C31.0968 59.7911 31.4626 59.7793 31.8284 60.033C31.2443 60.3811 30.6661 60.0979 30.1647 60.2159C28.7251 60.558 27.2738 60.3692 25.8284 60.4518C23.964 60.5639 22.0938 60.5226 20.2236 60.3752C20.0643 60.3693 19.8991 60.3516 19.7811 60.4931C18.5894 60.7645 18.5776 60.7704 18.4655 61.5728C21.9286 61.6141 25.3977 61.6259 28.8254 62.269C28.4832 62.4755 28.2295 62.7763 27.8461 62.794C26.672 62.8471 25.498 62.853 24.3298 62.8943C22.7959 62.9474 21.2561 63.0595 19.7162 62.9297C19.197 62.8884 18.8785 63.2129 18.554 63.5374C18.3475 63.7439 18.3947 63.9386 18.6425 63.9268C19.5097 63.8973 20.3711 64.1392 21.2148 64.0625C22.2708 63.9681 23.3269 64.0979 24.377 63.9917C25.7989 63.8442 27.1853 64.2808 28.6012 64.2277C29.6278 64.1864 30.6602 64.1097 31.6868 64.1215C34.2473 64.1569 36.8137 63.974 39.38 64.2277C40.6662 64.3575 41.9759 64.2572 43.2798 64.2572C43.7754 64.2572 44.265 64.2808 44.6721 64.6171C44.2945 64.9416 43.8344 64.7469 43.4155 64.8C41.9346 64.9769 40.4479 65.0595 38.9612 64.9828C36.9258 64.8826 34.8844 64.8472 32.849 64.8C31.5806 64.7705 30.3063 64.9416 29.0437 64.7174C28.7546 64.7115 28.4655 64.7056 28.1823 64.6997C27.8225 64.3988 27.3564 64.4519 27.0142 64.5699C25.6101 65.0418 24.141 64.9297 22.7074 65.1362C22.5599 65.1362 22.4124 65.1362 22.2649 65.1362C21.1499 65.1657 20.0348 65.1598 18.9257 65.3427C18.8018 65.3604 18.4832 65.1893 18.6012 65.5787C18.6661 65.7852 18.5304 66.1274 18.9257 66.092C21.0496 65.9327 23.1617 66.2808 25.2915 66.1628C27.8579 66.0212 30.4301 66.1864 33.0024 66.151C39.3388 66.0566 45.6751 66.1156 52.0114 66.1333C55.1736 66.1451 58.3359 66.328 61.4982 66.1274C61.9406 66.0979 62.3831 66.1097 62.8256 66.1274C64.1884 66.2041 65.5572 66.1746 66.92 66.2277C68.5424 66.2867 70.1767 66.0802 71.8109 66.1156C74.2416 66.1628 76.6723 66.0979 79.103 65.9563C79.3272 65.9563 79.5514 65.9681 79.7815 65.974C80.6664 66.0802 81.4924 65.738 82.3773 65.4666C81.3626 65.03 80.2829 65.1185 79.2092 65.1303C79.0322 65.1303 78.8493 65.1244 78.6723 65.1185C74.8434 64.6879 70.9849 64.9416 67.1737 64.5404C67.5041 64.3103 67.9171 64.151 68.3714 64.1864C69.7224 64.2867 71.0734 63.9504 72.4304 64.21C73.2563 64.3693 74.0351 63.8442 74.8965 63.9504C77.0617 64.2218 79.2269 63.7734 81.398 63.9504C82.0529 64.0035 82.5484 63.8147 82.4658 62.9887C81.9998 62.8235 81.5455 63.1008 81.0617 63.0536C79.6635 62.9238 78.2593 62.8825 76.8493 62.8353C75.6516 62.794 74.454 62.8176 73.2504 62.7763C72.6192 62.7527 71.9938 62.6289 71.2976 62.0684C73.4392 62.1392 75.3685 61.8265 77.2859 61.8265C79.1915 61.8265 81.0794 61.8501 83.0263 61.6967C82.8316 61.2719 82.277 61.3486 82.3773 60.9297C82.4835 60.4755 82.2299 60.6524 82.0352 60.6701C81.0558 60.7704 80.0705 60.7822 79.0853 60.7232C77.457 60.6229 75.8286 60.5108 74.2003 60.4754C69.51 60.3634 64.8197 60.7881 60.1294 60.4873C59.5985 60.4519 59.0793 60.3928 58.3949 60.1215C58.9731 60.0448 59.3035 59.8914 59.6751 59.9032C62.0291 59.9799 64.3595 59.6495 66.7135 59.6259C70.572 59.5846 74.4245 59.8088 78.2829 59.6377C79.5101 59.5846 80.7431 59.8973 81.9821 59.502C82.4304 59.3604 82.4009 59.1067 82.4363 58.8235C82.4835 58.4282 82.1355 58.5875 81.9762 58.5757C81.6222 58.5403 81.2623 58.5934 80.9024 58.5934C78.2357 58.5875 75.5749 58.4459 72.9142 58.322C71.0557 58.2335 69.1914 58.2925 67.333 58.2984C66.3005 58.2984 65.2563 58.2041 64.2356 58.3928C63.7047 58.4931 63.2504 58.3928 62.743 58.204C63.0085 57.9209 63.2504 57.7734 63.5926 57.738C65.4215 57.5492 67.2563 57.5551 69.0911 57.5787C70.1413 57.5905 71.1914 57.6495 72.2534 57.5433C73.1325 57.4548 74.0351 57.6554 74.9319 57.6082C76.5602 57.5197 78.1708 57.1893 79.811 57.3014C80.7608 57.3663 81.7048 57.2188 82.6428 57.0477C82.1119 56.9061 81.5809 56.794 81.044 56.7704C79.2623 56.6878 77.4747 56.6229 75.6929 56.5875C74.1118 56.558 72.5366 56.5639 70.9554 56.4695C68.8256 56.3456 66.6781 56.5875 64.5542 56.4341C61.9288 56.2453 59.3153 56.4695 56.7017 56.4341C54.3772 56.4046 52.0468 56.4105 49.7223 56.3633C44.147 56.2394 38.5659 56.2748 32.9906 56.2925C31.2974 56.2925 29.6042 56.4518 27.9051 56.3515C26.8903 56.2925 25.8402 56.145 24.8372 56.5285C24.554 56.2984 24.1469 56.5993 23.8814 56.3102V56.3043Z" fill="#D45F00"/>
<path id="Vector_57" d="M66.1118 62.8234C63.2327 62.7113 60.3477 62.8647 57.4746 62.7762C55.445 62.7113 53.4273 62.3691 51.3801 62.4458C53.0734 62.4222 54.7548 62.1154 56.4362 62.0977C60.1235 62.0564 63.8168 61.8322 67.5041 61.9679C68.0823 61.9915 68.6546 62.0269 69.2268 62.0682C69.4451 62.08 69.7873 61.9561 69.8109 62.2865C69.8286 62.5579 69.5159 62.5992 69.2799 62.6523C68.3124 62.8647 67.3389 62.8706 66.3537 62.8234C66.277 62.8234 66.1944 62.8234 66.1177 62.8234H66.1118Z" fill="#D45F00"/>
<path id="Vector_58" d="M46.2764 64.4161C47.5626 64.1211 48.772 64.3394 49.9697 64.4279C50.2647 64.4515 50.5361 64.4279 50.8015 64.3748C53.4033 63.8143 56.0346 64.2155 58.6541 64.1093C59.9048 64.0562 61.1556 64.1093 62.4063 64.1093C62.6718 64.1093 62.9373 64.1093 63.1969 64.1211C63.5214 64.1388 64.017 64.1093 64.017 64.4751C64.017 64.8468 63.5214 64.7996 63.1969 64.8291C59.8635 65.1182 56.5243 64.9589 53.1909 64.7937C52.7131 64.7701 52.2411 64.6816 51.7691 64.5813C51.4564 64.5164 51.1083 64.4338 50.8428 64.5636C49.6983 65.1241 48.4653 64.54 47.2971 64.8763C47.1378 64.9235 46.5537 64.8114 46.2646 64.4161H46.2764Z" fill="#D45F00"/>
<path id="Vector_59" d="M45.2917 62.3454C44.4599 62.6522 43.6575 62.7407 42.867 62.7702C41.4746 62.8233 40.0764 62.7053 38.6899 62.6935C36.4067 62.6758 34.1235 62.4929 31.8403 62.6935C31.3566 62.7348 30.92 62.6581 30.5896 62.2746C31.333 61.8144 44.1 61.838 45.2917 62.3454Z" fill="#D45F00"/>
<path id="Vector_60" d="M46.0999 60.0272C45.9996 60.2042 45.9701 60.2691 45.9288 60.3281C45.8993 60.3635 45.858 60.4225 45.8226 60.4225C42.9259 60.334 40.0291 60.452 37.1323 60.57C36.0822 60.6113 34.914 60.5994 33.8875 60.0036C37.9288 59.98 41.9642 59.7499 46.0999 60.0272Z" fill="#D45F00"/>
<path id="Vector_61" d="M47.9048 60.209C50.7072 59.8078 53.5036 59.8727 56.306 60.1323C53.5095 60.3978 50.7131 60.7105 47.9048 60.209Z" fill="#D45F00"/>
<path id="Vector_62" d="M53.6809 58.0624C55.6809 57.673 57.5865 57.6612 59.6927 57.8854C58.7016 58.5167 54.7842 58.5639 53.6809 58.0624Z" fill="#D45F00"/>
<path id="Vector_63" d="M42.1111 58.3099C42.6126 57.7317 43.1258 57.7553 43.6155 57.7494C44.6893 57.7376 45.7689 57.7494 46.8427 57.7494C47.0728 57.7494 47.2911 57.7494 47.3029 58.0503C47.3147 58.3512 47.0787 58.304 46.8958 58.2981C45.9459 58.2863 45.0079 58.3807 44.0639 58.4633C43.4857 58.5164 42.8781 58.2804 42.1111 58.3099Z" fill="#D45F00"/>
<path id="Vector_64" d="M35.4981 57.9327C35.3329 58.2454 35.0202 58.2571 34.7488 58.2689C33.8874 58.3102 33.0261 58.3102 32.1706 58.1687C32.0408 58.1451 31.8638 58.1628 31.852 57.9563C31.8402 57.8147 31.9169 57.7203 32.0526 57.7085C33.1736 57.6259 34.2886 57.6849 35.3978 57.8324C35.4332 57.8324 35.4627 57.8914 35.504 57.9268L35.4981 57.9327Z" fill="#D45F00"/>
<path id="Vector_65" d="M51.8459 58.1569C51.0966 58.4696 50.4182 58.3752 49.6748 58.1746C50.5893 57.8089 51.2441 57.7971 51.8459 58.1569Z" fill="#D45F00"/>
<path id="Vector_66" d="M49.4682 62.2803C48.6599 62.6579 47.8576 62.5222 47.0493 62.2803H49.4682Z" fill="#D45F00"/>
<path id="Vector_67" d="M39.952 57.7676C39.2735 58.3222 38.6895 58.2808 38.011 58.0095C38.6364 57.7145 39.2322 57.8148 39.952 57.7676Z" fill="#D45F00"/>
</g>
</g>
</svg>
