<svg width="220" height="51" viewBox="0 0 220 51" fill="none" xmlns="http://www.w3.org/2000/svg">
<path d="M0.00183639 41.4479L3.40203e-05 41.9845C-0.0119042 45.8454 3.11965 48.9773 6.98062 48.9844L15.4415 49C15.5958 48.9588 15.7594 48.9023 15.9137 48.8611C16.2504 48.2147 16.735 48.1864 17.2174 48.2139C17.8811 45.6156 17.1071 44.5304 15.4332 44.4063L15.2222 44.4441L15.0237 44.3494C14.6687 44.3082 14.3214 44.2529 13.9665 44.1979C12.8196 44.8579 11.6083 44.8857 10.4524 44.5831C9.60617 44.363 8.50557 43.9626 9.10478 41.8742L9.12358 41.8458C9.35985 41.5986 9.60599 41.351 9.84229 41.1038C10.4699 41.0213 11.1076 40.94 11.7352 40.8576C12.8452 40.6101 13.9658 40.1539 15.0759 40.1535C16.2864 40.1535 17.1346 39.0809 18.3268 38.3381C17.0069 36.3577 15.3496 36.9204 13.9205 36.5353C12.6737 36.2055 11.3532 36.4248 10.07 36.4248H10.0675C9.37679 36.4248 8.6672 36.4248 8.1855 35.5597C7.91259 35.0785 7.58675 34.3627 7.63184 33.8264C7.70466 32.9463 8.34131 33.1917 8.76005 33.1918H15.8698C15.2872 30.3865 14.1296 29.8098 12.8007 29.741C11.5176 29.6861 10.2242 29.8111 8.95017 29.6873C8.53146 29.6468 7.89398 30.0683 7.70288 28.7907C7.4669 27.2521 8.49371 27.4277 8.77676 26.6595C9.48652 24.7482 8.85128 27.619 9.27818 26.9753C9.42377 26.7417 9.86948 27.0144 10.0972 26.8363C11.4626 25.7359 12.6655 24.1283 14.3676 24.1969C14.7952 24.2102 15.2318 23.6454 15.0592 22.7793C14.8953 21.9412 14.3768 21.9953 13.931 21.9679C12.2835 21.858 10.7163 22.3816 9.15074 20.3325C7.73993 18.4756 7.58571 17.5793 9.12358 16.1902C9.69679 15.6676 9.92367 14.6236 9.5874 14.2106C7.84055 12.0651 8.81349 8.92812 8.17714 6.42495C7.92232 5.42078 8.3495 3.4803 6.54751 4.12648C5.75735 4.41335 6.32863 2.1485 6.83792 1.77435C8.18516 0.811422 7.78449 0.11005 6.73764 1.74196e-07C3.01756 1.74196e-07 0.00183639 3.01571 0.00183639 6.73579V41.4479Z" fill="#2E0606"/>
<path d="M26.0904 44.9989C24.6255 44.5326 20.0844 45.8255 20.3774 43.9074C20.5532 42.6781 22.1645 41.7668 26.4126 42.0529C29.8697 42.286 34.5865 41.7032 36.3737 42.9536C37.8971 44.0134 33.1803 44.9777 26.1196 44.9989H26.0904Z" fill="#2E0606"/>
<path d="M53.9749 6.51547C52.8169 7.6764 51.7808 9.12757 50.4704 9.83501C49.9675 10.1071 48.0324 10.2885 47.88 8.29315C47.7581 6.67873 48.3219 4.84664 49.6933 5.04617C51.0037 5.24571 52.7407 4.26617 53.9749 6.51547Z" fill="#2E0606"/>
<path d="M124.253 4.51547C123.095 5.6764 122.059 7.12757 120.748 7.83501C120.245 8.1071 118.31 8.2885 118.158 6.29315C118.036 4.67873 118.6 2.84664 119.971 3.04617C121.281 3.24571 123.019 2.26617 124.253 4.51547Z" fill="#2E0606"/>
<path d="M45.0006 41.811C46.2647 41.7711 47.8763 41.3122 47.9711 43.7263C48.0659 46.4596 46.0909 45.6616 45.0954 45.5818C43.5628 45.4421 40.8925 46.2002 40.8451 43.7463C40.8135 41.6514 43.3258 41.7312 44.9848 41.8309L45.0006 41.811Z" fill="#2E0606"/>
<path d="M24.2723 32.9985C25.0963 32.3768 27.6506 34.1006 27.4858 31.5432C27.387 29.9041 26.4806 28.689 24.091 29.0705C22.1464 29.3814 19.4932 28.6042 18.4879 30.2715C17.631 31.6845 20.2842 32.9703 24.2558 32.9985H24.2723Z" fill="#2E0606"/>
<path d="M201.274 40.9989C203.196 40.5326 209.157 41.8255 208.772 39.9074C208.541 38.6781 206.426 37.7668 200.851 38.0529C196.313 38.286 190.122 37.7032 187.777 38.9536C185.777 40.0134 191.968 40.9777 201.235 40.9989H201.274Z" fill="#2E0606"/>
<path d="M24.9552 21.0451C21.7048 21.0152 17.5605 20.6711 17.3168 22.4816C17.073 24.5316 22.1517 23.9331 24.7114 23.8732C28.6525 23.7685 35.519 24.3371 35.6409 22.4966C35.7221 20.9254 29.262 20.9853 24.9958 21.0601L24.9552 21.0451Z" fill="#2E0606"/>
<path d="M9.67743 9.06018C6.42703 9.02028 2.28275 8.56142 2.03897 10.9755C1.79519 13.7088 6.87397 12.9107 9.43366 12.8309C13.3748 12.6913 20.2412 13.4494 20.3631 10.9954C20.4443 8.90058 13.9842 8.98037 9.71804 9.08012L9.67743 9.06018Z" fill="#2E0606"/>
<path d="M23.599 47.0602C19.6263 47.0203 14.561 46.5614 14.2631 48.9755C13.9651 51.7088 20.1725 50.9107 23.301 50.8309C28.1179 50.6913 36.5102 51.4494 36.6592 48.9954C36.7585 46.9006 28.8628 46.9804 23.6486 47.0801L23.599 47.0602Z" fill="#2E0606"/>
<path d="M12.3953 0.060183C8.42256 0.0202808 3.35733 -0.438581 3.05937 1.9755C2.76142 4.7088 8.96882 3.91074 12.0973 3.83094C16.9142 3.69128 25.3065 4.44943 25.4555 1.99544C25.5548 -0.0994233 17.6591 -0.0196323 12.4449 0.0801232L12.3953 0.060183Z" fill="#2E0606"/>
<path d="M72.4879 45.0451C68.5152 45.0152 63.4499 44.6711 63.152 46.4816C62.854 48.5316 69.0614 47.9331 72.1899 47.8732C77.0068 47.7685 85.3991 48.3371 85.5481 46.4966C85.6474 44.9254 77.7517 44.9853 72.5375 45.0601L72.4879 45.0451Z" fill="#2E0606"/>
<path d="M202.858 44.0602C198.886 44.0203 193.82 43.5614 193.522 45.9755C193.224 48.7088 199.432 47.9107 202.56 47.8309C207.377 47.6913 215.769 48.4494 215.918 45.9954C216.018 43.9006 208.122 43.9804 202.908 44.0801L202.858 44.0602Z" fill="#2E0606"/>
<path d="M194.365 19.9985C195.189 19.3768 197.743 21.1006 197.578 18.5432C197.48 16.9041 196.573 15.689 194.184 16.0705C192.239 16.3814 189.586 15.6042 188.581 17.2715C187.724 18.6845 190.377 19.9703 194.348 19.9985H194.365Z" fill="#2E0606"/>
<path d="M199.628 30.0602C197.462 30.0203 194.699 29.5614 194.536 31.9755C194.374 34.7088 197.759 33.9107 199.466 33.8309C202.093 33.6913 206.671 34.4494 206.752 31.9954C206.806 29.9006 202.5 29.9804 199.656 30.0801L199.628 30.0602Z" fill="#2E0606"/>
<path d="M30.1349 5.04514C25.9816 5.01521 20.6862 4.67106 20.3747 6.48163C20.0632 8.5316 26.5527 7.93306 29.8234 7.87321C34.8593 7.76846 43.633 8.33707 43.7888 6.49658C43.8926 4.92543 35.638 4.98528 30.1868 5.06009L30.1349 5.04514Z" fill="#2E0606"/>
<path d="M219.983 7.55205L219.985 7.01788C220 3.15602 216.866 0.0237009 213.004 0.0178911L201.113 1.74196e-07C200.924 0.0411531 200.724 0.0976908 200.535 0.138916C200.124 0.785305 199.532 0.813626 198.942 0.786141C198.131 3.38439 199.077 4.4696 201.123 4.59374L201.381 4.55585L201.623 4.65057C202.057 4.69183 202.482 4.74711 202.915 4.80212C204.317 4.14207 205.798 4.11434 207.21 4.41694C208.245 4.637 209.59 5.03743 208.857 7.12583L208.834 7.15424C208.546 7.40142 208.245 7.64901 207.956 7.89619C207.189 7.97866 206.41 8.05998 205.643 8.14245C204.286 8.38994 202.916 8.84608 201.559 8.84652C200.08 8.84652 199.043 9.91909 197.586 10.6619C199.199 12.6423 201.225 12.0796 202.971 12.4647C204.495 12.7945 206.109 12.5752 207.678 12.5752H207.681C208.525 12.5752 209.392 12.5752 209.981 13.4403C210.315 13.9215 210.713 14.6373 210.658 15.1736C210.569 16.0537 209.791 15.8083 209.279 15.8082H200.589C201.301 18.6135 202.716 19.1902 204.34 19.259C205.908 19.3139 207.489 19.1889 209.046 19.3127C209.558 19.3532 210.337 18.9317 210.571 20.2093C210.859 21.7479 209.604 21.5723 209.258 22.3405C208.391 24.2518 209.167 21.381 208.645 22.0247C208.468 22.2583 207.923 21.9856 207.644 22.1637C205.976 23.2641 204.505 24.8717 202.425 24.8031C201.902 24.7898 201.369 25.3546 201.58 26.2207C201.78 27.0588 202.414 27.0047 202.959 27.0321C204.972 27.142 206.888 26.6184 208.801 28.6675C210.526 30.5244 210.714 31.4207 208.834 32.8098C208.134 33.3324 207.857 34.3764 208.268 34.7894C210.403 36.9349 209.213 40.0719 209.991 42.5751C210.303 43.5792 209.781 45.5197 211.983 44.8735C212.949 44.5867 212.25 46.8515 211.628 47.2256C209.981 48.1886 210.471 48.8899 211.751 49H212.983C216.849 49 219.983 45.866 219.983 42V7.55205Z" fill="#2E0606"/>
<path d="M188.033 9.00111C189.956 9.46738 195.916 8.17455 195.531 10.0926C195.301 11.3219 193.186 12.2332 187.61 11.9471C183.073 11.714 176.882 12.2968 174.536 11.0464C172.537 9.98665 178.727 9.0223 187.995 9.00111H188.033Z" fill="#2E0606"/>
<path d="M104.514 3.00111C106.437 3.46738 112.397 2.17455 112.013 4.09262C111.782 5.32189 109.667 6.23324 104.091 5.94712C99.5541 5.71398 93.3632 6.29682 91.0176 5.04636C89.0181 3.98665 95.2089 3.0223 104.476 3.00111H104.514Z" fill="#2E0606"/>
<path d="M180.271 46.4845C181.429 45.3236 182.465 43.8724 183.776 43.165C184.279 42.8929 186.214 42.7115 186.366 44.7068C186.488 46.3213 185.924 48.1534 184.553 47.9538C183.243 47.7543 181.505 48.7338 180.271 46.4845Z" fill="#2E0606"/>
<path d="M88.6046 46.4845C89.7626 45.3236 90.7988 43.8724 92.1092 43.165C92.612 42.8929 94.5471 42.7115 94.6995 44.7068C94.8214 46.3213 94.2576 48.1534 92.8863 47.9538C91.5759 47.7543 89.8388 48.7338 88.6046 46.4845Z" fill="#2E0606"/>
<path d="M48.8824 49.4845C50.0404 48.3236 51.0765 46.8724 52.3869 46.165C52.8898 45.8929 54.8249 45.7115 54.9773 47.7068C55.0992 49.3213 54.5354 51.1534 53.1641 50.9538C51.8536 50.7543 50.1166 51.7338 48.8824 49.4845Z" fill="#2E0606"/>
<path d="M79.3562 8.95486C78.0921 8.98479 76.4805 9.32894 76.3857 7.51837C76.2908 5.4684 78.2659 6.06694 79.2614 6.12679C80.794 6.23154 83.4643 5.66293 83.5117 7.50342C83.5433 9.07457 81.031 9.01472 79.3719 8.93991L79.3562 8.95486Z" fill="#2E0606"/>
<path d="M164.912 11.9549C163.648 11.9848 162.036 12.3289 161.941 10.5184C161.846 8.4684 163.821 9.06694 164.817 9.12679C166.35 9.23154 169.02 8.66293 169.067 10.5034C169.099 12.0746 166.587 12.0147 164.928 11.9399L164.912 11.9549Z" fill="#2E0606"/>
<path d="M139.449 46.9398C138.185 46.9797 136.573 47.4386 136.478 45.0245C136.383 42.2912 138.359 43.0893 139.354 43.1691C140.887 43.3087 143.557 42.5506 143.604 45.0046C143.636 47.0994 141.124 47.0196 139.465 46.9199L139.449 46.9398Z" fill="#2E0606"/>
<path d="M139.807 2.00111C138.433 2.46738 134.176 1.17455 134.451 3.09262C134.615 4.32189 136.126 5.23324 140.109 4.94712C143.35 4.71398 147.772 5.29682 149.447 4.04636C150.875 2.98665 146.453 2.0223 139.834 2.00111H139.807Z" fill="#2E0606"/>
<path d="M22.1249 14.0011C23.4982 14.4674 27.7554 13.1745 27.4808 15.0926C27.316 16.3219 25.8053 17.2332 21.8227 16.9471C18.5817 16.714 14.1597 17.2968 12.4843 16.0464C11.056 14.9866 15.4781 14.0223 22.0974 14.0011H22.1249Z" fill="#2E0606"/>
<path d="M165.212 46.0015C167.501 46.6232 174.597 44.8994 174.139 47.4568C173.864 49.0959 171.347 50.311 164.709 49.9295C159.307 49.6186 151.937 50.3958 149.145 48.7285C146.764 47.3155 154.134 46.0297 165.167 46.0015H165.212Z" fill="#2E0606"/>
<path d="M204.935 25.0015C207.224 25.6232 214.319 23.8994 213.861 26.4568C213.587 28.0959 211.069 29.311 204.431 28.9295C199.029 28.6186 191.659 29.3958 188.867 27.7285C186.487 26.3155 193.857 25.0297 204.889 25.0015H204.935Z" fill="#2E0606"/>
<path d="M23.1434 36.0015C24.5167 36.6232 28.7739 34.8994 28.4993 37.4568C28.3345 39.0959 26.8238 40.311 22.8412 39.9295C19.6002 39.6186 15.1782 40.3958 13.5028 38.7285C12.0745 37.3155 16.4966 36.0297 23.1159 36.0015H23.1434Z" fill="#2E0606"/>
<path d="M198.329 0.00147734C199.702 0.623174 203.959 -1.1006 203.684 1.45683C203.52 3.09585 202.009 4.31099 198.026 3.92949C194.785 3.61864 190.363 4.39575 188.688 2.72848C187.26 1.31553 191.682 0.0297363 198.301 0.00147734H198.329Z" fill="#2E0606"/>
<path d="M116.366 46.9398C113.657 46.9797 110.204 47.4386 110.001 45.0245C109.797 42.2912 114.03 43.0893 116.163 43.1691C119.447 43.3087 125.169 42.5506 125.271 45.0046C125.338 47.0994 119.955 47.0196 116.4 46.9199L116.366 46.9398Z" fill="#2E0606"/>
<path d="M65.8702 3.93982C60.814 3.97972 54.3673 4.43858 53.9881 2.0245C53.6089 -0.708803 61.5092 0.0892554 65.491 0.16906C71.6216 0.308718 82.3027 -0.449428 82.4923 2.00456C82.6187 4.09942 72.5696 4.01963 65.9333 3.91988L65.8702 3.93982Z" fill="#2E0606"/>
<path d="M165.685 4.95486C160.629 4.98479 154.182 5.32894 153.803 3.51837C153.424 1.4684 161.324 2.06694 165.306 2.1268C171.436 2.23154 182.117 1.66293 182.307 3.50342C182.434 5.07457 172.384 5.01472 165.748 4.93991L165.685 4.95486Z" fill="#2E0606"/>
</svg>
