<svg width="218" height="259" viewBox="0 0 218 259" fill="none" xmlns="http://www.w3.org/2000/svg">
<path fill-rule="evenodd" clip-rule="evenodd" d="M201.013 0C201.725 1.33197e-05 202.43 0.0329782 203.126 0.09375C202.284 0.164112 201.493 0.216909 201.024 0.00195312H200.996C194.071 0.0318712 189.444 1.39278 190.938 2.88867C192.691 4.65385 197.317 3.8321 200.708 4.16113C201.163 4.20528 201.588 4.22704 201.983 4.23242C202.475 4.62063 203.201 4.82417 204.117 4.875L204.416 4.83496L204.697 4.93555C205.2 4.97934 205.693 5.03732 206.197 5.0957C208.071 5.31307 207.722 5.41327 209.361 5.73438C210.545 5.96487 210.563 6.71679 210.563 6.73633V7.73535C210.228 7.99766 210.898 7.8383 210.563 8.10059C209.673 8.1881 210.251 8.55311 209.361 8.64062C207.787 8.90325 206.198 9.38715 204.624 9.3877C202.907 9.3877 201.704 10.5262 200.013 11.3145C201.885 13.4158 204.235 12.819 206.261 13.2275C208.029 13.5775 209.902 13.3447 211.722 13.3447H211.726C212.706 13.3447 213.712 13.345 214.395 14.2627C214.782 14.7734 215.244 15.5334 215.18 16.1025C215.077 17.0363 214.174 16.7766 213.581 16.7764H203.498C204.324 19.7531 205.966 20.3655 207.85 20.4385C209.67 20.4967 211.504 20.3639 213.31 20.4951C213.904 20.5381 214.809 20.0908 215.08 21.4463C215.414 23.079 213.958 22.8929 213.556 23.708C212.55 25.7363 213.451 22.6901 212.845 23.373C212.639 23.6209 212.007 23.3318 211.684 23.5205C209.748 24.6883 208.041 26.3941 205.627 26.3213C205.424 26.3166 205.22 26.3824 205.046 26.5049C195.115 26.7305 188.846 27.986 191.126 29.3555C194.047 31.1206 201.757 30.2988 207.409 30.6279C209.784 30.7661 211.655 30.7048 213.1 30.4971C215.031 32.4177 215.218 33.3629 213.065 34.8184C212.252 35.3729 211.93 36.4806 212.407 36.9189C214.884 39.1958 213.504 42.5252 214.407 45.1816C214.562 45.6394 214.539 46.2805 214.665 46.8086C211.938 46.5698 208.53 46.6174 205.816 46.6699L205.763 46.6484C201.607 46.6062 196.308 46.1209 195.997 48.6768C195.685 51.5704 202.179 50.7251 205.452 50.6406C208.416 50.5536 212.675 50.7944 215.711 50.4795C215.398 50.7034 215.214 50.9102 215.135 51.0938C214.415 51.223 213.85 51.6947 213.793 53.1426C213.793 53.1452 213.793 53.1478 213.792 53.1504C213.425 53.1287 213.101 53.088 212.837 53.0156H212.79C201.248 53.0455 193.537 54.4064 196.027 55.9023C198.116 57.1649 202.656 57.1038 207.14 57.0869C207.062 57.1081 206.985 57.1295 206.909 57.1475C206.505 57.8333 205.923 57.8631 205.344 57.834C204.548 60.5912 205.476 61.7432 207.485 61.875L207.739 61.835L207.976 61.9355C208.402 61.9793 208.819 62.0373 209.245 62.0957C209.448 61.9924 209.653 61.9052 209.859 61.8301C210.723 61.7995 211.563 61.7421 212.222 61.7256C212.638 61.7138 213.089 61.7118 213.562 61.7129C214.561 61.9525 215.775 62.4186 215.08 64.5625L215.056 64.5918C214.773 64.8541 214.477 65.1176 214.194 65.3799C213.441 65.4674 212.675 65.5531 211.922 65.6406C210.59 65.9033 209.246 66.3872 207.914 66.3877C206.461 66.3878 205.444 67.5262 204.013 68.3145C205.597 70.416 207.585 69.8189 209.3 70.2275C210.796 70.5775 212.381 70.3448 213.92 70.3447H213.923C214.752 70.3447 215.604 70.345 216.182 71.2627C216.51 71.7733 216.901 72.5335 216.847 73.1025C216.76 74.0366 215.995 73.7765 215.493 73.7764H206.961C207.661 76.7531 209.049 77.3655 210.644 77.4385C212.184 77.4967 213.736 77.3638 215.265 77.4951C215.768 77.5378 216.532 77.0913 216.761 78.4463C217.044 80.0789 215.813 79.8932 215.473 80.708C214.621 82.7364 215.383 79.6899 214.871 80.373C214.696 80.6207 214.161 80.3316 213.888 80.5205C212.25 81.6882 210.806 83.3938 208.764 83.3213C208.251 83.3072 207.727 83.9071 207.934 84.8262C208.131 85.7154 208.753 85.6584 209.288 85.6875C211.265 85.8042 213.145 85.2483 215.024 87.4229C216.717 89.3934 216.902 90.3442 215.056 91.8184C214.368 92.373 214.097 93.4807 214.501 93.9189C215.08 94.5486 215.409 95.2595 215.599 96.0137L205.79 96C205.588 96.0437 205.373 96.1037 205.171 96.1475C204.731 96.8332 204.097 96.8631 203.465 96.834C202.597 99.5911 203.609 100.743 205.8 100.875L206.077 100.835L206.336 100.936C206.801 100.979 207.257 101.037 207.721 101.096C209.222 100.396 210.808 100.366 212.321 100.688C213.429 100.921 214.87 101.346 214.085 103.562L214.061 103.592C213.752 103.854 213.429 104.118 213.12 104.38C212.298 104.467 211.464 104.553 210.642 104.641C209.189 104.903 207.721 105.387 206.268 105.388C204.684 105.388 203.574 106.526 202.013 107.314C203.741 109.416 205.91 108.819 207.781 109.228C209.413 109.578 211.142 109.345 212.822 109.345H212.825C213.729 109.345 214.658 109.345 215.289 110.263C215.646 110.773 216.072 111.533 216.013 112.103C215.918 113.036 215.085 112.777 214.537 112.776H205.229C205.992 115.753 207.507 116.365 209.247 116.438C210.926 116.497 212.62 116.364 214.288 116.495C214.836 116.538 215.67 116.091 215.92 117.446C216.229 119.079 214.885 118.893 214.514 119.708C213.585 121.736 214.417 118.69 213.858 119.373C213.667 119.621 213.084 119.332 212.786 119.521C210.998 120.688 209.424 122.394 207.196 122.321C206.636 122.307 206.065 122.907 206.291 123.826C206.505 124.715 207.184 124.658 207.767 124.688C209.924 124.804 211.975 124.248 214.025 126.423C215.872 128.393 216.074 129.344 214.061 130.818C213.311 131.373 213.014 132.481 213.454 132.919C213.648 133.112 213.815 133.315 213.961 133.522C212.543 133.505 211.023 133.567 209.63 133.581L209.579 133.603C204.124 133.497 195.863 133.412 195.966 135.63C196.122 138.228 204.902 137.425 209.942 137.573C210.108 137.578 210.282 137.585 210.463 137.593C210.21 137.709 210.07 137.909 210.118 138.244C210.237 139.143 211.329 139.81 214.208 139.601C214.466 139.582 214.735 139.571 215.011 139.564C215.056 140.121 215.137 140.664 215.299 141.182C215.405 141.521 215.425 141.96 215.473 142.38C215.455 142.601 215.444 142.824 215.436 143.048C214.449 143.053 213.425 143.098 212.474 143.109L212.431 143.131C207.968 143.025 201.21 142.941 201.294 145.158C201.422 147.756 208.606 146.954 212.729 147.102C213.386 147.122 214.201 147.188 215.054 147.233C214.847 147.896 214.516 148.521 213.977 149.081C213.555 149.519 213.839 150.627 214.558 151.182C216.487 152.656 216.295 153.607 214.525 155.577C212.561 157.752 210.594 157.196 208.528 157.312C207.969 157.342 207.317 157.284 207.112 158.174C206.895 159.093 207.444 159.693 207.98 159.679C210.115 159.606 211.625 161.312 213.337 162.479C213.623 162.668 214.182 162.379 214.365 162.627C214.9 163.31 214.103 160.264 214.994 162.292C215.349 163.107 216.637 162.921 216.341 164.554C216.102 165.909 215.301 165.462 214.776 165.505C213.178 165.636 211.555 165.503 209.946 165.562C208.279 165.635 206.826 166.247 206.095 169.224H215.015C215.54 169.223 216.339 168.964 216.43 169.897C216.487 170.467 216.078 171.227 215.736 171.737C215.132 172.655 214.241 172.655 213.375 172.655H213.372C211.762 172.655 210.105 172.422 208.541 172.772C208.251 172.838 207.955 172.876 207.654 172.905C206.008 172.168 202.639 171.652 198.414 171.634H198.385C196.948 172.292 192.494 170.467 192.782 173.175C192.954 174.91 194.535 176.197 198.702 175.793C200.528 175.616 202.713 175.769 204.615 175.676C205.405 176.186 206.163 176.612 207.091 176.612C208.484 176.613 209.89 177.097 211.283 177.359C212.07 177.447 212.87 177.533 213.657 177.62C213.953 177.882 214.262 178.146 214.558 178.408L214.583 178.438C215.334 180.654 213.953 181.079 212.891 181.312C211.441 181.634 209.922 181.605 208.483 180.904C208.038 180.963 207.602 181.021 207.157 181.064L206.908 181.165L206.643 181.125C204.543 181.257 203.572 182.409 204.405 185.166C205.01 185.137 205.618 185.167 206.041 185.853C206.234 185.896 206.439 185.956 206.632 186L213.77 185.988C213.731 186.185 213.706 186.408 213.696 186.66C213.66 187.697 213.904 188.252 214.278 188.536C212.952 188.512 211.589 188.533 210.41 188.555L210.373 188.54C207.395 188.511 203.597 188.173 203.374 189.95C203.278 190.813 204.079 191.197 205.21 191.351C204.672 193.737 205.607 194.752 207.485 194.875L207.739 194.835L207.976 194.936C208.402 194.979 208.819 195.037 209.245 195.096C210.621 194.395 212.075 194.366 213.462 194.688C214.478 194.921 215.799 195.346 215.08 197.562L215.056 197.592C214.773 197.854 214.477 198.118 214.194 198.38C213.441 198.467 212.675 198.553 211.922 198.641C210.59 198.903 209.246 199.387 207.914 199.388C206.461 199.388 205.444 200.526 204.013 201.314C205.597 203.416 207.585 202.819 209.3 203.228C210.796 203.577 212.381 203.345 213.92 203.345H213.923C214.752 203.345 215.604 203.345 216.182 204.263C216.51 204.773 216.901 205.533 216.847 206.103C216.76 207.037 215.995 206.776 215.493 206.776H206.961C206.98 206.854 207.001 206.929 207.02 207.003L204.79 207C204.588 207.044 204.373 207.104 204.171 207.147C203.731 207.833 203.097 207.863 202.465 207.834C201.597 210.591 202.609 211.743 204.8 211.875L205.077 211.835L205.336 211.936C205.801 211.979 206.257 212.037 206.721 212.096C208.222 211.396 209.808 211.366 211.321 211.688C212.33 211.9 213.614 212.271 213.243 214.01C212.62 214.504 212.009 215.032 211.367 215.459C210.791 215.52 210.214 215.58 209.642 215.641C208.189 215.903 206.721 216.387 205.268 216.388C203.684 216.388 202.574 217.526 201.013 218.314C202.741 220.416 204.91 219.819 206.781 220.228C208.413 220.578 210.142 220.345 211.822 220.345H211.825C212.729 220.345 213.658 220.345 214.289 221.263C214.646 221.773 215.072 222.533 215.013 223.103C214.918 224.036 214.085 223.777 213.537 223.776H204.229C204.992 226.753 206.507 227.365 208.247 227.438C209.926 227.497 211.62 227.364 213.288 227.495C213.836 227.538 214.67 227.091 214.92 228.446C215.229 230.079 213.885 229.893 213.514 230.708C212.585 232.736 213.417 229.69 212.858 230.373C212.667 230.621 212.084 230.332 211.786 230.521C209.998 231.688 208.424 233.394 206.196 233.321C205.636 233.307 205.065 233.907 205.291 234.826C205.505 235.715 206.184 235.658 206.767 235.688C208.924 235.804 210.975 235.248 213.025 237.423C214.872 239.393 215.074 240.344 213.061 241.818C212.311 242.373 212.014 243.481 212.454 243.919C212.918 244.381 213.156 244.901 213.252 245.456C212.337 245.502 211.454 245.576 210.752 245.598C206.629 245.745 199.445 244.943 199.318 247.541C199.234 249.759 205.993 249.674 210.456 249.568L210.498 249.59C211.169 249.598 211.877 249.621 212.583 249.637C212.334 250.642 212.179 251.625 212.454 252.5C212.457 252.511 212.461 252.521 212.464 252.532C212.317 252.522 212.173 252.511 212.033 252.501C209.206 252.295 208.294 253.511 208.149 254.406C202.699 254.487 194.15 253.756 193.991 256.687C193.929 258.152 196.66 258.765 200.098 259H173.393C174.679 258.513 175.296 257.818 175.426 257.029C175.905 254.322 168.482 256.146 166.087 255.488H166.04C154.498 255.518 146.787 256.879 149.277 258.375C149.71 258.636 150.248 258.84 150.869 259H17.0132C14.8228 259 12.7012 258.704 10.6851 258.154C15.6911 258.174 21.2353 257.906 21.1509 256.087C21.0273 254.027 15.4826 254.102 10.6792 254.149C11.465 253.741 12.1058 253.199 12.0054 252.489C11.908 251.762 7.31648 250.774 4.04054 250.533C4.01976 249.919 3.85418 249.278 3.64405 248.63C3.9827 248.621 4.31719 248.612 4.64308 248.608L4.68507 248.587C9.1481 248.693 15.907 248.777 15.8228 246.56C15.6952 243.961 8.51145 244.764 4.38819 244.616C3.89177 244.601 3.30451 244.56 2.67921 244.521C2.74223 244.017 2.93672 243.543 3.3296 243.11C3.72832 242.672 3.45946 241.563 2.7798 241.008C0.956392 239.533 1.13925 238.581 2.81202 236.609C4.66828 234.433 6.52661 234.99 8.47999 234.873C9.00856 234.844 9.62362 234.901 9.81788 234.011C10.0224 233.091 9.50454 232.492 8.99757 232.506C6.97944 232.579 5.55297 230.872 3.93409 229.703C3.66423 229.514 3.13626 229.803 2.96339 229.556C2.45721 228.872 3.2102 231.92 2.36866 229.891C2.03307 229.075 0.815635 229.261 1.09523 227.628C1.32175 226.272 2.07728 226.718 2.57374 226.676C4.08437 226.544 5.61873 226.676 7.14015 226.618C8.71562 226.545 10.088 225.933 10.7788 222.954H2.34913C1.85265 222.954 1.09765 223.215 1.01124 222.28C0.957784 221.711 1.3439 220.95 1.66749 220.439C2.23863 219.521 3.07996 219.521 3.89894 219.521H3.90187C5.42332 219.521 6.98896 219.753 8.4673 219.403C9.10488 219.249 9.781 219.238 10.4595 219.172C12.2918 219.712 15.2037 220.068 18.7026 220.083H18.7319C20.1691 219.425 24.6218 221.249 24.3345 218.542C24.162 216.807 22.5818 215.52 18.4155 215.924C16.283 216.131 13.6615 215.882 11.5737 216.108C11.0308 215.788 10.4768 215.562 9.83741 215.562C8.52126 215.561 7.19262 215.076 5.87648 214.813C5.13249 214.726 4.37631 214.64 3.63233 214.553C3.35219 214.29 3.05992 214.027 2.7798 213.765L2.75733 213.734C2.0469 211.517 3.35169 211.091 4.35499 210.857C5.72555 210.536 7.16219 210.566 8.52198 211.267C8.94283 211.208 9.35505 211.149 9.77589 211.105L10.0112 211.005L10.2612 211.046C12.2459 210.914 13.1634 209.761 12.3765 207.002C11.8046 207.031 11.2298 207.002 10.8306 206.315C10.6476 206.272 10.4539 206.211 10.271 206.167L0.875499 206.183C0.87066 206.005 0.864909 205.828 0.861827 205.652L0.812022 205.582C0.887672 203.323 0.958415 200.712 0.874522 198.174C2.29515 198.203 4.14896 197.9 5.00343 198.175H5.03468C12.4215 198.152 17.3561 197.132 15.7622 196.01C13.8925 194.686 8.95808 195.302 5.34132 195.056C3.22696 194.912 1.73685 195.055 0.73585 195.385C1.05241 192.909 0.420126 190.048 2.0503 188.021C2.40168 187.584 2.16449 186.479 1.56495 185.926C-0.0439752 184.455 0.117271 183.506 1.59327 181.54C3.23107 179.371 4.87077 179.925 6.59425 179.809C7.06058 179.78 7.60343 179.837 7.77491 178.95C7.95553 178.033 7.49861 177.435 7.05128 177.449C5.27052 177.522 4.01197 175.819 2.58351 174.654C2.34533 174.466 1.8785 174.755 1.72608 174.508C1.27946 173.826 1.94418 176.865 1.20167 174.842C0.905543 174.028 -0.168258 174.214 0.0786237 172.585C0.278615 171.233 0.945298 171.679 1.38331 171.636C2.71617 171.505 4.06925 171.637 5.41163 171.579C6.80188 171.506 8.01296 170.896 8.62257 167.926H1.18409C0.746042 167.926 0.0806832 168.185 0.00440499 167.254C-0.0427552 166.686 0.298017 165.928 0.583507 165.419C1.08745 164.503 1.82961 164.503 2.55226 164.503H2.55519C3.89761 164.503 5.27913 164.735 6.58351 164.386C8.07859 163.978 9.81204 164.573 11.1929 162.477C9.94593 161.69 9.05861 160.555 7.79249 160.555C6.63126 160.554 5.4586 160.072 4.29737 159.81C3.64087 159.722 2.9734 159.636 2.31691 159.549C2.0698 159.287 1.81204 159.025 1.56495 158.764L1.54542 158.733C0.918605 156.523 2.06935 156.098 2.9546 155.865C4.16387 155.545 5.43159 155.574 6.63136 156.272C7.00269 156.214 7.36648 156.156 7.7378 156.112L7.94483 156.012L8.16554 156.053C9.90761 155.922 10.7175 154.784 10.0425 152.064C11.1137 151.901 11.8587 151.514 11.7661 150.68C11.5421 148.903 7.74585 149.24 4.76808 149.27L4.73097 149.284C4.0907 149.272 3.39608 149.263 2.68312 149.259C2.90937 148.874 3.03748 148.304 3.00831 147.47C2.98568 146.899 2.89415 146.457 2.7505 146.115L8.69776 146.127C8.85917 146.083 9.03046 146.023 9.19191 145.979C9.54413 145.296 10.0507 145.266 10.5552 145.295C11.2495 142.544 10.4402 141.394 8.68898 141.263L8.46827 141.304L8.26026 141.203C7.88914 141.159 7.52592 141.101 7.1548 141.043C5.95498 141.742 4.68737 141.771 3.47804 141.45C2.59274 141.217 1.44098 140.793 2.06788 138.582L2.08741 138.552C2.33455 138.29 2.59221 138.028 2.83937 137.767C3.4959 137.679 4.16328 137.593 4.81983 137.506C5.98113 137.244 7.15365 136.761 8.31495 136.761C8.80045 136.761 9.22932 136.592 9.64503 136.342C11.7249 136.559 14.3225 136.317 16.439 136.522C20.6055 136.926 22.1864 135.64 22.3589 133.904C22.6462 131.197 18.1922 133.021 16.7554 132.363H16.7271C13.4733 132.377 10.7267 132.685 8.88429 133.163C8.27879 133.095 7.67491 133.085 7.10597 132.93C5.80161 132.581 4.42003 132.812 3.07765 132.812H3.07569C2.35302 132.812 1.60994 132.812 1.10597 131.896C0.820502 131.387 0.479712 130.629 0.526866 130.062C0.603147 129.13 1.26948 129.39 1.70753 129.39H9.14601C8.53645 126.42 7.32519 125.809 5.93507 125.736C4.5928 125.678 3.2395 125.811 1.90675 125.68C1.46873 125.637 0.801063 126.083 0.601085 124.73C0.354203 123.101 1.42898 123.287 1.72511 122.474C2.46752 120.45 1.80291 123.489 2.24952 122.808C2.40202 122.561 2.86778 122.849 3.10597 122.661C4.53435 121.496 5.79316 119.794 7.57374 119.866C8.02111 119.88 8.478 119.282 8.29737 118.365C8.12592 117.479 7.5839 117.536 7.11769 117.507C5.39412 117.39 3.7536 117.945 2.11573 115.775C0.639814 113.81 0.47877 112.86 2.08741 111.39C2.68706 110.836 2.92442 109.731 2.57276 109.294C2.21725 108.852 1.9699 108.37 1.7964 107.861C2.01307 107.849 2.21914 107.838 2.41163 107.832C6.53486 107.684 13.7187 108.487 13.8462 105.889C13.9305 103.671 7.17253 103.756 2.70948 103.861L2.66651 103.84C2.24414 103.835 1.80734 103.823 1.36573 103.811C1.36501 103.768 1.3646 103.725 1.36378 103.682C1.46501 103.147 1.44446 102.485 1.56202 102.017C1.69457 101.489 1.75964 100.935 1.79444 100.367C4.03391 100.394 4.91654 99.7779 5.02296 98.9746C5.07034 98.6393 4.92997 98.4398 4.67628 98.3232C4.85789 98.3156 5.03245 98.308 5.19874 98.3037C10.2382 98.1558 19.0185 98.9585 19.1743 96.3604C19.2773 94.1429 11.0178 94.2274 5.563 94.333L5.51026 94.3115C4.60614 94.3023 3.64791 94.2741 2.69874 94.2588C2.79927 94.0926 2.91145 93.9302 3.03761 93.7734C3.38926 93.3361 3.1519 92.231 2.55226 91.6777C0.943613 90.2072 1.10466 89.2578 2.58058 87.292C4.21845 85.1225 5.85897 85.6769 7.58253 85.5605C8.04875 85.5316 8.59076 85.5888 8.76222 84.7021C8.94285 83.7852 8.48596 83.1871 8.03858 83.2012C6.258 83.2735 4.99919 81.5713 3.57081 80.4062C3.33263 80.2182 2.86687 80.5063 2.71437 80.2598C2.26775 79.5783 2.93236 82.6169 2.18995 80.5938C1.89382 79.7804 0.819047 79.9659 1.06593 78.3369C1.26591 76.9845 1.93357 77.4305 2.37159 77.3877C3.70434 77.2568 5.05765 77.3892 6.39991 77.3311C7.79004 77.2582 9.00129 76.6475 9.61085 73.6777H2.17237C1.73432 73.6779 1.06799 73.9374 0.99171 73.0059C0.944556 72.4383 1.28535 71.6804 1.57081 71.1709C2.07478 70.255 2.81786 70.2549 3.54054 70.2549H3.54249C4.88487 70.2549 6.26646 70.4867 7.57081 70.1377C9.06592 69.73 10.8003 70.3253 12.1812 68.2285C10.9339 67.4421 10.0462 66.3066 8.7798 66.3066C7.61849 66.3061 6.44597 65.8235 5.28468 65.5615C4.62813 65.4742 3.96074 65.3881 3.30421 65.3008C3.05705 65.0391 2.79939 64.7773 2.55226 64.5156L2.53273 64.4854C1.90583 62.2743 3.05759 61.8502 3.94288 61.6172C5.15221 61.2968 6.41982 61.3256 7.61964 62.0244C7.99077 61.9662 8.35398 61.9079 8.72511 61.8643L8.93312 61.7637L9.15382 61.8047C10.8959 61.6739 11.7048 60.5362 11.0298 57.8164C12.1015 57.6529 12.847 57.266 12.7544 56.4316C12.5304 54.6548 8.73413 54.9921 5.75636 55.0215L5.71925 55.0361C5.23655 55.0271 4.7228 55.0183 4.19386 55.0127C4.48044 52.9552 3.71994 52.2877 2.72511 51.9873L9.70753 52C9.88425 51.9563 10.0718 51.8963 10.2485 51.8525C10.6342 51.1667 11.1893 51.1369 11.7417 51.166C12.5019 48.4087 11.6152 47.2567 9.69776 47.125L9.45655 47.165L9.22901 47.0645C8.82252 47.0207 8.42458 46.9627 8.01808 46.9043C6.70449 47.6046 5.31667 47.6336 3.99269 47.3125C3.02345 47.079 1.76341 46.6536 2.44972 44.4375L2.4712 44.4082C2.74184 44.1459 3.02378 43.8824 3.29444 43.6201C4.01318 43.5326 4.74366 43.4469 5.46241 43.3594C6.73378 43.0968 8.01721 42.6129 9.28858 42.6123C9.87289 42.6123 10.3829 42.4081 10.8804 42.1152C12.9163 42.2907 15.3938 42.0781 17.4273 42.2754C21.5937 42.6793 23.1747 41.3924 23.3472 39.6572C23.6345 36.9495 19.1804 38.7744 17.7437 38.1162H17.7153C14.3163 38.1309 11.4709 38.4668 9.63136 38.9814C9.0632 38.9334 8.50027 38.906 7.96534 38.7725C6.53725 38.4226 5.02493 38.6553 3.55519 38.6553H3.55226C2.76108 38.6553 1.94778 38.6552 1.39601 37.7373C1.08341 37.2266 0.710584 36.4666 0.762217 35.8975C0.84562 34.9636 1.57456 35.2234 2.05421 35.2236H10.1987C9.53134 32.2469 8.20513 31.6346 6.68312 31.5615C5.21334 31.5032 3.73133 31.6362 2.27198 31.5049C1.79241 31.4621 1.06219 31.909 0.843272 30.5537C0.572989 28.921 1.74943 29.107 2.07374 28.292C2.8867 26.2637 2.15909 29.3097 2.64796 28.627C2.81472 28.3791 3.32561 28.6684 3.58644 28.4795C5.15034 27.3117 6.52841 25.6059 8.47804 25.6787C8.96773 25.6925 9.46775 25.0927 9.27003 24.1738C9.08233 23.2844 8.48767 23.3416 7.97706 23.3125C6.09021 23.196 4.29551 23.7514 2.50245 21.5771C0.886437 19.6066 0.70965 18.6558 2.4712 17.1816C3.12754 16.6272 3.38716 15.5195 3.00245 15.0811C2.60622 14.6302 2.41658 14.1452 2.3589 13.6377C2.73338 13.614 3.08498 13.5939 3.39991 13.584C7.52317 13.4362 14.707 14.2387 14.8345 11.6406C14.9187 9.42308 8.15982 9.50767 3.69679 9.61328L3.6548 9.5918C3.54023 9.59037 3.42462 9.58628 3.30812 9.58398C3.56857 8.70889 3.72251 7.84007 3.49659 7.0166C3.48832 6.98639 3.47671 6.95586 3.46632 6.92383C5.89415 6.95831 6.85172 6.11746 6.9673 5.02051C7.02838 4.47738 6.80377 4.19184 6.42628 4.05078C11.4992 3.93344 20.0092 4.66984 20.1626 2.1123C20.2207 0.860356 17.6134 0.342388 14.3501 0.147461C15.2244 0.0509554 16.1132 0 17.0132 0H201.013ZM90.2817 255.1C90.1224 252.987 88.0984 253.179 87.5718 253.467C86.2008 254.216 85.1163 255.752 83.9048 256.981C85.196 259.363 87.0133 258.326 88.3843 258.537C89.8189 258.748 90.4092 256.809 90.2817 255.1ZM124.211 256.863C124.537 254.693 117.748 255.326 114.326 255.39C109.058 255.501 99.8798 254.899 99.7153 256.847C99.6067 258.51 108.243 258.447 113.946 258.368L114 258.384C118.345 258.415 123.885 258.78 124.211 256.863ZM47.7935 254.117C47.6341 252.005 45.6096 252.196 45.0835 252.484C43.7126 253.233 42.629 254.77 41.4175 255.999C42.7087 258.38 44.5261 257.343 45.897 257.555C47.3314 257.766 47.9209 255.826 47.7935 254.117ZM67.0044 254.32C62.8483 254.289 57.549 253.924 57.2368 255.841C56.9251 258.011 63.4198 257.378 66.6929 257.314C71.7321 257.204 80.5114 257.805 80.6685 255.857C80.7724 254.194 72.5113 254.257 67.0562 254.336L67.0044 254.32ZM136.798 252.488C134.567 252.404 130.14 251.559 130.352 254.452C130.565 257.008 134.177 256.523 137.011 256.48L137.046 256.459C140.766 256.565 146.398 256.649 146.328 254.432C146.221 251.833 140.234 252.636 136.798 252.488ZM198.802 251.491C199.026 249.479 194.372 250.066 192.027 250.125C188.416 250.228 182.126 249.669 182.013 251.476C181.939 253.018 187.858 252.96 191.767 252.887L191.804 252.901C194.782 252.931 198.578 253.268 198.802 251.491ZM25.7202 249.863C22.2983 249.8 15.5086 249.167 15.8345 251.337C16.1608 253.254 21.7014 252.889 26.0464 252.857L26.1001 252.842C31.8032 252.921 40.4392 252.984 40.3306 251.32C40.1661 249.372 30.9884 249.974 25.7202 249.863ZM182.407 243.125C181.579 243.066 179.937 242.479 180.016 244.491C180.095 246.268 181.435 245.931 182.486 245.901L182.499 245.887C183.878 245.96 185.967 246.018 185.941 244.476C185.901 242.669 183.681 243.228 182.407 243.125ZM197.791 241.237C193.624 240.934 192.044 241.9 191.872 243.201C191.584 245.232 196.038 243.863 197.475 244.356H197.503C204.428 244.334 209.055 243.313 207.561 242.191C205.808 240.867 201.181 241.484 197.791 241.237ZM23.2691 242.219C23.0966 240.917 21.5166 239.952 17.3501 240.255C13.9593 240.502 9.33246 239.885 7.5796 241.209C6.08622 242.331 10.7125 243.352 17.6372 243.374H17.6665C19.1038 242.881 23.5563 244.249 23.2691 242.219ZM202.505 235.379C202.76 233.209 197.447 233.842 194.769 233.905C190.646 234.016 183.463 233.414 183.334 235.362C183.249 237.026 190.008 236.963 194.471 236.884L194.514 236.899C197.915 236.931 202.25 237.295 202.505 235.379ZM20.3716 232.924C17.6935 232.86 12.3802 232.227 12.6353 234.397C12.8907 236.314 17.2261 235.95 20.6265 235.918L20.6694 235.902C25.1327 235.982 31.8912 236.044 31.8062 234.381C31.6775 232.433 24.4945 233.035 20.3716 232.924ZM195.228 224.245C194.366 224.903 191.693 223.078 191.866 225.786C191.969 227.521 192.918 228.808 195.417 228.404C197.452 228.075 200.228 228.897 201.28 227.132C202.176 225.636 199.4 224.275 195.246 224.245H195.228ZM19.895 223.264C15.7406 223.294 12.9651 224.655 13.8609 226.15C14.9126 227.916 17.6887 227.094 19.7232 227.423C22.2229 227.827 23.1714 226.54 23.2749 224.805C23.4473 222.097 20.7747 223.922 19.9126 223.264H19.895ZM190.5 217.053C186.378 216.767 184.815 217.678 184.644 218.907C184.36 220.825 188.766 219.533 190.187 219.999H190.215C197.065 219.978 201.64 219.014 200.163 217.954C198.429 216.704 193.853 217.286 190.5 217.053ZM21.814 210.556C20.2809 211.049 15.5311 209.681 15.8374 211.711C16.0213 213.012 17.7075 213.978 22.1519 213.675C25.7686 213.428 30.703 214.045 32.5728 212.721C34.1666 211.599 29.232 210.578 21.8452 210.556H21.814ZM192.752 209.114C185.366 209.137 180.431 210.157 182.025 211.279C183.895 212.603 188.829 211.987 192.446 212.233C196.89 212.536 198.576 211.571 198.76 210.27C199.067 208.239 194.317 209.608 192.784 209.114H192.752ZM22.4683 202.092C22.3691 199.536 20.6833 200.021 19.3608 200.063L19.3442 200.085C17.6086 199.979 14.9804 199.895 15.0132 202.112C15.0628 204.71 17.856 203.908 19.4595 204.056C20.5009 204.14 22.5673 204.985 22.4683 202.092ZM194.717 197.395C193.395 197.352 191.708 196.867 191.609 199.423C191.51 202.316 193.576 201.471 194.618 201.387C196.221 201.239 199.015 202.042 199.065 199.443C199.098 197.226 196.47 197.31 194.734 197.416L194.717 197.395ZM13.7905 188.063C9.6343 188.021 4.33565 187.536 4.02394 190.092C3.71253 192.985 10.206 192.14 13.479 192.056C18.5185 191.908 27.2987 192.71 27.4546 190.112C27.5576 187.895 19.2981 187.979 13.8433 188.085L13.7905 188.063ZM201.725 185.606C201.541 184.305 199.855 183.34 195.411 183.643C191.794 183.889 186.859 183.273 184.989 184.597C183.396 185.719 188.331 186.739 195.717 186.762H195.748C197.28 186.268 202.031 187.637 201.725 185.606ZM15.8218 174.067C12.4214 174.036 8.08599 173.671 7.83058 175.588C7.57554 177.758 12.8888 177.125 15.5669 177.062C19.6898 176.951 26.8728 177.553 27.0015 175.604C27.0865 173.941 20.328 174.004 15.8648 174.083L15.8218 174.067ZM23.3325 167.626C23.229 165.891 22.2806 164.604 19.7808 165.008C17.7463 165.337 14.9711 164.515 13.9194 166.28C13.0233 167.776 15.7987 169.137 19.9536 169.167H19.9712C20.8335 168.509 23.5049 170.333 23.3325 167.626ZM197.394 164.295C194.894 163.891 193.946 165.178 193.842 166.913C193.67 169.62 196.341 167.796 197.204 168.454H197.221C201.376 168.424 204.152 167.063 203.255 165.567C202.204 163.802 199.428 164.624 197.394 164.295ZM21.2407 157.128C16.8958 157.096 11.3562 156.732 11.0298 158.648C10.7039 160.819 17.4937 160.185 20.9155 160.122C26.1838 160.011 35.3616 160.613 35.5259 158.665C35.6345 157.002 26.9985 157.064 21.2954 157.144L21.2407 157.128ZM204.481 157.319C204.225 155.403 199.89 155.767 196.49 155.799L196.448 155.814C191.984 155.735 185.225 155.672 185.31 157.336C185.439 159.284 192.622 158.682 196.745 158.793C199.423 158.856 204.736 159.49 204.481 157.319ZM199.451 148.343C198.014 148.836 193.56 147.467 193.847 149.498C194.02 150.8 195.6 151.765 199.767 151.462C203.158 151.215 207.784 151.832 209.537 150.508C211.031 149.386 206.404 148.365 199.479 148.343H199.451ZM20.1753 138.771C15.7311 138.469 14.0457 139.434 13.8618 140.735C13.5554 142.766 18.3058 141.397 19.8384 141.891H19.8687C27.2552 141.868 32.1902 140.847 30.5972 139.726C28.7275 138.402 23.7921 139.018 20.1753 138.771ZM21.2983 127.644C21.1948 125.908 20.2464 124.622 17.7466 125.025C15.7121 125.354 12.936 124.533 11.8843 126.298C10.9886 127.794 13.764 129.155 17.9185 129.185H17.936C18.7981 128.526 21.4708 130.351 21.2983 127.644ZM200.646 117.873C199.324 117.831 197.637 117.345 197.538 119.901C197.439 122.795 199.505 121.95 200.546 121.865C202.15 121.717 204.944 122.52 204.994 119.922C205.026 117.704 202.398 117.789 200.663 117.895L200.646 117.873ZM18.6509 116.528C15.2505 116.497 10.9152 116.132 10.6597 118.049C10.4046 120.219 15.718 119.586 18.396 119.522C22.519 119.412 29.702 120.013 29.8306 118.065C29.9156 116.402 23.1562 116.465 18.6929 116.544L18.6509 116.528ZM15.6607 109.072C8.73593 109.095 4.10965 110.115 5.60304 111.237C7.3559 112.561 11.9828 111.945 15.3735 112.191C19.5401 112.494 21.1201 111.529 21.2925 110.228C21.5798 108.197 17.1272 109.565 15.69 109.072H15.6607ZM198.971 104.892C198.812 102.779 196.788 102.971 196.261 103.259C194.89 104.008 193.806 105.544 192.594 106.773C193.885 109.155 195.703 108.118 197.074 108.329C198.508 108.54 199.099 106.601 198.971 104.892ZM24.0698 99.5898C19.7249 99.5581 14.1853 99.1938 13.8589 101.11C13.533 103.281 20.3228 102.647 23.7446 102.584C29.0129 102.473 38.1907 103.075 38.355 101.127C38.4636 99.4635 29.8276 99.5263 24.1245 99.6055L24.0698 99.5898ZM210.177 89.8115C209.914 88.0346 205.447 88.372 201.944 88.4014L201.9 88.416C197.301 88.3426 190.338 88.2847 190.425 89.8271C190.558 91.6335 197.959 91.0749 202.207 91.1777C204.966 91.2365 210.44 91.824 210.177 89.8115ZM20.2183 80.6318C20.1191 78.0759 18.4323 78.5613 17.1099 78.6035L17.0933 78.625C15.3576 78.5194 12.7295 78.4349 12.7622 80.6523C12.8118 83.2505 15.606 82.4478 17.2095 82.5957C18.2509 82.6803 20.3173 83.5253 20.2183 80.6318ZM205.904 78.1807C204.613 75.7995 202.795 76.8363 201.424 76.625C199.99 76.4142 199.4 78.3535 199.528 80.0625C199.687 82.1751 201.712 81.9834 202.238 81.6953C203.609 80.9464 204.692 79.4098 205.904 78.1807ZM22.1567 56.0039C19.0038 55.9745 14.9837 55.6371 14.7466 57.4141C14.5101 59.4266 19.4372 58.839 21.9204 58.7803C25.7435 58.6775 32.4036 59.236 32.523 57.4297C32.6018 55.8872 26.3345 55.9451 22.1958 56.0186L22.1567 56.0039ZM21.1636 44.5234C16.7192 44.2205 15.033 45.1858 14.8491 46.4873C14.5428 48.5177 19.2926 47.1494 20.8257 47.6426H20.8569C28.2438 47.6201 33.1783 46.5995 31.5845 45.4775C29.7148 44.1537 24.7803 44.7702 21.1636 44.5234ZM211.95 42.252C211.708 40.9505 209.496 39.9852 203.663 40.2881C198.916 40.5349 192.439 39.9183 189.985 41.2422C187.893 42.3641 194.37 43.3848 204.065 43.4072H204.105C206.116 42.9136 212.352 44.2827 211.95 42.252ZM202.384 31.8262C200.117 31.7839 197.226 31.2986 197.056 33.8545C196.886 36.7481 200.429 35.9029 202.214 35.8184C204.963 35.6706 209.751 36.473 209.836 33.875C209.893 31.6575 205.388 31.7421 202.413 31.8477L202.384 31.8262ZM22.2866 33.3945C22.1831 31.6593 21.2347 30.3725 18.7349 30.7764C16.7004 31.1055 13.9243 30.2836 12.8726 32.0488C11.9769 33.5446 14.7523 34.9055 18.9067 34.9355H18.9243C19.7864 34.2773 22.459 36.1022 22.2866 33.3945ZM19.6392 22.2812C16.2388 22.2496 11.9035 21.8852 11.648 23.8018C11.3929 25.9722 16.7063 25.3388 19.3843 25.2754C23.5072 25.1645 30.6903 25.7664 30.8189 23.8184C30.9039 22.1549 24.1445 22.2177 19.6812 22.2969L19.6392 22.2812ZM200.239 19.6309C200.135 17.8957 199.187 16.6088 196.687 17.0127C194.653 17.3417 191.877 16.52 190.826 18.2852C189.93 19.781 192.705 21.142 196.86 21.1719H196.877C197.74 20.5142 200.411 22.3383 200.239 19.6309ZM16.6489 14.8242C9.72421 14.8467 5.09794 15.8674 6.59132 16.9893C8.34418 18.3132 12.9711 17.6965 16.3618 17.9434C20.5283 18.2463 22.1084 17.281 22.2808 15.9795C22.568 13.949 18.1155 15.3174 16.6782 14.8242H16.6489ZM165.963 9.66309C164.922 9.59963 162.855 8.96648 162.955 11.1367C163.054 13.0533 164.741 12.6889 166.063 12.6572L166.08 12.6416C167.815 12.7208 170.444 12.7835 170.411 11.1201C170.361 9.17204 167.567 9.77397 165.963 9.66309ZM190.212 9.53027C180.518 9.55271 174.041 10.5734 176.131 11.6953C178.585 13.0192 185.063 12.4026 189.81 12.6494C195.643 12.9523 197.856 11.987 198.097 10.6855C198.499 8.65497 192.264 10.0238 190.252 9.53027H190.212ZM49.9995 6.89941C48.7083 4.51823 46.891 5.555 45.52 5.34375C44.0857 5.13294 43.4961 7.07222 43.6235 8.78125C43.783 10.8938 45.8074 10.7021 46.3335 10.4141C47.7044 9.6651 48.7881 8.12851 49.9995 6.89941ZM76.4546 6.48633C75.4131 6.42287 73.3466 5.78972 73.4458 7.95996C73.5452 9.87657 75.2318 9.51215 76.5542 9.48047L76.5708 9.46484C78.3065 9.54405 80.9349 9.60673 80.9019 7.94336C80.8519 5.99528 78.058 6.59722 76.4546 6.48633ZM25.0581 5.34277C20.7131 5.31109 15.1725 4.9466 14.8462 6.86328C14.5203 9.03367 21.31 8.4003 24.7319 8.33691C30.0001 8.22603 39.1778 8.82791 39.3423 6.87988C39.4509 5.21643 30.8149 5.27919 25.1118 5.3584L25.0581 5.34277ZM123.525 4.78027C122.234 2.39887 120.416 3.43582 119.045 3.22461C117.611 3.01337 117.021 4.95292 117.148 6.66211C117.307 8.77418 119.331 8.58289 119.858 8.29492C121.229 7.54592 122.313 6.00941 123.525 4.78027ZM102.834 3.17773C93.1394 3.20019 86.6626 4.22082 88.7544 5.34277C91.2084 6.66667 97.6851 6.05008 102.432 6.29688C108.265 6.59981 110.478 5.63449 110.719 4.33301C111.122 2.30225 104.886 3.6714 102.875 3.17773H102.834ZM139.797 2.12012C138.361 2.61367 133.907 1.24484 134.194 3.27539C134.366 4.57687 135.947 5.54219 140.114 5.23926C143.504 4.99248 148.13 5.60897 149.883 4.28516C151.378 3.16319 146.751 2.14256 139.826 2.12012H139.797ZM166.475 2.25293C162.309 2.18956 154.044 1.55615 154.441 3.72656C154.838 5.64307 161.582 5.27876 166.872 5.24707L166.938 5.23145C173.881 5.31066 184.394 5.3734 184.262 3.70996C184.062 1.76187 172.889 2.36381 166.475 2.25293ZM62.0474 0.179688C57.8816 0.0951501 49.617 -0.749926 50.0132 2.14355C50.4099 4.69946 57.155 4.21412 62.4448 4.17188L62.5103 4.15039C69.4528 4.256 79.9656 4.34062 79.8345 2.12305C79.6361 -0.47511 68.4613 0.32755 62.0474 0.179688Z" fill="#242329"/>
<path d="M217.134 188.69C216.952 188.672 216.765 188.654 216.574 188.639C216.619 188.633 216.663 188.627 216.705 188.624C216.841 188.611 216.985 188.607 217.136 188.605C217.136 188.634 217.135 188.662 217.134 188.69Z" fill="#242329"/>
</svg>
