<svg width="34" height="40" viewBox="0 0 34 40" fill="none" xmlns="http://www.w3.org/2000/svg">
<path d="M33.043 0.957031V26.4102C33.043 29.751 31.1126 32.78 28.1094 34.1992L27.8154 34.332L17 38.958L6.18457 34.332C3.01397 32.9756 0.957031 29.8587 0.957031 26.4102V0.957031H33.043Z" stroke="#E3DDD3" stroke-width="1.91461"/>
<path d="M16.9902 28.2852C16.873 28.2852 16.7526 28.2819 16.6289 28.2754C16.5117 28.2689 16.3945 28.2624 16.2773 28.2559L15.75 29.2617C15.6849 29.3854 15.597 29.4733 15.4863 29.5254C15.3757 29.584 15.252 29.6035 15.1152 29.584C14.9785 29.5514 14.8678 29.4928 14.7832 29.4082C14.7051 29.3236 14.6562 29.2096 14.6367 29.0664L14.4805 27.9434C13.9987 27.8066 13.5527 27.6439 13.1426 27.4551L12.293 28.2168C12.1953 28.3145 12.0846 28.3698 11.9609 28.3828C11.8372 28.3958 11.7135 28.3665 11.5898 28.2949C11.4727 28.2298 11.3913 28.1387 11.3457 28.0215C11.3001 27.9108 11.2904 27.7871 11.3164 27.6504L11.5508 26.5469C11.362 26.4102 11.1732 26.2637 10.9844 26.1074C10.8021 25.9577 10.6263 25.7949 10.457 25.6191L9.41211 26.0586C9.14518 26.1628 8.91406 26.1042 8.71875 25.8828C8.63411 25.7786 8.58529 25.668 8.57227 25.5508C8.56576 25.4271 8.60156 25.3034 8.67969 25.1797L9.28516 24.2324C9.14844 24.0306 9.02148 23.8288 8.9043 23.627C8.78711 23.4186 8.67643 23.207 8.57227 22.9922L7.43945 23.0312C7.30273 23.0378 7.18229 23.0085 7.07812 22.9434C6.97396 22.8783 6.89583 22.7773 6.84375 22.6406C6.80469 22.5104 6.80143 22.3867 6.83398 22.2695C6.86654 22.1523 6.93815 22.0514 7.04883 21.9668L7.94727 21.2734C7.88867 21.0391 7.83659 20.8079 7.79102 20.5801C7.75195 20.3457 7.72266 20.1048 7.70312 19.8574L6.61914 19.5156C6.48242 19.4766 6.37826 19.4082 6.30664 19.3105C6.23503 19.2064 6.19922 19.0859 6.19922 18.9492C6.19922 18.806 6.23503 18.6855 6.30664 18.5879C6.37826 18.4902 6.48242 18.4219 6.61914 18.3828L7.70312 18.041C7.72266 17.7936 7.75195 17.556 7.79102 17.3281C7.83659 17.0938 7.88867 16.8594 7.94727 16.625L7.04883 15.9316C6.80794 15.7493 6.74284 15.5247 6.85352 15.2578C6.89909 15.1276 6.97396 15.0299 7.07812 14.9648C7.18229 14.8932 7.30599 14.8607 7.44922 14.8672L8.57227 14.9062C8.67643 14.6914 8.78711 14.4831 8.9043 14.2812C9.02148 14.0729 9.14844 13.8711 9.28516 13.6758L8.67969 12.7188C8.51693 12.4648 8.52995 12.2305 8.71875 12.0156C8.81641 11.9115 8.92383 11.8431 9.04102 11.8105C9.1582 11.778 9.2819 11.7878 9.41211 11.8398L10.457 12.2695C10.6328 12.1068 10.8086 11.9505 10.9844 11.8008C11.1667 11.6445 11.3555 11.498 11.5508 11.3613L11.3164 10.248C11.2839 10.1113 11.2904 9.98763 11.3359 9.87695C11.388 9.75977 11.4727 9.66862 11.5898 9.60352C11.7135 9.53841 11.8372 9.51237 11.9609 9.52539C12.0846 9.5319 12.1986 9.58398 12.3027 9.68164L13.1328 10.4434C13.3477 10.3457 13.5658 10.2546 13.7871 10.1699C14.0085 10.0853 14.2363 10.0104 14.4707 9.94531L14.6367 8.82227C14.6562 8.68555 14.7051 8.57487 14.7832 8.49023C14.8678 8.39909 14.9818 8.34049 15.125 8.31445C15.2552 8.29492 15.3757 8.3112 15.4863 8.36328C15.597 8.41536 15.6849 8.50651 15.75 8.63672L16.2773 9.63281C16.3945 9.6263 16.5117 9.62305 16.6289 9.62305C16.7526 9.61654 16.873 9.61328 16.9902 9.61328C17.1139 9.61328 17.2344 9.61654 17.3516 9.62305C17.4688 9.62305 17.5859 9.6263 17.7031 9.63281L18.2402 8.62695C18.3053 8.50326 18.39 8.41536 18.4941 8.36328C18.6048 8.30469 18.7318 8.28841 18.875 8.31445C19.0052 8.34701 19.1126 8.4056 19.1973 8.49023C19.2819 8.57487 19.3307 8.68555 19.3438 8.82227L19.5 9.94531C19.7344 10.0104 19.9622 10.0853 20.1836 10.1699C20.4115 10.248 20.6296 10.3359 20.8379 10.4336L21.6875 9.68164C21.7917 9.58398 21.9023 9.52865 22.0195 9.51562C22.1432 9.5026 22.2702 9.5319 22.4004 9.60352C22.5176 9.66862 22.599 9.75977 22.6445 9.87695C22.6901 9.98763 22.6999 10.1113 22.6738 10.248L22.4297 11.3516C22.6185 11.4883 22.804 11.6348 22.9863 11.791C23.1751 11.9408 23.3542 12.1003 23.5234 12.2695L24.5781 11.8398C24.8451 11.7292 25.0762 11.7845 25.2715 12.0059C25.3561 12.1165 25.4017 12.2337 25.4082 12.3574C25.4147 12.4746 25.3789 12.5951 25.3008 12.7188L24.7051 13.666C24.8353 13.8613 24.959 14.0632 25.0762 14.2715C25.1999 14.4733 25.3138 14.6816 25.418 14.8965L26.541 14.8672C26.6842 14.8607 26.8047 14.89 26.9023 14.9551C27.0065 15.0202 27.0846 15.1211 27.1367 15.2578C27.1823 15.388 27.1888 15.5117 27.1562 15.6289C27.1237 15.7461 27.0488 15.847 26.9316 15.9316L26.0332 16.625C26.0983 16.8529 26.1504 17.084 26.1895 17.3184C26.2285 17.5527 26.2611 17.7936 26.2871 18.041L27.3613 18.3828C27.498 18.4219 27.6022 18.4902 27.6738 18.5879C27.752 18.6855 27.791 18.806 27.791 18.9492C27.791 19.0859 27.752 19.2064 27.6738 19.3105C27.6022 19.4082 27.498 19.4766 27.3613 19.5156L26.2871 19.8574C26.2611 20.1048 26.2285 20.3457 26.1895 20.5801C26.1504 20.8079 26.0983 21.0391 26.0332 21.2734L26.9414 21.9668C27.0521 22.0514 27.1237 22.1523 27.1562 22.2695C27.1953 22.3867 27.1888 22.5072 27.1367 22.6309C27.0846 22.7676 27.0065 22.8717 26.9023 22.9434C26.8047 23.0085 26.6842 23.0378 26.541 23.0312L25.418 22.9922C25.3138 23.2005 25.1999 23.4089 25.0762 23.6172C24.959 23.819 24.8353 24.0208 24.7051 24.2227L25.3105 25.1797C25.3887 25.2969 25.4212 25.4173 25.4082 25.541C25.4017 25.6647 25.3529 25.7786 25.2617 25.8828C25.1706 25.987 25.0664 26.0553 24.9492 26.0879C24.832 26.1204 24.7051 26.1107 24.5684 26.0586L23.5234 25.6289C23.3542 25.7917 23.1784 25.9479 22.9961 26.0977C22.8138 26.2539 22.625 26.4004 22.4297 26.5371L22.6738 27.6504C22.6999 27.7871 22.6901 27.9108 22.6445 28.0215C22.599 28.1322 22.5143 28.2233 22.3906 28.2949C22.2669 28.36 22.1432 28.3861 22.0195 28.373C21.8958 28.3665 21.7852 28.3145 21.6875 28.2168L20.8477 27.4551C20.6328 27.5527 20.4147 27.6406 20.1934 27.7188C19.972 27.8034 19.7441 27.8783 19.5098 27.9434L19.3438 29.0762C19.3307 29.2129 19.2819 29.3236 19.1973 29.4082C19.1126 29.4993 19.002 29.5579 18.8652 29.584C18.7285 29.597 18.6048 29.5775 18.4941 29.5254C18.39 29.4733 18.3053 29.3854 18.2402 29.2617L17.7031 28.2559C17.5859 28.2624 17.4688 28.2689 17.3516 28.2754C17.2344 28.2819 17.1139 28.2852 16.9902 28.2852ZM16.9902 26.6641C18.0579 26.6641 19.0573 26.4622 19.9883 26.0586C20.9193 25.6615 21.7396 25.1113 22.4492 24.4082C23.1589 23.6986 23.7122 22.8783 24.1094 21.9473C24.5065 21.0163 24.7051 20.0169 24.7051 18.9492C24.7051 17.8815 24.5065 16.8822 24.1094 15.9512C23.7122 15.0202 23.1589 14.1999 22.4492 13.4902C21.7396 12.7806 20.9193 12.2272 19.9883 11.8301C19.0573 11.4329 18.0579 11.2344 16.9902 11.2344C15.929 11.2344 14.9297 11.4329 13.9922 11.8301C13.0612 12.2272 12.2409 12.7806 11.5312 13.4902C10.8281 14.1999 10.2747 15.0202 9.87109 15.9512C9.47396 16.8822 9.27539 17.8815 9.27539 18.9492C9.27539 20.0169 9.47396 21.0163 9.87109 21.9473C10.2747 22.8783 10.8281 23.6986 11.5312 24.4082C12.2409 25.1113 13.0612 25.6615 13.9922 26.0586C14.9297 26.4622 15.929 26.6641 16.9902 26.6641ZM15.291 17.4551L11.9805 11.8008L13.1816 11.127L16.4434 16.7227L15.291 17.4551ZM19.168 19.6133V18.2656H25.6621V19.6133H19.168ZM16.4629 21.2051L13.0742 26.7715L11.8828 26.0684L15.3203 20.4629L16.4629 21.2051ZM17 21.5078C16.5247 21.5078 16.0918 21.3939 15.7012 21.166C15.3171 20.9316 15.0111 20.6224 14.7832 20.2383C14.5553 19.8477 14.4414 19.418 14.4414 18.9492C14.4414 18.474 14.5553 18.0443 14.7832 17.6602C15.0111 17.276 15.3171 16.9701 15.7012 16.7422C16.0918 16.5078 16.5247 16.3906 17 16.3906C17.4688 16.3906 17.8952 16.5078 18.2793 16.7422C18.6699 16.9701 18.9792 17.276 19.207 17.6602C19.4414 18.0443 19.5586 18.474 19.5586 18.9492C19.5586 19.418 19.4414 19.8477 19.207 20.2383C18.9792 20.6224 18.6699 20.9316 18.2793 21.166C17.8952 21.3939 17.4688 21.5078 17 21.5078ZM17 20.043C17.2995 20.043 17.5566 19.9355 17.7715 19.7207C17.9863 19.5059 18.0938 19.2487 18.0938 18.9492C18.0938 18.6497 17.9863 18.3926 17.7715 18.1777C17.5566 17.9629 17.2995 17.8555 17 17.8555C16.7005 17.8555 16.4434 17.9629 16.2285 18.1777C16.0137 18.3926 15.9062 18.6497 15.9062 18.9492C15.9062 19.2487 16.0137 19.5059 16.2285 19.7207C16.4434 19.9355 16.7005 20.043 17 20.043Z" fill="#E3DDD3"/>
</svg>
