<svg width="35" height="40" viewBox="0 0 35 40" fill="none" xmlns="http://www.w3.org/2000/svg">
<path d="M34.5 0.5V26.3389C34.5 29.8902 32.4298 33.1037 29.2227 34.5801L28.9092 34.7168L17.5 39.458L6.09082 34.7168C2.7059 33.3099 0.5 30.0046 0.5 26.3389V0.5H34.5Z" fill="#521111" stroke="#FF9E28"/>
<path d="M17.5 28.041C17.3698 28.041 17.2396 28.0378 17.1094 28.0312C16.9857 28.0247 16.862 28.015 16.7383 28.002L16.2402 28.9297C16.1816 29.0469 16.1068 29.1283 16.0156 29.1738C15.9245 29.2194 15.8138 29.2324 15.6836 29.2129C15.5664 29.1868 15.472 29.138 15.4004 29.0664C15.3288 28.9948 15.2832 28.8906 15.2637 28.7539L15.1172 27.7285C14.6159 27.5853 14.1406 27.4095 13.6914 27.2012L12.9004 27.9043C12.8092 27.9954 12.7116 28.0443 12.6074 28.0508C12.5098 28.0638 12.4023 28.0378 12.2852 27.9727C12.181 27.9141 12.1094 27.8359 12.0703 27.7383C12.0312 27.6471 12.0247 27.5365 12.0508 27.4062L12.2559 26.3809C12.054 26.2376 11.8522 26.0846 11.6504 25.9219C11.4551 25.7591 11.2663 25.5833 11.084 25.3945L10.1172 25.7949C9.88281 25.8861 9.68099 25.8372 9.51172 25.6484C9.4401 25.5508 9.39779 25.4531 9.38477 25.3555C9.37826 25.2513 9.41081 25.1406 9.48242 25.0234L10.0293 24.1445C9.88607 23.9297 9.74935 23.7148 9.61914 23.5C9.49544 23.2786 9.37826 23.0508 9.26758 22.8164L8.22266 22.8555C8.09245 22.8555 7.98503 22.8294 7.90039 22.7773C7.81576 22.7253 7.75065 22.6374 7.70508 22.5137C7.67253 22.3965 7.66927 22.2891 7.69531 22.1914C7.72135 22.0938 7.78646 22.0059 7.89062 21.9277L8.71094 21.2734C8.64583 21.026 8.59049 20.7786 8.54492 20.5312C8.49935 20.2839 8.4668 20.0299 8.44727 19.7695L7.45117 19.4473C7.32096 19.4082 7.22656 19.3464 7.16797 19.2617C7.10938 19.1771 7.08008 19.0729 7.08008 18.9492C7.08008 18.819 7.10938 18.7148 7.16797 18.6367C7.22656 18.5521 7.32096 18.4902 7.45117 18.4512L8.44727 18.1289C8.4668 17.8685 8.49935 17.6146 8.54492 17.3672C8.59049 17.1198 8.64583 16.8724 8.71094 16.625L7.89062 15.9805C7.67578 15.8177 7.61393 15.6191 7.70508 15.3848C7.75065 15.2676 7.81576 15.1797 7.90039 15.1211C7.98503 15.0625 8.0957 15.0365 8.23242 15.043L9.26758 15.0723C9.37826 14.8444 9.49544 14.6198 9.61914 14.3984C9.74935 14.1771 9.88607 13.9622 10.0293 13.7539L9.47266 12.875C9.33594 12.6471 9.34896 12.4421 9.51172 12.2598C9.60286 12.1621 9.69727 12.1003 9.79492 12.0742C9.89258 12.0417 10 12.0514 10.1172 12.1035L11.084 12.4941C11.2728 12.3184 11.4616 12.1491 11.6504 11.9863C11.8457 11.8236 12.0475 11.6706 12.2559 11.5273L12.041 10.4922C12.015 10.3685 12.0215 10.2578 12.0605 10.1602C12.0996 10.0625 12.1745 9.98438 12.2852 9.92578C12.3958 9.86719 12.5033 9.84115 12.6074 9.84766C12.7116 9.85417 12.8125 9.90299 12.9102 9.99414L13.6816 10.6973C13.9095 10.5931 14.1406 10.4954 14.375 10.4043C14.6159 10.3132 14.86 10.235 15.1074 10.1699L15.2637 9.13477C15.2832 9.00456 15.3255 8.90365 15.3906 8.83203C15.4622 8.75391 15.5632 8.70508 15.6934 8.68555C15.8171 8.66602 15.9245 8.67904 16.0156 8.72461C16.1068 8.76367 16.1816 8.84505 16.2402 8.96875L16.7383 9.88672C16.862 9.8737 16.9857 9.86719 17.1094 9.86719C17.2396 9.86068 17.3698 9.85742 17.5 9.85742C17.6302 9.85742 17.7572 9.86068 17.8809 9.86719C18.0111 9.86719 18.138 9.8737 18.2617 9.88672L18.7598 8.95898C18.8184 8.84831 18.8932 8.77018 18.9844 8.72461C19.0755 8.67253 19.1862 8.65951 19.3164 8.68555C19.4336 8.71159 19.528 8.76042 19.5996 8.83203C19.6712 8.90365 19.7135 9.00456 19.7266 9.13477L19.873 10.1699C20.127 10.235 20.3743 10.3132 20.6152 10.4043C20.8561 10.4889 21.0872 10.5833 21.3086 10.6875L22.0996 9.99414C22.1973 9.90951 22.2949 9.86068 22.3926 9.84766C22.4902 9.83464 22.5977 9.86068 22.7148 9.92578C22.819 9.99089 22.8906 10.069 22.9297 10.1602C22.9688 10.2513 22.9785 10.3652 22.959 10.502L22.7344 11.5078C22.9427 11.6576 23.1445 11.8138 23.3398 11.9766C23.5352 12.1393 23.724 12.3118 23.9062 12.4941L24.8828 12.1035C25.1172 12.0059 25.319 12.0547 25.4883 12.25C25.5599 12.3477 25.599 12.4486 25.6055 12.5527C25.6185 12.6504 25.5892 12.7578 25.5176 12.875L24.9707 13.7539C25.1139 13.9557 25.2474 14.1673 25.3711 14.3887C25.5013 14.61 25.6217 14.8379 25.7324 15.0723L26.7773 15.043C26.901 15.043 27.0052 15.069 27.0898 15.1211C27.1745 15.1732 27.2396 15.2611 27.2852 15.3848C27.3242 15.5085 27.3307 15.6191 27.3047 15.7168C27.2852 15.8079 27.2201 15.8958 27.1094 15.9805L26.2891 16.6152C26.3542 16.8626 26.4095 17.1133 26.4551 17.3672C26.5007 17.6146 26.5332 17.8685 26.5527 18.1289L27.5488 18.4512C27.679 18.4902 27.7734 18.5521 27.832 18.6367C27.8906 18.7148 27.9199 18.819 27.9199 18.9492C27.9199 19.0729 27.8906 19.1771 27.832 19.2617C27.7734 19.3464 27.679 19.4082 27.5488 19.4473L26.5527 19.7695C26.5332 20.0299 26.5007 20.2839 26.4551 20.5312C26.4095 20.7786 26.3542 21.026 26.2891 21.2734L27.1191 21.918C27.2233 22.0026 27.2884 22.0938 27.3145 22.1914C27.347 22.2826 27.3405 22.3867 27.2949 22.5039C27.2493 22.6276 27.1842 22.7188 27.0996 22.7773C27.015 22.8359 26.9043 22.862 26.7676 22.8555L25.7324 22.8262C25.6217 23.054 25.5013 23.2786 25.3711 23.5C25.2474 23.7148 25.1139 23.9264 24.9707 24.1348L25.5273 25.0234C25.599 25.1341 25.6283 25.2415 25.6152 25.3457C25.6087 25.4434 25.5664 25.541 25.4883 25.6387C25.4036 25.7363 25.3125 25.8014 25.2148 25.834C25.1172 25.86 25.0033 25.847 24.873 25.7949L23.9062 25.4043C23.724 25.5801 23.5352 25.7493 23.3398 25.9121C23.1445 26.0749 22.9427 26.2311 22.7344 26.3809L22.959 27.4062C22.985 27.5365 22.9785 27.6471 22.9395 27.7383C22.9004 27.8294 22.8255 27.9076 22.7148 27.9727C22.5977 28.0312 22.487 28.0573 22.3828 28.0508C22.2852 28.0443 22.1875 27.9954 22.0898 27.9043L21.3184 27.2012C21.0905 27.3053 20.8561 27.3997 20.6152 27.4844C20.3809 27.5755 20.1367 27.6569 19.8828 27.7285L19.7266 28.7637C19.7135 28.8939 19.6712 28.9948 19.5996 29.0664C19.5345 29.1445 19.4401 29.1934 19.3164 29.2129C19.1862 29.2259 19.0755 29.2096 18.9844 29.1641C18.8997 29.125 18.8249 29.0469 18.7598 28.9297L18.2617 28.002C18.138 28.015 18.0111 28.0247 17.8809 28.0312C17.7572 28.0378 17.6302 28.041 17.5 28.041ZM17.5 26.8008C18.5872 26.8008 19.6029 26.5957 20.5469 26.1855C21.4974 25.7819 22.334 25.222 23.0566 24.5059C23.7793 23.7832 24.3424 22.9499 24.7461 22.0059C25.1497 21.0553 25.3516 20.0365 25.3516 18.9492C25.3516 17.862 25.1497 16.8464 24.7461 15.9023C24.3424 14.9518 23.7793 14.1152 23.0566 13.3926C22.334 12.6699 21.4974 12.1068 20.5469 11.7031C19.6029 11.2995 18.5872 11.0977 17.5 11.0977C16.4193 11.0977 15.4004 11.2995 14.4434 11.7031C13.4928 12.1068 12.6562 12.6699 11.9336 13.3926C11.2174 14.1152 10.6543 14.9518 10.2441 15.9023C9.84049 16.8464 9.63867 17.862 9.63867 18.9492C9.63867 20.0365 9.84049 21.0553 10.2441 22.0059C10.6543 22.9499 11.2174 23.7832 11.9336 24.5059C12.6562 25.222 13.4928 25.7819 14.4434 26.1855C15.4004 26.5957 16.4193 26.8008 17.5 26.8008ZM16.0059 17.4844L12.666 11.752L13.6035 11.2344L16.9043 16.918L16.0059 17.4844ZM19.5312 19.4473V18.3926H26.123V19.4473H19.5312ZM16.9727 20.9902L13.5449 26.6543L12.6074 26.1074L16.0645 20.4141L16.9727 20.9902ZM17.5098 21.293C17.0736 21.293 16.6797 21.1888 16.3281 20.9805C15.9766 20.7656 15.6934 20.4824 15.4785 20.1309C15.2702 19.7728 15.166 19.3789 15.166 18.9492C15.166 18.513 15.2702 18.1191 15.4785 17.7676C15.6934 17.416 15.9766 17.1361 16.3281 16.9277C16.6797 16.7129 17.0736 16.6055 17.5098 16.6055C17.946 16.6055 18.3398 16.7129 18.6914 16.9277C19.043 17.1361 19.3262 17.416 19.541 17.7676C19.7559 18.1191 19.8633 18.513 19.8633 18.9492C19.8633 19.3789 19.7559 19.7728 19.541 20.1309C19.3262 20.4824 19.043 20.7656 18.6914 20.9805C18.3398 21.1888 17.946 21.293 17.5098 21.293ZM17.5098 20.1602C17.8483 20.1602 18.1348 20.043 18.3691 19.8086C18.6035 19.5677 18.7207 19.2812 18.7207 18.9492C18.7207 18.6172 18.6035 18.334 18.3691 18.0996C18.1348 17.8587 17.8483 17.7383 17.5098 17.7383C17.1777 17.7383 16.8913 17.8587 16.6504 18.0996C16.416 18.334 16.2988 18.6172 16.2988 18.9492C16.2988 19.2812 16.416 19.5677 16.6504 19.8086C16.8913 20.043 17.1777 20.1602 17.5098 20.1602Z" fill="#FF9E28"/>
</svg>
