<svg width="37" height="35" viewBox="0 0 37 35" fill="none" xmlns="http://www.w3.org/2000/svg">
<rect x="36" y="1" width="33" height="35" rx="9" transform="rotate(90 36 1)" stroke="#E3DDD3" stroke-width="2"/>
<path d="M15.0063 25.8784C14.7134 25.8784 14.4839 25.7832 14.3179 25.5928C14.1567 25.4023 14.0762 25.1436 14.0762 24.8164V23.0146H13.6807C12.9727 23.0146 12.3647 22.8779 11.8569 22.6045C11.354 22.3311 10.9658 21.9404 10.6924 21.4326C10.4238 20.9199 10.2896 20.2998 10.2896 19.5723V13.8887C10.2896 13.1611 10.4238 12.5435 10.6924 12.0356C10.9609 11.5229 11.3491 11.1299 11.8569 10.8564C12.3696 10.583 12.9946 10.4463 13.7319 10.4463H23.2607C23.9932 10.4463 24.6157 10.583 25.1284 10.8564C25.6411 11.1299 26.0317 11.5229 26.3003 12.0356C26.5688 12.5435 26.7031 13.1611 26.7031 13.8887V19.5723C26.7031 20.2998 26.5688 20.9199 26.3003 21.4326C26.0317 21.9404 25.6411 22.3311 25.1284 22.6045C24.6157 22.8779 23.9932 23.0146 23.2607 23.0146H18.7344L16.2295 25.2339C15.9805 25.4536 15.7656 25.6147 15.585 25.7173C15.4043 25.8247 15.2114 25.8784 15.0063 25.8784ZM15.3652 24.2598L17.687 21.96C17.8433 21.8037 17.9873 21.7012 18.1191 21.6523C18.2559 21.5986 18.4365 21.5718 18.6611 21.5718H23.2168C23.9102 21.5718 24.4229 21.4009 24.7549 21.0591C25.0918 20.7124 25.2603 20.1997 25.2603 19.521V13.9326C25.2603 13.2588 25.0918 12.751 24.7549 12.4092C24.4229 12.0625 23.9102 11.8892 23.2168 11.8892H13.7686C13.0801 11.8892 12.5674 12.0625 12.2305 12.4092C11.8984 12.751 11.7324 13.2588 11.7324 13.9326V19.521C11.7324 20.1997 11.8984 20.7124 12.2305 21.0591C12.5674 21.4009 13.0801 21.5718 13.7686 21.5718H14.772C14.9771 21.5718 15.126 21.6182 15.2188 21.7109C15.3164 21.7988 15.3652 21.9526 15.3652 22.1724V24.2598ZM18.5 17.9463C18.0752 17.9463 17.8555 17.7314 17.8408 17.3018L17.7383 13.7422C17.7285 13.5273 17.7944 13.3516 17.936 13.2148C18.0776 13.0781 18.2607 13.0098 18.4854 13.0098C18.71 13.0098 18.8955 13.0806 19.042 13.2222C19.1885 13.3589 19.2568 13.5322 19.2471 13.7422L19.1299 17.3018C19.1201 17.7314 18.9102 17.9463 18.5 17.9463ZM18.5 20.3779C18.2607 20.3779 18.0557 20.3022 17.8848 20.1509C17.7188 19.9946 17.6357 19.8018 17.6357 19.5723C17.6357 19.3428 17.7188 19.1523 17.8848 19.001C18.0557 18.8447 18.2607 18.7666 18.5 18.7666C18.7344 18.7666 18.9346 18.8423 19.1006 18.9937C19.2715 19.145 19.3569 19.3379 19.3569 19.5723C19.3569 19.8066 19.2715 19.9995 19.1006 20.1509C18.9297 20.3022 18.7295 20.3779 18.5 20.3779Z" fill="#E3DDD3"/>
</svg>
