<svg width="123" height="70" viewBox="0 0 123 70" fill="none" xmlns="http://www.w3.org/2000/svg">
<g id="hat">
<path id="Vector 140" d="M30.6159 68.3057L91.8858 68.3057V56.1845L89.5612 53.6939L91.8858 38.2518L98.6935 24.4703L104.837 25.3005L114.468 36.2593L115.464 41.4067L110.815 45.0596V48.8786L113.803 50.8711L118.619 48.8786V43.5652H116.626V33.9347L113.305 22.6438L102.346 12.3491L93.8783 8.36408L79.4325 15.1718L71.6285 24.4703L65.817 16.3341L64.3226 10.3566L65.817 5.3753L60.3376 2.05444L57.3488 5.3753L59.1753 9.69242L56.0205 14.6737L53.6959 25.3005L47.0542 18.4927L33.9368 9.69242L26.963 9.69242L13.1814 18.4927L6.0416 35.7612V41.0746L2.72074 45.5577V49.7088L7.36994 50.539L12.0191 47.8824L9.19641 42.4029L7.36994 39.7462L19.159 24.4703L24.8044 26.4628L30.6159 34.4329L33.1066 53.6939L30.6159 56.1845V68.3057Z" fill="#D72E14"/>
<g id="Group 37395">
<g id="Group 37403">
<g id="Group 37392">
<path id="Vector" d="M54.4952 17.6123C56.4858 14.6012 57.1688 12.4448 59.468 9.65418C60.6802 8.80172 60.8503 8.81431 61.9878 9.65418C63.6922 11.859 64.2907 12.8039 65.1033 13.9902C65.6513 15.1115 66.5836 16.0123 67.012 17.2218C69.2456 19.7446 70.1923 22.7256 70.3624 22.5366C70.986 21.8185 69.468 24.0062 70.0665 23.2691C72.372 20.447 74.7721 17.7446 77.5753 15.376C79.6793 13.5996 81.8147 11.8862 84.1644 10.45C86.4952 9.0263 88.9456 7.86092 91.5976 7.1428C93.248 6.69554 94.8292 6.90342 96.4103 7.48926C99.5537 8.65464 102.495 10.1602 105.192 12.1823C108.196 14.4437 110.754 17.1399 112.984 20.1258C115.737 23.8109 117.601 27.937 118.313 32.4914C118.565 34.0977 118.414 35.7733 118.382 37.4175C118.364 38.4128 118.508 39.427 118.225 40.4097C118.093 40.8632 118.439 40.9829 118.741 41.1278C122.238 42.8538 123.529 47.2256 121.412 50.5075C120.159 52.454 117.337 54.3312 114.124 53.3171C111.157 52.3848 109.267 49.9658 109.444 46.9673C109.601 44.3216 110.779 42.2491 113.305 41.153C113.828 40.9262 113.841 40.6238 113.74 40.1955C113.286 38.2679 112.537 36.4726 111.289 34.9103C110.426 33.8332 109.872 32.5544 108.959 31.4898C107.371 29.6567 105.456 28.2519 103.484 26.8976C102.792 26.4188 102.149 26.4251 101.368 26.8472C99.3458 27.9307 97.771 29.4866 96.4607 31.3197C94.9741 33.3985 94.3567 35.8363 93.6764 38.249C92.9016 41.0144 92.4039 43.8428 91.9 46.6649C91.4968 48.939 91.3771 51.2572 91.3582 53.5753C91.3582 54.1927 91.5661 54.5895 92.2338 54.7155C92.9016 54.8415 93.7709 54.8037 94.1552 55.3013C94.552 55.8053 94.2308 56.6368 94.2371 57.3297C94.2371 60.8259 94.2371 64.3283 94.2371 67.8245C94.2371 68.1583 94.1929 68.4922 94.1614 68.8198C94.0859 69.6954 93.815 70.0607 92.9898 69.9914C90.6779 69.7836 88.3598 70.1174 86.0605 69.9536C82.9864 69.7395 79.906 69.8024 76.832 69.8024C72.9012 69.8024 68.9578 69.9095 65.027 69.8151C59.9371 69.6954 54.8473 69.9725 49.7637 69.8717C45.14 69.7773 40.5163 69.9347 35.8989 69.7521C34.1539 69.6828 32.409 69.7458 30.6641 69.7143C30.2798 69.708 29.9712 69.9221 29.5239 69.8213C28.8877 69.6765 28.6861 69.33 28.6924 68.8261C28.7365 65.8717 28.5979 62.911 28.7617 59.9566C28.8373 58.5959 28.7995 57.2289 28.6735 55.8746C28.6105 55.1817 28.7743 54.9297 29.5554 54.8541C31.6783 54.6462 31.6342 54.9423 31.6468 52.7312C31.6657 48.6555 31.2436 44.6428 30.4688 40.649C29.9208 37.8143 29.0515 35.0867 27.7349 32.5292C26.6199 30.3748 25.0199 28.6047 22.9474 27.307C22.4057 26.9732 21.8135 26.7023 21.2151 26.4818C20.686 26.2865 20.2135 26.6204 19.7852 26.8787C16.9315 28.6047 14.5252 30.8032 12.711 33.619C11.785 35.0552 10.6826 36.4033 10.2102 38.1041C10.1157 38.4506 10.0464 38.8033 9.94558 39.1435C9.66211 40.0884 9.82589 40.6742 10.7519 41.3546C13.8197 43.5971 14.4748 46.6775 13.0449 50.0036C11.8039 52.895 7.61482 54.8541 3.69033 52.5611C0.824135 50.8855 -0.0262749 47.7106 0.950123 44.7877C1.56746 42.942 2.91552 41.8585 4.51555 40.9892C4.83052 40.8191 4.91871 40.6427 4.91241 40.29C4.88091 38.4569 4.91241 36.6238 4.87461 34.797C4.82422 32.5607 5.30927 30.4504 6.02739 28.3338C7.12978 25.0708 9.00068 22.2927 11.0102 19.5714C13.9835 15.5524 17.5111 12.113 21.8576 9.61214C24.2199 8.25148 26.7963 7.35067 29.5302 7.0483C31.5775 6.82153 33.3791 7.76643 35.2563 8.33967C37.606 9.0641 39.6848 10.3303 41.7131 11.6909C44.0691 13.2721 46.1605 15.143 48.1133 17.2218C49.5873 18.7903 51.1181 20.3084 52.4094 22.0282C53.3102 23.2313 53.5062 16.2265 54.3629 17.4611C54.4133 17.5367 54.4826 17.5997 54.4889 17.6123H54.4952ZM30.3617 25.6692L30.4688 25.9527C30.8909 26.318 31.3066 26.7401 31.5019 27.2314C32.1948 28.989 33.5807 30.3244 34.324 32.0441C34.6579 32.8126 35.1303 33.5245 35.0673 34.4379C33.7508 32.1449 32.3082 29.9779 30.1854 28.3275C30.7397 28.9134 30.8468 29.7197 31.2625 30.3748C31.9366 31.4331 32.6673 32.4662 33.2972 33.556C33.6752 34.1985 34.1539 34.7655 34.45 35.4584C35.0484 36.8694 35.7099 38.2553 36.3083 39.6663C36.9005 41.0774 37.4611 42.5011 37.6249 44.0444C37.6501 44.2838 37.7383 44.5988 37.9146 44.7373C38.6454 45.3232 38.7336 46.2114 38.9477 46.9862C39.4391 48.7752 39.7667 50.6146 40.1761 52.4225C40.2265 52.6556 40.258 53.0588 40.5163 53.0399C40.8879 53.0147 40.7179 52.5863 40.7997 52.3406C40.8123 52.2965 40.7808 52.2399 40.7808 52.1895C40.5415 49.2351 40.2139 46.3248 39.1115 43.4964C38.2044 41.1656 37.5052 38.7529 36.4217 36.4852C36.4973 36.4852 36.5729 36.4852 36.6485 36.4852C37.0768 36.5356 37.1713 36.9072 37.3351 37.2096C38.3997 39.2065 38.9855 41.3924 39.8674 43.4523C40.7682 45.5625 41.5683 47.6665 41.8895 49.9343C42.0407 50.98 42.2486 51.9753 42.9226 52.832C43.0108 52.9391 43.0171 53.1407 43.1998 53.1155C43.4581 53.0777 43.3762 52.8446 43.3825 52.6745C43.4329 50.6146 43.1053 48.6051 42.6832 46.6019C42.5888 46.1421 42.3683 45.7074 42.4061 45.0964C42.6895 45.4303 43.0045 45.6381 43.0927 45.9216C43.6344 47.6602 44.6234 49.254 44.7935 51.106C44.8313 51.5406 44.8439 51.9753 44.8376 52.4099C44.8376 52.7753 44.951 53.021 45.4424 53.1659C45.6313 50.3374 44.8754 47.6791 44.5541 44.9704C45.8644 47.4713 46.6392 50.1674 47.5148 52.832C47.6975 52.4036 48.0881 52.1139 47.9495 51.5973C47.6408 50.4382 47.3574 49.2666 47.1306 48.0823C46.9353 47.0618 46.614 46.0539 46.6833 44.9767C47.3448 45.783 47.4581 46.8287 47.981 47.6791C47.8991 48.0193 48.1259 48.2398 48.296 48.4791C48.7684 49.424 48.7495 50.4887 48.9826 51.4902C49.1023 52.0068 49.1968 52.5422 49.5558 53.0336C49.6944 52.6997 50.1984 52.6619 50.1228 52.4036C49.9212 51.6603 50.3684 50.9233 50.1039 50.2304C49.7763 49.3737 49.7196 48.4855 49.6629 47.5909C49.6755 47.5405 49.6755 47.4901 49.6629 47.4397C49.6566 46.709 49.5243 45.9909 49.4487 45.2602C49.9716 46.1106 50.1165 47.087 50.4503 47.9878C51.011 49.5059 50.7716 51.1816 51.4708 52.6808C51.685 53.1281 51.8425 53.0273 52.0504 52.8572C52.3464 52.6178 52.6047 52.2965 52.5984 51.8871C52.5921 51.2194 52.5102 50.5516 52.5102 49.8839C52.5102 48.8382 51.9811 47.8429 52.2204 46.709C53.2535 48.3217 53.3417 50.0981 53.5496 51.843C53.5811 52.0824 53.4047 52.4477 53.6819 52.5296C53.9087 52.5926 54.1858 52.3343 54.3055 52.0887C54.3937 51.906 54.5134 51.7296 54.6142 51.5847C55.5654 50.2367 55.9434 48.5988 56.8568 47.2382C57.2662 46.6334 57.5308 45.9783 57.7198 45.2854C57.8332 44.8633 57.9654 44.4413 58.2426 44.1011C58.4001 43.9058 58.545 43.5216 58.8788 43.6916C59.1623 43.8302 58.9796 44.183 58.9166 44.3846C58.7277 44.9893 58.5324 45.6192 58.2048 46.1547C57.2788 47.6665 56.6993 49.3421 55.9686 50.9422C55.7796 51.3516 55.7166 51.8304 55.6599 52.284C55.6284 52.5422 55.5906 52.9202 55.9245 53.0147C56.2079 53.0966 56.3591 52.7816 56.4725 52.5674C56.9387 51.717 57.5686 50.9359 57.9654 50.0792C58.8222 48.2272 60.1009 46.5956 60.7498 44.6428C60.9072 44.1704 61.2348 43.7609 61.8017 43.6098C61.8143 43.931 61.9403 44.2082 61.7513 44.4728C60.6931 45.9405 60.4159 47.7799 59.5025 49.317C58.967 50.2115 58.3308 51.0556 58.2804 52.158C58.2741 52.347 57.8206 52.5044 58.1229 52.6997C58.3623 52.8572 58.6836 52.7627 58.9481 52.517C59.2505 52.2399 59.5025 51.9501 59.6915 51.5784C60.1891 50.5705 60.8064 49.6319 61.4301 48.6933C62.0978 47.6917 62.9041 46.7405 63.1372 45.4869C63.2128 45.0964 63.49 44.7688 64.1262 44.7184C63.6034 45.2602 64.2333 45.8649 63.786 46.35C63.1939 46.9925 62.8159 47.7736 62.4821 48.5547C62.0915 49.4556 61.4175 50.2178 61.2726 51.2257C61.26 51.3076 61.2474 51.3894 61.2348 51.4713C61.1025 51.5784 61.0584 51.7422 61.0836 51.8871C61.134 52.1517 60.7876 52.5044 61.2474 52.6808C61.6821 52.8509 62.0033 52.6619 62.2238 52.3028C62.3813 52.0509 62.4443 51.7233 62.627 51.5028C63.9183 49.9658 64.6742 48.0949 65.7199 46.4067C66.142 45.7263 66.4066 44.92 66.6207 44.1452C66.7467 43.6979 66.9546 43.4334 67.3578 43.1499C67.4963 44.605 66.6585 45.7389 66.4444 47.0114L65.89 48.0508C65.1278 49.2729 64.8254 50.7406 63.8742 51.8619C63.6286 52.1517 63.8994 52.4981 64.0632 52.6934C64.3593 53.0462 64.3278 52.4729 64.5231 52.454C64.8254 52.4288 64.9073 52.1643 65.0711 51.9753C66.0916 50.7532 66.816 49.3359 67.6097 47.9752C68.309 47.2571 68.857 46.4319 69.3169 45.5121C69.0208 46.413 69.0397 47.3516 68.6806 48.2272C68.2397 49.3107 67.49 50.243 67.1247 51.3643C67.0995 51.3894 67.0869 51.4209 67.0932 51.4587C66.8097 51.7107 66.7215 51.9879 66.9861 52.3155C67.2444 52.643 67.4774 52.3407 67.7294 52.3155C68.309 52.2588 68.2271 51.6603 68.542 51.3895C69.9468 50.1674 70.5137 48.5169 70.835 46.7594C70.9358 46.1862 71.2004 45.7011 71.5657 45.2728C71.6854 45.1342 71.8429 44.9137 72.0823 45.046C72.3216 45.1783 72.202 45.4177 72.1516 45.594C71.9311 46.3311 71.5783 47.0429 71.4838 47.7925C71.2885 49.361 70.4822 50.6209 69.6381 51.8745C69.4869 52.095 69.2476 52.2462 69.594 52.5611C69.9531 52.8824 70.1421 52.6178 70.2869 52.4352C71.4649 50.9485 72.8886 49.6256 73.1972 47.5909C73.3295 46.7279 73.6634 45.8775 74.3059 45.109C74.35 45.2917 74.3815 45.3673 74.3752 45.4429C74.3689 45.6507 74.3437 45.8523 74.3248 46.0602C74.1548 48.3469 73.361 50.4508 72.4791 52.5359C72.4224 52.6619 72.2145 52.7564 72.3909 52.9076C72.5421 53.0462 72.8697 52.9769 72.8697 52.8887C72.8634 52.4666 73.3232 52.6052 73.4303 52.3595C73.865 51.4146 74.5957 50.6461 74.98 49.6571C75.339 48.7185 75.2634 47.6476 75.8052 46.7972C76.8068 45.2161 77.3485 43.4901 77.6131 41.6632C77.6698 41.2853 78.0414 41.0333 78.0288 40.6868C77.991 39.4333 78.4635 38.2994 78.9108 37.1907C80.0131 34.4316 81.4557 31.8552 83.0935 29.3795C83.5471 28.6929 84.0132 28.0189 84.5046 27.37C84.977 26.7401 85.5062 26.1605 86.0542 25.5999C86.1739 25.4802 86.4385 25.1841 86.6148 25.3794C86.8605 25.6503 86.4196 25.6944 86.3251 25.8645C86.2558 25.9968 86.1298 26.1038 86.029 26.2172C84.3786 28.1385 83.3392 30.4567 81.9407 32.5481C81.4431 33.2851 81.21 34.1733 80.9643 35.03C80.9139 35.0426 80.8887 35.0741 80.8887 35.1245C80.8698 35.1875 80.8446 35.2505 80.8257 35.3135C80.7816 35.408 80.7376 35.5025 80.6998 35.597C80.0257 37.2789 79.2509 38.9293 78.7092 40.6553C78.3123 41.9152 77.6383 43.0554 77.3107 44.3279C77.0083 45.5184 76.9832 46.7531 76.6871 47.9563C76.3658 49.254 76.2398 50.6146 76.1327 51.9501C76.1075 52.2588 76.1138 52.7564 76.6367 53.1848C76.3721 52.095 76.8194 51.2824 77.0398 50.4382C77.3863 49.1091 77.7265 47.7736 78.5454 46.6208C78.9485 46.0539 79.2005 45.424 79.2194 44.6995C79.2509 43.5845 79.5785 42.5389 80.0698 41.5436C80.3029 41.0648 80.5423 40.586 80.7565 40.0947C81.0399 39.4459 81.2226 38.7844 81.0021 38.0726C81.6699 37.6065 81.7203 36.7938 82.0856 36.1576C82.4132 35.7229 82.5833 35.219 82.7219 34.7025H82.7156C82.9108 34.5954 82.8856 34.3875 82.936 34.2174C82.9801 34.1922 82.999 34.1544 82.9864 34.104C83.988 32.2898 84.5361 30.274 85.7518 28.5354C86.7786 27.0614 87.6605 25.4865 88.8511 24.107C90.974 21.6565 93.3299 19.5462 96.4103 18.3556C96.9143 18.1604 97.4056 18.1037 97.9096 18.2233C101.5 19.0675 104.511 20.8628 106.855 23.7353C107.056 23.981 107.251 24.2581 107.598 24.3148C107.522 24.7747 107.812 25.0204 108.133 25.2534C108.159 25.3164 108.19 25.3731 108.215 25.4361C108.379 25.5558 108.543 25.6692 108.707 25.7889C108.776 26.4503 109.324 26.7905 109.689 27.2629C110.477 28.2771 111.346 29.2157 112.253 30.1228C112.814 30.6835 113.4 31.2126 114.332 30.9039C114.231 30.7465 114.156 30.5827 114.042 30.4504C112.984 29.2283 111.97 27.9685 110.716 26.9354C110.407 26.6771 110.042 26.4629 109.929 26.0283C110.048 26.0283 110.168 26.0283 110.288 26.0283C111.333 26.8661 112.411 27.6661 113.57 28.3338C113.015 26.7968 111.762 26.0094 110.477 25.2597C110.092 25.0141 109.702 24.7621 109.318 24.5164C108.222 23.8109 107.8 23.3699 107.655 22.7904C108.858 23.0361 109.689 24.0943 110.962 24.3274C110.905 23.8865 110.785 23.5526 110.464 23.351C108.663 22.2171 107.126 20.6486 104.965 20.1258C104.694 20.0628 104.511 19.8864 104.335 19.71C104.184 19.5588 104.127 19.3068 104.221 19.1494C104.335 18.973 104.53 19.1179 104.694 19.1935C105.576 19.6155 106.451 20.0376 107.346 20.4344C108.133 20.7872 108.87 21.2974 109.796 21.3478C109.072 20.3777 108.222 19.5714 107.069 19.1683C106.029 18.8029 105.047 18.3619 104.291 17.3666C105.481 17.1714 106.256 18.0092 107.214 18.2926C106.225 17.5241 105.343 16.5729 103.957 16.4973C102.414 16.4091 101.021 15.7036 99.5222 15.4012C100.94 15.1619 102.313 15.4768 103.831 15.7225C103.497 15.3445 103.308 15.08 102.974 14.9603C100.965 14.2548 98.886 14.28 96.8261 14.5319C94.9804 14.7587 93.3299 15.6973 91.5724 16.258C91.3771 16.3209 91.163 16.554 90.9677 16.2454C92.4102 15.3068 94.0544 14.7776 95.604 14.0532C97.078 13.3666 98.76 13.8768 100.266 13.2469C99.0623 12.9193 97.8466 12.8059 96.5867 12.8626C95.5284 12.9067 94.6906 13.5933 93.6701 13.7067C93.1536 13.7634 92.6811 13.9587 92.2087 14.154C91.2575 14.5571 90.3 14.9414 89.3362 15.3446C89.3173 15.1241 89.418 15.0359 89.5251 14.9792C90.3378 14.5508 91.1315 14.0658 91.9756 13.713C93.6386 13.0201 95.1693 11.9555 97.034 11.7791C97.204 11.798 97.3741 11.8232 97.519 11.6972C97.6765 11.6405 97.8781 11.7854 98.0166 11.5964C97.834 11.3256 97.6135 11.1492 97.2607 11.1618C96.3158 11.2059 95.4024 11.0484 94.4386 11.439C91.8181 12.5035 89.1598 13.4422 86.8668 15.1682C86.766 15.2438 86.5267 15.2942 86.4574 15.2375C86.3062 15.1052 86.4511 14.9981 86.5708 14.8847C88.1519 13.3918 89.9661 12.2516 91.9441 11.376C92.9016 10.9539 93.9284 10.746 94.9363 10.4563C94.2371 10.3051 93.5945 10.5885 92.9268 10.6704C90.3315 10.9728 88.0511 12.1634 85.7581 13.2658C83.6416 14.2863 81.9911 15.9934 80.2525 17.5115C78.6651 18.8974 77.1343 20.3966 75.8367 22.1101C74.1799 24.2959 72.4728 26.4503 71.1941 28.8882C70.3373 30.5197 69.3106 24.3148 68.5483 25.9842C68.0129 27.1622 67.679 28.4346 67.2255 29.6567C67.1058 29.9843 67.0239 30.5197 66.5136 30.3811C65.9656 30.2299 66.4822 29.8205 66.4696 29.5433C66.4192 28.3527 66.7719 27.1936 67.0176 26.0409C67.1499 25.4298 67.4649 24.8692 67.194 24.2141C67.1247 24.0503 67.0995 23.855 66.9231 23.8235C66.6963 23.7794 66.6585 23.9747 66.6081 24.1637C66.3877 24.97 66.1105 25.7637 65.9026 26.57C65.4491 28.3086 64.6931 29.9339 64.0695 31.6032C63.7419 32.4725 63.4837 33.4174 62.6711 34.0914C62.3498 33.3733 62.7718 32.8316 63.0301 32.3339C64.479 29.4866 65.4491 26.4881 66.0286 23.3573C66.205 22.3935 66.1735 21.4927 65.4239 20.6486C64.0443 25.4424 62.5199 30.1291 59.9623 34.482C59.4899 33.7387 59.9434 33.2662 60.1891 32.7497C60.8379 31.4205 61.7073 30.1481 62.0852 28.7433C62.5829 26.885 63.616 25.2471 64.0065 23.3447C64.2774 22.0408 64.3971 20.7053 64.775 19.4265C64.8506 19.1746 64.775 18.784 64.479 18.7273C64.1577 18.6643 64.2522 19.0549 64.1766 19.2439C64.0506 19.5462 63.9687 19.8675 63.8553 20.1762C63.7293 20.5226 63.5656 20.8376 63.1246 21.0203C63.3577 19.5273 63.6915 18.11 63.0994 16.5918C62.4002 18.1604 62.2238 19.773 61.449 21.1904C61.5183 19.2061 62.1923 17.2659 61.7388 15.2564C61.5057 15.9808 61.0206 16.554 60.7246 17.2344C59.8175 19.3195 59.093 21.4801 58.0536 23.5085C57.9655 23.6849 57.934 23.9747 57.6631 23.8487C57.4804 23.7668 57.5686 23.5337 57.6316 23.3573C58.0284 22.2612 58.4127 21.1589 58.8285 20.0691C59.2694 18.91 59.7545 17.7761 60.208 16.617C60.3277 16.3084 60.3844 15.9808 60.4537 15.6532C60.4915 15.4517 60.3718 15.2942 60.2017 15.2186C59.9497 15.1052 59.956 15.3572 59.8489 15.4769C59.2694 16.1131 59.03 16.9005 58.7088 17.6753C58.1922 18.9289 57.493 20.1069 56.8568 21.31C55.4835 23.9117 55.7544 34.4505 56.0315 37.2159C56.0882 37.8206 56.0831 38.9986 56.6815 38.312C56.4107 39.112 56.4032 38.564 56.2205 39.0994C55.8552 38.9041 56.0064 38.564 55.9056 38.312C54.4126 34.6143 52.5165 31.1181 50.5448 27.6535C49.5495 25.9086 48.2708 24.3715 47.181 22.7022C46.4251 21.5431 45.7132 20.3588 44.7305 19.3572C44.3022 18.9226 43.6533 18.7966 43.3636 18.1478C42.6958 16.6737 41.0958 16.1887 39.9997 15.1493C37.9587 13.2154 35.3004 12.3524 32.7618 11.3193C31.6657 10.872 30.5003 10.6515 29.272 10.8657C31.5145 11.6909 33.8453 12.3209 35.6343 14.0028C33.5051 13.2532 31.4137 12.4091 29.2783 11.6909C27.7727 11.187 25.5427 11.4012 24.2073 12.3713C25.612 12.3839 26.8719 12.3083 28.157 12.5035C29.5113 12.7114 30.5759 13.6248 31.9177 13.7193C33.3665 13.8201 34.0846 15.0422 35.0988 15.7918C36.1508 16.5729 37.0957 17.48 37.7005 18.7777C36.8942 18.4753 36.5036 17.8013 35.9052 17.3792C32.5665 15.0296 29.1712 12.8248 24.8057 13.3729C23.1742 13.5807 21.5049 13.7949 20.1379 14.8847C19.2119 15.6028 18.2796 16.3272 17.3536 17.0454C18.1599 16.9257 18.878 16.6548 19.6466 16.5414C19.7096 16.6044 19.7725 16.6674 19.8355 16.7304C19.1111 17.2533 18.204 17.4422 17.5237 18.047C17.4292 18.1163 17.3347 18.1856 17.2465 18.2549C16.2764 18.5698 15.5268 19.1368 15.0795 20.1825C16.5095 20.025 17.6056 18.8533 19.256 18.9541C17.7883 20.088 16.2638 20.7557 14.8339 21.5809C14.2291 21.9337 13.6685 22.3242 13.2401 22.8786C13.1582 22.9857 13.0134 23.0927 13.1456 23.2817C13.322 23.5337 13.4606 23.3195 13.5929 23.2502C14.4559 22.8093 15.2874 22.3053 16.2008 21.9652C16.226 21.9841 16.2575 21.9904 16.289 21.9904C16.2008 22.1164 16.1189 22.2424 16.0244 22.3557C14.9473 23.6282 13.5047 24.4219 12.1378 25.3164C11.722 25.5873 11.2495 25.833 11.1991 26.5322C12.3456 26.192 13.0386 25.1589 14.1724 24.9259C13.5803 25.6314 12.9945 26.3432 12.2826 26.8913C11.3629 27.6031 10.6763 28.5165 9.86999 29.3291C9.66841 29.537 9.7125 29.7953 9.7251 30.1543C11.1551 29.0267 12.585 28.0755 13.7315 26.7905C13.8134 26.7275 13.8953 26.6708 13.9835 26.6078C15.0417 25.5432 16.0748 24.4345 17.1772 23.414C18.1347 22.5321 18.9095 21.4486 20.0119 20.7242C21.4797 19.7604 22.9033 18.7147 24.7049 18.4249C24.7427 18.3997 24.7868 18.3745 24.8246 18.3493C26.5002 18.3241 28.1129 18.7147 29.4798 19.6344C31.6468 21.0896 33.6878 22.74 35.2374 24.8755C37.1902 27.5653 39.1052 30.2677 40.2643 33.4426C41.1966 36.0001 42.5069 38.4128 43.4203 40.9829C43.6281 41.5751 43.773 42.1924 43.9494 42.7971C43.8864 42.8223 43.8171 42.8412 43.7541 42.8664C42.9604 41.0585 42.0848 39.2884 41.2407 37.512C40.2265 35.3891 39.458 33.1906 37.9335 31.3008C36.3839 29.3858 34.828 27.4834 33.1838 25.6503C32.7492 25.1652 32.2641 24.7306 31.5712 24.6109C32.472 25.3542 33.2783 26.1668 33.9335 27.1495C35.0044 28.7433 36.1823 30.2551 36.9005 32.0567C37.1902 32.7875 37.5997 33.4804 37.6249 34.293C37.5241 34.2237 37.417 34.1544 37.3162 34.0851C36.8627 32.8064 36.0752 31.7103 35.2752 30.6457C34.6264 29.7764 33.8957 28.9889 33.0642 28.2519C32.3712 27.6409 31.735 26.8787 31.0862 26.1731C30.935 26.0094 30.8216 25.6629 30.5003 25.9779C30.2547 25.9779 30.3302 25.8393 30.3806 25.7133C30.0909 25.0393 29.379 24.8503 28.8814 24.4093C28.8814 24.4282 28.8751 24.4408 28.8688 24.4597C28.8562 24.4534 28.8373 24.4408 28.8247 24.4345C28.8499 24.4345 28.8688 24.4282 28.894 24.4219C28.9255 24.7495 29.7633 25.4739 30.3806 25.707L30.3617 25.6692ZM88.9897 40.1451C89.2858 39.8868 89.5944 39.6223 89.5503 39.175C89.5188 38.8537 89.7393 38.6837 89.9031 38.4758C89.922 38.0978 90.1929 37.8584 90.4008 37.5813C90.4952 37.4616 90.6842 37.2852 90.4763 37.1214C90.2181 36.9198 90.2055 37.26 90.1173 37.3545C89.8212 37.6695 89.733 38.06 89.8968 38.4821C89.1535 38.7403 89.2291 39.5404 88.87 40.0506C88.7944 40.1325 88.681 40.2081 88.7944 40.3467C88.8574 40.2837 88.9204 40.2207 88.9834 40.1577L88.9897 40.1451ZM33.7886 36.6364C33.8012 36.3781 33.5996 36.271 33.4484 36.1198C33.461 36.0757 33.4484 36.0442 33.4106 36.0253C32.7807 35.1686 32.3523 34.167 31.6342 33.367C31.546 33.2662 31.4263 32.989 31.2247 33.2032C31.1114 33.3229 31.0799 33.5119 31.2059 33.7009C31.3759 33.9465 31.5649 34.2048 31.6531 34.482C31.8988 35.2883 32.3145 36.0001 32.8122 36.6742C33.0705 37.1088 33.1901 37.6254 33.6185 37.9466C33.7256 38.1104 33.839 38.2742 33.9461 38.438C33.9272 38.8663 34.2673 39.1561 34.3681 39.553C34.8028 41.2538 35.4579 42.8916 36.1508 44.498C36.5477 45.4114 36.8375 46.3437 37.0327 47.3138C36.8627 47.5279 36.7682 47.7484 37.0012 47.9752C37.2217 48.1894 37.1587 48.4288 37.0894 48.6744C37.1335 48.8193 37.1587 48.9768 37.228 49.1154C37.7887 50.2493 38.3241 51.3894 38.2674 52.7123C38.2548 53.0651 38.5068 53.1785 38.8784 53.147C38.7273 51.969 38.5509 50.8099 38.4438 49.6508C38.3682 48.7689 38.0847 47.9626 37.7635 47.15C37.4863 46.4571 37.2154 45.6948 37.2154 44.9641C37.2154 44.3027 37.0579 43.7357 36.7556 43.2192C36.4028 42.6208 36.1445 42.0034 35.8989 41.3609C35.2815 39.7419 34.6642 38.1167 33.7949 36.6112L33.7823 36.6301L33.7886 36.6364ZM92.2716 27.3637C92.2087 27.3763 92.1394 27.3826 92.0764 27.3952C91.6291 27.7858 91.0433 28.1133 91.4905 29.033C91.6732 28.2708 92.2654 28.0063 92.7189 27.6094C93.3236 27.074 93.9473 26.5574 94.5394 26.0031C94.993 25.581 95.7048 25.5306 96.0009 24.9133C95.9883 24.8944 95.9757 24.8755 95.9694 24.8566C95.9946 24.8692 96.0261 24.8755 96.0513 24.8881C96.0324 24.8944 96.0135 24.907 95.9883 24.9133C95.4843 24.9259 95.0749 25.1715 94.678 25.4424C93.8276 26.0283 93.0213 26.6645 92.2465 27.3511L92.2716 27.3637ZM83.9817 43.7798C84.2022 43.5341 84.0951 43.2381 84.0951 42.9609L84.2148 42.583C84.3534 41.5247 84.8888 40.5987 85.1786 39.5908C85.3928 39.5215 85.3739 39.3073 85.4495 39.1561C86.0542 37.8836 86.5204 36.523 87.27 35.3387C88.1834 33.9087 88.5676 32.2331 89.5566 30.8473C88.7566 31.6095 87.7487 32.0945 87.2322 33.1843C86.8164 34.0536 86.6589 35.0489 86.0164 35.7986C85.5566 36.334 85.2857 36.9513 85.04 37.5939C84.6684 38.4128 84.2967 39.2254 83.9313 40.0443C83.8368 40.3341 83.7549 40.6239 83.6416 40.9073C82.7659 43.0869 82.2494 45.361 81.7644 47.6476C81.5691 47.9059 81.3675 48.1957 81.4809 48.5232C81.5376 48.687 81.5439 48.9768 81.8462 48.9894C82.1486 49.002 82.2116 48.8004 82.2431 48.561C83.0368 47.4397 83.0683 46.0728 83.4463 44.8129C83.4778 44.6932 83.4652 44.5924 83.3329 44.5358C83.3392 44.4728 83.3518 44.4098 83.3581 44.3531C83.8242 44.435 83.8368 44.0255 83.9817 43.7672V43.7798ZM34.3744 57.04C35.313 57.1849 36.239 57.1219 37.1587 56.8636C38.2611 56.9518 39.332 57.3108 40.4785 57.0967C41.625 56.8825 42.7966 57.1723 43.9683 57.1345C45.0203 57.0967 46.1164 57.084 47.1747 57.2793C47.3259 57.3045 47.603 57.2478 47.6156 57.4809C47.6282 57.7392 47.3763 57.7644 47.1747 57.7833C47.0487 57.7959 46.9164 57.7833 46.7904 57.8022C45.8329 57.9786 44.8565 57.6573 43.9053 57.8652C41.8202 58.325 39.6785 58.029 37.5934 58.3943C36.9823 58.2054 36.3839 58.4132 35.7792 58.4573C35.3634 58.5077 34.9414 58.5581 34.5256 58.6085C33.6815 58.2494 33.1649 58.8731 32.5728 59.3329H34.3429C35.187 59.3833 36.0311 59.4274 36.8816 59.4778C37.1209 59.4778 37.3603 59.4778 37.5997 59.4715C39.0485 59.5345 40.51 59.2699 41.9525 59.6479C42.1667 59.7046 42.488 59.6416 42.4691 59.9629C42.4502 60.2526 42.1415 60.2148 41.9273 60.2337C41.7006 60.2526 41.4612 60.2022 41.2344 60.24C39.8296 60.4794 38.3997 60.3786 36.9949 60.555C35.9304 60.6873 34.8595 60.8385 33.7886 60.8826C33.1901 60.9078 32.787 61.0716 32.5413 61.6574C33.0516 61.7393 33.5429 61.7015 34.0469 61.6889C34.891 61.6637 35.7288 61.418 36.5792 61.5944C36.9005 61.6637 37.1965 61.8464 37.5493 61.8023C39.9493 61.5188 42.3557 61.8653 44.7557 61.859C47.1306 61.859 49.518 61.922 51.8929 61.9976C52.1512 62.0039 52.4472 61.9157 52.5921 62.2621C52.3653 62.4763 52.1134 62.5708 51.8236 62.5645C50.7149 62.5267 49.6188 62.659 48.5164 62.7031C47.1117 62.7661 45.7006 62.722 44.2896 62.722C44.1321 62.5267 43.9683 62.5897 43.7982 62.7031L42.8722 62.7535C42.7651 62.7535 42.6581 62.7661 42.5447 62.7724C41.5053 62.5141 40.5415 63.1188 39.5021 63.0495C39.0926 63.0243 38.6706 62.8732 38.2296 63.0244C37.0453 63.4275 35.754 63.1692 34.5697 63.5913C34.4563 63.6354 34.387 63.6039 34.2988 63.5472C33.9335 63.3204 33.5681 63.4149 33.1523 63.5787C33.4232 63.8307 33.587 64.0259 34.0217 64.0763C34.513 64.133 35.0107 63.7929 35.3256 63.9441C36.428 64.4732 37.5997 64.2842 38.7273 64.4102C39.647 64.511 40.5982 64.3472 41.5305 64.3094C41.984 64.2905 42.4061 64.3976 42.784 64.6181C41.3667 65.4118 39.8233 65.4748 38.2737 65.4874C37.9461 65.4874 37.543 65.7142 37.3036 65.5882C36.1256 64.9582 35.3886 65.9661 34.4563 66.1992C35.8674 66.2496 37.2721 66.2811 38.6706 66.237C40.0942 66.1929 41.499 66.3819 42.9163 66.426C44.0376 66.4575 45.1652 66.3567 46.2865 66.3315C48.6865 66.2685 51.0992 66.3567 53.4992 66.1803C55.2756 66.0543 57.0268 66.3819 58.797 66.2937C61.4175 66.1677 64.038 66.3252 66.6522 66.3063C68.4223 66.2937 70.1925 66.4323 71.9626 66.2622C73.1658 66.2622 74.3626 66.2622 75.5658 66.2622C75.9627 66.3126 76.3595 66.3819 76.7186 66.111C76.7501 66.1299 76.7879 66.1362 76.8194 66.1362C77.7013 66.5205 78.6021 66.1488 79.4903 66.1866C79.6352 66.2055 79.7801 66.2244 79.9186 66.2433C80.221 66.2055 80.5927 66.4323 80.8068 66.0291H80.8131C81.588 66.2055 82.3817 65.985 83.1313 66.0417C84.9392 66.1803 86.7345 66.1677 88.5235 65.9409C88.9393 65.8905 89.4496 66.1425 89.9031 65.7079C88.5676 65.4433 87.3078 65.3803 86.0416 65.374C84.9833 65.3677 83.9313 65.3614 82.873 65.2102C81.3108 64.9835 79.7297 65.2669 78.1548 65.1787C77.8525 65.1598 77.6068 65.1787 77.443 64.8953C77.4682 64.8638 77.4745 64.8323 77.4619 64.8008C77.6257 64.7 77.7454 64.5614 77.991 64.574C79.4399 64.637 80.8447 64.1897 82.2935 64.1582C84.1329 64.1204 85.9723 63.8433 87.818 64.1141C88.3472 64.1141 88.8826 64.1015 89.4118 64.0952C89.6763 64.0952 89.8212 63.9063 89.9031 63.6984C89.922 63.648 89.8716 63.3393 89.67 63.3708C88.9708 63.4779 88.3787 62.9236 87.6794 63.0936C85.5503 63.0558 83.4274 62.9488 81.1533 62.7094C81.4935 62.4511 81.4116 62.0668 81.6762 62.029C82.3439 61.922 82.9549 61.5818 83.692 61.733C84.0762 61.8086 84.5298 61.8401 84.9581 61.7897C86.029 61.6574 87.0873 61.4117 88.196 61.5503C88.744 61.6196 89.3488 61.4684 89.9409 61.2227C88.9897 60.6369 87.9881 60.9834 87.0369 60.7944C84.4731 60.2778 81.8336 60.4227 79.2194 60.3345C78.9926 60.3282 78.7596 60.366 78.5328 60.3849C77.1721 60.4983 75.8745 60.177 74.5642 59.8054C75.6351 59.6794 76.6682 59.2825 77.758 59.44C78.0918 59.4904 78.4194 59.5534 78.7218 59.3455C79.8242 59.0998 80.9328 59.2132 82.0352 59.3455C82.6463 59.5723 83.2447 59.2699 83.8557 59.2762C84.9518 59.2888 86.0416 58.9802 87.1566 59.3455C87.5723 59.4841 88.07 59.3329 88.5299 59.3455C88.8007 59.3518 88.933 59.1691 88.9456 58.9928C88.9645 58.766 88.7314 58.7912 88.5487 58.7534C87.8999 58.6337 87.2322 58.7723 86.6022 58.6337C84.9518 58.2746 83.2636 58.4573 81.6069 58.2494C80.8572 58.1486 80.1139 58.0542 79.3643 57.9534C78.8352 57.7455 78.1548 58.1864 77.7328 57.5439C78.1233 57.3171 78.5076 57.1722 79.0052 57.2226C79.5785 57.2793 80.1706 57.2479 80.7439 57.1786C82.4762 56.9644 84.2085 57.0841 85.9408 57.1156C87.3078 57.1471 88.6936 57.1848 90.0417 56.5927C89.185 56.2399 87.8306 56.1203 86.9361 56.3218C86.8164 56.347 86.703 56.4478 86.577 56.3848C85.481 55.8557 84.3345 55.9943 83.188 56.1391C82.7722 56.1391 82.3565 56.1266 81.947 56.1203C81.6258 56.1077 81.3108 56.1014 80.9895 56.0888C80.9454 56.0699 80.9013 56.0699 80.8572 56.0888C80.0761 55.9943 79.295 55.8998 78.5139 55.799C78.0099 55.9691 77.4997 55.862 76.9894 55.8305C74.4193 55.6793 71.8366 55.7423 69.2791 55.862C66.7089 55.9817 64.1514 55.8053 61.5939 55.7801C60.8442 55.7738 60.1135 55.9565 59.3702 55.9439C57.3985 55.9124 55.4331 55.8242 53.4614 55.9124C51.4141 56.0006 49.3668 56.1392 47.3133 56.0132C45.7825 55.9187 44.2266 55.8053 42.7084 55.9502C41.0265 56.1077 39.3572 56.3155 37.6627 56.2651C37.4296 56.2589 37.1965 56.2777 37.0453 56.4919C36.0626 56.2777 35.1429 56.5486 34.2358 56.8825C33.7004 56.8258 33.1901 56.977 32.4657 57.0652C33.2657 57.3675 33.8327 57.3486 34.3807 57.0274L34.3744 57.04ZM90.785 26.1983C90.048 26.8976 89.3173 27.4456 88.7818 28.1889C88.5173 28.5543 88.2779 28.9575 88.0322 29.3039C87.5723 29.9402 87.0369 30.5575 86.5141 31.1622C85.5692 32.2457 85.0526 33.5686 84.492 34.8473C84.1014 35.7419 83.3392 36.334 82.9171 37.1592C82.388 38.1986 81.9533 39.2884 81.525 40.3782C80.6179 42.6837 80.0194 45.0775 79.5092 47.4838C79.2572 48.6744 79.2761 49.9217 78.7281 51.0619C78.5958 51.3327 78.5328 51.7989 78.7722 52.1265C79.0493 52.1328 79.043 51.9312 79.0871 51.8052C79.5659 50.4131 80.2021 49.0965 80.4919 47.6224C80.9706 45.2035 82.1801 43.005 82.8226 40.6239C83.0368 39.8238 83.6101 39.2254 83.8809 38.4569C84.4479 36.8254 84.9833 35.1749 85.9345 33.7072C86.5203 32.8064 86.9298 31.7922 87.5157 30.9228C87.9251 30.3118 87.9377 29.4488 88.7566 29.0519C89.2039 28.8315 89.5188 28.3023 89.8968 27.9244C90.3063 27.5149 90.7724 26.9921 90.7913 26.2046L90.785 26.1983ZM7.56443 48.6114C8.11247 47.4461 8.17547 46.3059 8.14397 45.1468C8.11877 44.3027 6.49354 43.068 5.54234 43.5845C4.37696 44.2208 3.28718 45.9027 3.50766 47.2004C3.61474 47.8492 3.68404 48.5988 4.54075 48.8319C4.69193 48.0256 4.52815 47.1941 4.9439 46.4193C5.52344 47.2256 5.37226 48.1957 5.69352 49.1973C6.31716 48.076 6.31716 46.9358 6.8778 45.7578C7.14237 46.8098 6.97859 47.761 7.57073 48.6114H7.56443ZM115.97 48.7752C116.159 47.9185 116.398 47.1122 116.354 46.1925C116.323 45.5751 116.058 44.983 116.152 44.372C116.26 43.7042 115.693 43.4649 115.365 43.5279C114.691 43.6601 113.929 43.7483 113.431 44.3594C112.524 45.4681 111.989 46.6649 112.499 48.1327C112.568 48.3406 112.493 48.6744 112.782 48.6429C113.072 48.6114 113.041 48.2776 113.078 48.0193C113.16 47.3768 113.293 46.7405 113.419 46.0035C113.652 46.3248 113.696 46.5893 113.752 46.8539C113.904 47.5531 114.061 48.2461 114.237 48.939C114.269 49.0587 114.256 49.2981 114.483 49.2477C114.653 49.2162 114.678 49.0524 114.685 48.8823C114.716 47.8744 115.195 46.9295 115.037 45.8901C115.85 46.709 115.793 47.7673 115.963 48.7689L115.97 48.7752ZM92.4984 30.3496C92.2906 30.274 92.1457 30.4504 91.9378 30.6331C91.5787 30.9543 91.4401 31.4079 91.1378 31.7481C89.6826 33.3922 88.8196 35.4206 87.6164 37.2285C87.0873 38.0159 86.8983 39.0112 86.407 39.849C85.8022 40.8821 85.6699 42.0853 85.292 43.194C84.6936 44.9515 84.3849 46.8098 83.9565 48.6303C83.9124 48.813 83.9439 49.0083 84.1707 49.0524C84.4668 49.1154 84.303 48.876 84.3408 48.7626C84.9707 47.0114 85.4117 45.1972 86.1928 43.4964C86.3125 43.2381 86.6148 42.942 86.2117 42.6271C85.9345 42.4129 86.2873 42.1924 86.344 42.1924C86.6778 42.1861 86.703 41.8963 86.7282 41.7262C87.0432 39.742 87.9314 37.9466 88.8322 36.208C89.7204 34.4946 90.5834 32.7182 91.9756 31.2945C92.2213 31.0425 92.5614 30.7465 92.4795 30.3118C92.4291 30.0535 92.3913 29.8142 92.7189 29.7953C92.9016 29.7827 93.1788 29.8772 93.1347 30.1417C93.0843 30.4441 92.8386 30.4441 92.5047 30.3307L92.4984 30.3496ZM117.633 48.5484C118.496 47.2319 118.307 44.668 117.318 44.2775C117.129 45.72 117.11 47.1878 117.633 48.5484ZM88.1141 42.1357C87.7802 44.1893 86.9424 46.0287 86.7975 48.0382C87.1314 47.7736 87.27 47.4272 87.3204 47.0177C87.3771 46.5893 87.3897 46.1232 87.5723 45.7515C87.9503 44.9767 88.1645 44.1452 88.4921 43.3515C88.681 42.8979 88.6117 42.5011 88.1141 42.1294V42.1357ZM8.71091 48.8193C9.39754 47.7232 10.1283 46.646 9.54872 45.2854C9.45423 45.0649 9.42904 44.8066 9.14557 44.8444C8.86839 44.8822 9.03848 45.1279 9.01958 45.2854C8.91249 46.4634 8.8117 47.6413 8.71091 48.8193ZM35.2626 47.0492C35.0799 47.2508 35.187 47.4461 35.2374 47.5279C35.691 48.2083 35.8107 48.9201 35.6154 49.7138C35.5587 49.9406 35.5524 50.2304 35.7288 50.4508C36.1067 50.9296 36.1634 51.465 36.0563 52.0509C36.0248 52.2147 35.9744 52.4225 36.1508 52.5548C36.2768 52.6493 36.3965 52.5611 36.491 52.4666C36.6359 52.3092 36.6548 52.1328 36.6296 51.906C36.5981 51.6162 36.3461 51.5028 36.2705 51.2257C36.0752 50.5012 36.2705 49.7579 36.0815 49.0524C35.9052 48.3595 35.8674 47.5972 35.2689 47.0555L35.2626 47.0492ZM34.8154 45.972C34.9036 44.4791 34.4311 43.1058 33.8327 41.6506C33.6122 43.2948 34.2925 44.605 34.8154 45.972ZM9.16446 32.8064C9.7188 31.9748 10.7771 31.5339 10.9157 30.526C10.5314 30.4504 10.7204 31.1685 10.3676 31.0551C9.87629 30.8977 9.81959 31.2756 9.59282 31.4646C9.18336 31.8048 9.39754 32.3843 9.16446 32.8064ZM113.519 32.5229C113.979 33.2158 114.244 34.0725 115.239 34.6143C114.924 33.5182 114.111 33.1024 113.519 32.5229ZM86.6337 51.0115C86.6337 50.8036 86.8479 50.4823 86.5078 50.4319C86.1109 50.3689 86.3125 50.7406 86.2558 50.9233C86.2117 51.0682 86.1865 51.2194 86.1109 51.3454C85.8715 51.7485 86.3629 51.8367 86.4259 52.1013C86.4574 52.221 86.5644 52.265 86.6526 52.1832C86.8668 51.9879 86.6967 51.7548 86.6904 51.5343C86.6904 51.3579 86.6463 51.1816 86.6274 51.0052L86.6337 51.0115ZM92.8008 32.9009C92.4354 33.4678 92.0701 34.041 91.711 34.608C92.3661 34.23 92.8197 33.7135 92.8008 32.9009ZM92.4354 25.5936C92.952 25.3416 93.3488 25.077 93.8276 25.014C93.9284 25.0014 94.0607 24.8755 93.941 24.718C93.8717 24.6298 93.8213 24.4282 93.6701 24.5857C93.3299 24.9448 92.7063 24.9259 92.4417 25.5873L92.4354 25.5936ZM33.2153 40.6617C33.2468 39.7734 33.0075 39.5278 32.4279 39.7545C32.6169 40.1199 33.2783 40.0569 33.2153 40.6617ZM83.9187 50.2745C83.9628 50.4445 84.114 50.4193 84.2211 50.4382C84.5109 50.4949 84.4416 50.2052 84.4983 50.0792C84.5739 49.9154 84.3849 49.8902 84.2652 49.9091C84.0636 49.9406 84.0006 50.1233 83.9124 50.2745H83.9187ZM84.4983 49.6067C84.4731 49.6382 84.4479 49.6697 84.4227 49.7075C84.4227 49.7075 84.4542 49.7579 84.4668 49.7516C84.5046 49.739 84.5424 49.7201 84.5802 49.7012C84.5487 49.6697 84.5235 49.6382 84.492 49.6067H84.4983Z" fill="#750000"/>
<path id="Vector_2" d="M83.0117 26.4053C79.4652 31.6967 77.21 37.5866 74.9107 43.5143C74.4509 43.1301 74.5769 42.7962 74.6651 42.4938C75.0997 41.0072 75.5974 39.5331 75.9879 38.0339C76.4415 36.3016 77.5439 34.8716 78.1108 33.196C78.3565 32.4653 78.8982 31.8479 78.9171 31.029C78.9171 30.8904 79.0053 30.7203 79.1124 30.6321C80.2526 29.6242 80.9959 28.3203 81.8589 27.0982C82.1235 26.7202 82.4763 26.4431 83.0117 26.4116V26.4053Z" fill="#750000"/>
<path id="Vector_3" d="M39.6157 19.1553C39.7543 19.275 39.874 19.3695 39.9748 19.4765C40.926 20.4089 41.852 21.3286 42.5386 22.5128C43.4016 24.0058 44.4473 25.3979 45.4552 26.809C46.0662 27.672 46.5135 28.6232 46.9418 29.5744C47.2883 30.3366 47.6096 31.1115 47.9875 31.8611C48.1135 32.1068 48.2458 32.4469 47.9623 32.6107C47.6978 32.7619 47.534 32.4343 47.3576 32.2579C46.8348 31.7225 46.7025 30.9918 46.4253 30.3429C45.1591 27.4326 43.389 24.8499 41.4803 22.3364C40.8126 21.4608 40.0693 20.6545 39.37 19.8104C39.2755 19.697 39.0929 19.6025 39.2377 19.4324C39.3259 19.3254 39.4771 19.2561 39.622 19.1616L39.6157 19.1553Z" fill="#750000"/>
<path id="Vector_4" d="M41.9338 18.6895C43.1559 19.4202 43.9874 20.5604 44.7307 21.6942C46.0032 23.6344 47.6473 25.3164 48.6237 27.4644C48.9135 28.107 49.5371 28.5605 49.6505 29.3731C49.7198 29.8645 49.6505 30.2992 49.6442 30.7527C49.1466 30.7968 49.2474 30.3811 49.1592 30.1669C48.4915 28.5731 47.6977 27.0487 46.7024 25.6502C45.3733 23.7793 44.315 21.7068 42.5638 20.1446C42.1984 19.8233 41.9086 19.4202 41.9023 18.891C41.9149 18.8217 41.9275 18.7587 41.9401 18.6895H41.9338Z" fill="#750000"/>
<path id="Vector_5" d="M75.3078 33.6442C75.8936 32.4411 76.3283 31.1245 77.1094 30.0662C78.1173 28.693 78.9614 27.1874 80.215 25.9968C80.637 25.5937 80.9961 25.1212 81.5063 24.7559C80.6622 26.1102 79.8118 27.4646 78.9677 28.8189C78.7913 28.9701 78.8921 29.2914 78.6086 29.3733C77.0842 31.5088 76.2527 34.0222 74.8542 36.2207C74.7282 36.4222 74.6589 36.8254 74.3881 36.7057C74.0794 36.5734 74.281 36.227 74.3503 35.9561C74.4889 35.3955 74.8416 34.9482 75.0684 34.4317C75.1818 34.1797 75.396 33.9592 75.3078 33.6505V33.6442Z" fill="#750000"/>
<path id="Vector_6" d="M71.5659 37.3542C72.1139 35.4329 72.8446 33.7447 73.3675 31.9998C73.8651 30.3557 75.2006 29.3667 76.0006 27.9745C76.4227 27.2438 76.9581 26.5886 77.4369 25.8957C77.5943 25.6689 77.6762 25.3918 78.0101 25.2217C78.2117 25.8642 77.8211 26.2989 77.5439 26.7335C76.7502 27.9745 75.925 29.1966 75.1061 30.4186C74.0037 32.0691 73.3234 33.9148 72.6431 35.7605C72.4352 36.3274 72.2714 36.9322 71.5596 37.3605L71.5659 37.3542Z" fill="#750000"/>
<path id="Vector_7" d="M28.3836 15.4825C27.3065 15.0856 26.1852 15.0352 25.0576 15.0163C24.4213 15.0037 23.7914 15.0163 23.0481 15.0163C25.3915 13.4478 31.3506 14.9281 33.99 17.7754C32.8877 17.9392 32.0939 17.303 31.3632 16.7864C30.7522 16.3518 30.1286 16.0242 29.4419 15.7722C29.1333 15.5014 28.6734 15.8037 28.3836 15.4888V15.4825Z" fill="#750000"/>
<path id="Vector_8" d="M76.6494 23.6408C77.0715 22.6518 77.8778 21.9463 78.5518 21.1588C80.1455 19.2942 81.6448 17.3414 83.6543 15.8674C84.1519 15.502 84.6559 15.3319 85.3866 15.1934C84.8386 15.8674 84.2275 16.2643 83.711 16.7556C82.2054 18.1793 80.5802 19.4769 79.3329 21.1588C78.4069 21.9715 77.7896 23.0676 76.7943 23.8109C76.7439 23.7542 76.6998 23.6975 76.6494 23.6345V23.6408Z" fill="#750000"/>
<path id="Vector_9" d="M87.6294 16.5224C86.8608 17.3161 85.9222 17.8893 85.0466 18.5445C83.623 19.6154 82.4576 20.9382 81.2166 22.1918C80.656 22.7587 80.3158 23.6973 79.0938 23.6595C80.0764 22.6012 80.7442 21.4737 81.7206 20.5854C83.182 19.2563 84.5616 17.8326 86.2687 16.8058C86.6215 16.5917 87.0624 16.5224 87.4656 16.3838L87.6231 16.5161L87.6294 16.5224Z" fill="#750000"/>
<path id="Vector_10" d="M45.4801 32.6365C46.362 34.3058 46.7715 36.1578 47.6156 37.8523C47.1242 37.783 46.9415 37.4807 46.8219 37.1531C46.1541 35.3452 45.0391 33.7704 44.2328 32.038C43.7793 31.0742 43.4202 30.06 43.0171 29.071C42.9352 28.8632 42.7525 28.6175 43.0863 28.4915C43.3509 28.397 43.4265 28.6616 43.5084 28.838C43.962 29.7514 44.4218 30.6585 44.8376 31.5845C44.9887 31.9121 45.1462 32.227 45.3604 32.5168C45.3982 32.5546 45.436 32.5987 45.4738 32.6365H45.4801Z" fill="#750000"/>
<path id="Vector_11" d="M37.5999 20.4404C38.5511 21.6373 39.7291 22.6326 40.5858 23.9113C41.3291 25.0263 41.8204 26.2799 42.4504 27.4768C40.2456 25.1271 38.6141 22.2924 36.1384 20.0624C36.7873 19.8609 37.0833 20.3585 37.5117 20.4152C37.5432 20.4341 37.5747 20.4404 37.6062 20.4341L37.5999 20.4404Z" fill="#750000"/>
<path id="Vector_12" d="M82.6716 23.4773C84.2402 21.3103 86.1741 19.5087 88.2591 17.8582C88.7946 17.4362 89.1977 16.718 90.067 16.907C90.1363 16.9196 90.1993 16.9511 90.4135 17.0204C87.7867 19.2252 85.0465 21.1654 82.7976 23.6473C82.7535 23.5906 82.7157 23.5339 82.6716 23.4836V23.4773Z" fill="#750000"/>
<path id="Vector_13" d="M58.5187 42.7373C59.7822 40.8112 60.6264 38.7744 61.2971 36.6919C61.4679 36.1578 61.9248 35.6001 61.4852 35.0726C61.4522 35.0296 61.4057 34.9983 61.2787 34.8772C60.3308 37.5495 59.637 40.1975 58.338 42.7163C58.3989 42.7248 58.4578 42.7289 58.5136 42.7398L58.5187 42.7373Z" fill="#750000"/>
<path id="Vector_14" d="M91.6608 18.8914C90.5836 19.83 89.6387 21.071 88.3914 21.6316C86.7473 22.3749 85.878 23.7986 84.6307 24.8821C84.574 24.9325 84.5173 24.9892 84.448 25.0207C84.4102 25.0396 84.3535 25.0144 84.1016 24.9829C86.0922 22.2994 88.3977 20.2017 91.3647 18.8662C91.4592 18.8725 91.56 18.8851 91.6545 18.8914H91.6608Z" fill="#750000"/>
<path id="Vector_15" d="M37.0012 24.1572C39.1619 26.1415 41.184 28.2203 41.6816 31.3133C40.0501 28.9762 38.6579 26.4817 37.0012 24.1572Z" fill="#750000"/>
<path id="Vector_16" d="M29.2471 17.3601C30.2802 17.9145 31.4141 18.3491 32.3275 19.061C33.537 19.9996 34.8725 20.8626 35.578 22.324C35.6536 22.4878 35.6221 22.6642 35.5213 22.7524C35.389 22.8658 35.2315 22.7524 35.1244 22.6327C34.715 22.1791 34.3307 21.7004 33.9024 21.2657C32.5669 19.9114 31.1873 18.6074 29.3416 17.946C29.1904 17.8893 29.0708 17.7444 28.9385 17.6436C28.9385 17.4294 29.0456 17.3476 29.2471 17.3539V17.3601Z" fill="#750000"/>
<path id="Vector_17" d="M61.1258 25.8877C60.1494 28.4389 59.3305 31.0469 58.1084 33.4973C58.0265 33.6674 57.9635 33.9572 57.699 33.8312C57.447 33.7115 57.4974 33.4973 57.6234 33.2516C58.3793 31.7776 58.8833 30.1839 59.7652 28.7665C59.9919 28.4011 60.0801 27.9665 60.1431 27.5318C60.2376 26.8641 60.4392 26.2405 61.1321 25.8877H61.1258Z" fill="#750000"/>
<path id="Vector_18" d="M53.6946 44.1198C53.4175 42.0788 52.4852 40.3087 51.9497 38.2803C52.8379 38.8346 53.2033 39.5968 53.5056 40.3968C53.9466 41.5811 54.545 42.7591 53.6946 44.1198Z" fill="#750000"/>
<path id="Vector_19" d="M50.6897 39.6727C50.0157 38.5451 49.3731 37.638 49.1967 36.4663C49.0897 35.7608 48.8251 35.0867 48.655 34.3875C48.6172 34.2237 48.3904 33.997 48.6802 33.8584C48.9574 33.7324 49.1275 33.934 49.2282 34.1418C49.3794 34.4379 49.5873 34.7466 49.5999 35.0615C49.6629 36.3655 50.3747 37.4742 50.6519 38.7152C50.7086 38.9671 50.7716 39.2128 50.6897 39.6664V39.6727Z" fill="#750000"/>
<path id="Vector_20" d="M75.906 25.3418C74.6587 27.2379 73.3611 29.1214 71.8303 30.8285C71.95 29.6065 73.443 27.5277 75.906 25.3418Z" fill="#750000"/>
<path id="Vector_21" d="M74.0228 38.4562C73.7268 39.8484 73.0653 41.1146 72.6622 42.4689C72.6055 42.6642 72.5866 42.8784 72.4984 43.0548C72.3976 43.2563 72.385 43.6784 72.0763 43.5587C71.7866 43.4453 72.0385 43.1807 72.1519 42.9918C72.2464 42.8217 72.2149 42.6516 72.1582 42.4752C72.1204 42.3555 72.0448 42.1792 72.0952 42.1099C73.1094 40.7303 72.7881 38.8468 73.8464 37.4798C73.859 37.4609 73.8968 37.4672 73.9157 37.4609C74.0291 37.7885 74.0606 38.1224 74.0291 38.4625L74.0228 38.4562Z" fill="#750000"/>
<path id="Vector_22" d="M65.7426 33.5832C65.4465 34.9754 64.785 36.2415 64.3819 37.5959C64.3252 37.7912 64.3063 38.0053 64.2181 38.1817C64.1173 38.3833 64.1047 38.8053 63.796 38.6857C63.5063 38.5723 63.7583 38.3077 63.8716 38.1187C63.9661 37.9486 63.9346 37.7786 63.8779 37.6022C63.8401 37.4825 63.7646 37.3061 63.8149 37.2368C64.8291 35.8573 64.5079 33.9737 65.5662 32.6068C65.5788 32.5879 65.6166 32.5942 65.6355 32.5879C65.7488 32.9155 65.7803 33.2493 65.7488 33.5895L65.7426 33.5832Z" fill="#750000"/>
<path id="Vector_23" d="M97.3931 17.4421C99.0876 16.302 100.499 16.8059 101.91 17.4862C102.149 17.5996 102.275 17.7949 102.237 18.0217C102.212 18.1792 101.966 18.1477 101.84 18.1288C100.429 17.8957 99.0498 17.4799 97.3994 17.4484L97.3931 17.4421Z" fill="#750000"/>
<path id="Vector_24" d="M49.077 44.5855C48.5605 42.8406 48.0691 41.2028 47.5652 39.502C48.9447 40.7366 49.8329 43.5524 49.077 44.5855Z" fill="#750000"/>
<path id="Vector_25" d="M69.9027 44.0377C69.5626 43.3952 69.8775 42.7842 69.9342 42.1794C70.0287 41.0581 70.5579 40.0377 70.9169 38.9731C70.9673 38.8219 71.0177 38.5636 71.2508 38.6203C71.4461 38.6707 71.4587 38.8975 71.4587 39.0802C71.4587 39.288 71.5154 39.5211 71.4272 39.6912C70.728 41.0708 70.35 42.5511 69.909 44.0377H69.9027Z" fill="#750000"/>
<path id="Vector_26" d="M39.4202 37.4297C40.5855 39.1431 41.3604 41.0203 41.7131 43.0739C40.68 41.3038 39.8485 39.4518 39.4202 37.4297Z" fill="#750000"/>
<path id="Vector_27" d="M46.4502 42.9734C45.4801 41.8458 44.9194 40.504 44.3147 39.0993C45.1651 39.0804 45.4927 39.4772 45.6879 40.0946C45.984 41.0269 46.3305 41.9466 46.658 42.8726C46.5888 42.9041 46.5195 42.9419 46.4502 42.9734Z" fill="#750000"/>
<path id="Vector_28" d="M43.578 34.35C43.8048 35.1752 44.3654 35.8303 44.7308 36.5863C44.8505 36.8319 45.0017 37.1595 44.8127 37.2792C44.5292 37.4619 44.3339 37.1406 44.1827 36.9075C43.452 35.7862 42.6646 34.6902 42.5134 33.2539C43.2442 33.2539 43.1686 34.0539 43.578 34.3563V34.35Z" fill="#750000"/>
<path id="Vector_29" d="M55.3019 36.9003C55.7869 37.6054 55.9267 38.4563 56.2694 39.2228C56.3801 39.4726 56.5332 39.7992 56.7465 39.7318C57.0688 39.6328 56.949 39.2764 56.8682 39.0106C56.4815 37.7293 56.1506 36.4209 55.1497 35.3799C54.6788 35.9387 55.3394 36.3964 55.3068 36.9043L55.3019 36.9003Z" fill="#750000"/>
<path id="Vector_30" d="M67.9751 41.7578C67.7799 41.6129 67.7295 41.4491 67.7673 41.3042C68.0255 40.2711 68.3027 39.2443 68.75 38.2742C68.8381 38.0852 69.0082 37.9152 69.2224 37.9341C69.3736 37.9467 69.4618 38.1545 69.4177 38.3057C69.0775 39.5089 68.8318 40.7625 67.9751 41.7578Z" fill="#750000"/>
<path id="Vector_31" d="M50.7529 32.6177C51.0174 33.0838 51.2694 33.5563 51.5592 34.0035C51.9246 34.5768 51.8931 35.15 51.6411 35.8303C50.9733 34.4823 50.3371 33.1972 49.6946 31.9058C49.9781 31.7672 50.1166 32.0318 50.3182 32.0948C50.3812 32.12 50.4379 32.1515 50.5009 32.1767C50.5324 32.2397 50.5702 32.3027 50.6017 32.3657C50.6521 32.4476 50.7025 32.5295 50.7529 32.6114V32.6177Z" fill="#750000"/>
<path id="Vector_32" d="M59.7528 24.1081C59.7528 24.2986 59.7453 24.483 59.6632 24.6059C59.3943 25.0177 59.2636 25.5893 59.047 26.0625C58.976 26.2162 58.9462 26.5604 58.7669 26.4067C58.6138 26.2715 58.6213 25.9519 58.6586 25.7306C58.7893 24.9685 59.0881 24.3908 59.4615 23.9114C59.525 23.8315 59.581 23.7394 59.6408 23.6533C59.708 23.7947 59.7715 23.9299 59.7453 24.1143L59.7528 24.1081Z" fill="#750000"/>
<path id="Vector_33" d="M62.0405 42.8016C61.5681 42.5496 61.3287 42.2724 61.4673 41.9134C61.7381 41.1952 62.1539 40.5464 62.6767 39.9732C62.7712 39.8724 62.8972 39.8031 63.0169 39.8787C63.0736 39.9165 63.1114 40.0677 63.0862 40.1495C62.8342 40.9496 62.5697 41.7496 62.1854 42.4992C62.1287 42.6126 62.0783 42.7323 62.0405 42.8016Z" fill="#750000"/>
<path id="Vector_34" d="M55.8979 31.075C55.4255 30.823 55.1861 30.5459 55.3247 30.1868C55.5956 29.4687 56.0113 28.8198 56.5342 28.2466C56.6287 28.1458 56.7546 28.0765 56.8743 28.1521C56.931 28.1899 56.9688 28.3411 56.9436 28.423C56.6917 29.223 56.4271 30.023 56.0428 30.7726C55.9861 30.886 55.9357 31.0057 55.8979 31.075Z" fill="#750000"/>
<path id="Vector_35" d="M40.2644 17.9461C39.8676 17.5367 39.5652 17.0516 38.9856 16.7997C38.6581 16.6548 38.4691 16.2012 38.3557 15.6973C39.3195 15.9303 39.9117 16.6359 40.6613 17.0516C40.888 17.1776 40.8566 17.713 40.6928 18.028C40.5479 18.3052 40.4156 17.9776 40.2707 17.9461H40.2644Z" fill="#750000"/>
<path id="Vector_36" d="M51.6159 45.1473C51.3639 44.1646 51.1182 43.2197 50.8725 42.2748C50.8347 42.1426 50.8095 42.0166 50.9418 41.9347C51.0804 41.8528 51.1812 41.9473 51.2757 42.0355C51.83 42.5394 52.0505 44.3788 51.6159 45.1473Z" fill="#750000"/>
<path id="Vector_37" d="M61.4282 24.7145C61.6991 23.6058 62.033 22.516 62.4865 21.4199C62.9905 22.2073 62.4991 23.8578 61.5416 24.8216C61.5038 24.7838 61.466 24.746 61.4282 24.7145Z" fill="#750000"/>
<path id="Vector_38" d="M92.6121 17.6056C93.557 16.8686 94.6593 16.5662 95.8373 16.4717C95.4909 16.6355 95.1948 16.8181 94.9428 17.1268C94.5523 17.6056 93.9097 17.4607 93.3806 17.6056C93.1538 17.6686 92.864 17.5363 92.7065 17.8198C92.6751 17.7505 92.6436 17.6812 92.6121 17.6119V17.6056Z" fill="#750000"/>
<path id="Vector_39" d="M25.316 17.058C24.7428 16.9258 24.1065 16.9699 23.5144 16.4848C24.6042 16.2328 25.5113 16.3903 26.368 16.9132C26.2987 17.0265 26.2294 17.1462 26.1601 17.2596H26.1349C25.8452 17.2596 25.6247 16.9699 25.3097 17.058H25.316Z" fill="#750000"/>
<path id="Vector_40" d="M64.9016 43.2508C65.1094 42.3752 65.3677 41.5248 65.5504 40.6555C65.5756 40.5421 65.6449 40.3909 65.7961 40.4098C65.9724 40.435 65.9976 40.5799 66.0039 40.75C66.0606 41.7768 65.2669 42.413 64.8953 43.2445L64.9016 43.2508Z" fill="#750000"/>
<path id="Vector_41" d="M55.1372 44.6611C54.8411 45.3352 55.6285 46.236 54.6836 46.8092C54.4695 45.9966 54.3624 45.247 55.1372 44.6611Z" fill="#750000"/>
<path id="Vector_42" d="M69.953 37.0205C69.8963 36.4221 69.9089 36.0127 69.9656 35.5843C70.0097 35.2693 70.1798 35.2945 70.3499 35.2882C70.6018 35.2819 70.5262 35.4898 70.4947 35.6158C70.4066 36.0504 70.3247 36.4914 69.9467 37.0205H69.953Z" fill="#750000"/>
<path id="Vector_43" d="M21.1267 17.7754C21.1645 17.7124 21.1771 17.662 21.2149 17.6305C21.637 17.2778 22.1094 17.303 22.5819 17.4731C22.6449 17.4983 22.6575 17.7187 22.5504 17.7313C22.0842 17.7943 21.6118 18.2227 21.1267 17.7754Z" fill="#750000"/>
<path id="Vector_44" d="M52.189 32.9951C52.6677 33.3416 52.5795 33.8833 52.7874 34.4062C51.6472 34.255 52.3339 33.4487 52.189 32.9951Z" fill="#750000"/>
<path id="Vector_45" d="M35.9995 14.2676C36.5854 14.4881 37.0263 14.8534 37.2972 15.5526C36.6105 15.2755 36.346 14.7337 35.9995 14.2676Z" fill="#750000"/>
<path id="Vector_46" d="M54.8348 40.4721C54.7718 40.0626 54.6899 39.6595 54.6458 39.25C54.6206 39.0547 54.6143 38.7776 54.923 38.8595C55.1623 38.9225 54.8726 39.08 54.8915 39.2248C54.9482 39.628 54.9104 40.0501 54.9104 40.4595C54.8852 40.4595 54.86 40.4595 54.8348 40.4658V40.4721Z" fill="#750000"/>
<path id="Vector_47" d="M71.4144 33.0397C71.2317 32.4665 71.238 31.8932 71.4585 31.3389C71.6349 31.9121 71.3325 32.4728 71.4144 33.0397Z" fill="#750000"/>
<path id="Vector_48" d="M14.645 24.4541C14.5253 24.8258 14.3426 24.9266 14.0339 24.9832C14.1158 24.6242 14.3237 24.5675 14.645 24.4541Z" fill="#750000"/>
<path id="Vector_49" d="M19.6533 16.516C19.8423 16.4278 20.0376 16.3397 20.3525 16.1885C20.214 16.5286 20.0124 16.5979 19.8423 16.6987C19.7793 16.6357 19.7163 16.5727 19.6533 16.5097V16.516Z" fill="#750000"/>
<path id="Vector_50" d="M76.7944 23.8107C76.681 23.9304 76.5676 24.0501 76.4291 24.195C76.3346 23.8989 76.4795 23.7603 76.6495 23.6406C76.6999 23.6973 76.744 23.754 76.7944 23.817V23.8107Z" fill="#750000"/>
<path id="Vector_51" d="M87.4719 16.3905C87.579 16.2519 87.6924 16.1385 88.0011 16.1133C87.8373 16.296 87.7365 16.4093 87.6357 16.5227C87.5853 16.4786 87.5286 16.4345 87.4782 16.3905H87.4719Z" fill="#750000"/>
<path id="Vector_52" d="M82.7973 23.6403C82.684 23.7096 82.5706 23.7789 82.4572 23.8482C82.3942 23.6403 82.4887 23.5333 82.6777 23.4766C82.7217 23.5333 82.7595 23.5899 82.8036 23.6403H82.7973Z" fill="#750000"/>
<path id="Vector_53" d="M90.993 16.2197L90.9992 16.2568L90.9868 16.2259L90.993 16.2197Z" fill="#750000"/>
<path id="Vector_54" d="M47.477 64.2714C50.9858 64.3785 54.4945 64.4415 57.9969 64.1706C59.3576 64.0635 60.6931 64.3974 62.0537 64.3848C62.1671 64.3848 62.3435 64.4163 62.2931 64.599C62.2427 64.7754 62.123 64.9077 61.9025 64.9014C61.4427 64.9014 60.9765 64.9077 60.5167 64.914C57.8142 64.9392 55.1181 65.1344 52.4157 64.9391C51.1621 64.8447 49.9149 65.1092 48.655 65.1029C47.6282 65.1029 46.6077 65.0399 45.5872 64.9266C45.2975 64.8951 44.9762 64.7817 45.0014 64.5675C45.0329 64.3281 45.392 64.347 45.6565 64.3407C46.1227 64.3281 46.6203 64.4541 47.055 64.1517C47.181 64.2525 47.3007 64.3533 47.477 64.2651V64.2714Z" fill="#750000"/>
<path id="Vector_55" d="M54.6709 62.3504C55.4331 61.9347 56.2772 61.8717 57.1024 61.8717C58.9419 61.8717 60.775 61.8591 62.6144 62.0228C63.5404 62.1047 64.5294 62.1677 65.4869 61.9284C66.4003 61.7079 67.2885 61.9977 68.1956 62.2181C67.5594 62.8544 61.7829 62.9237 54.6709 62.3441V62.3504Z" fill="#750000"/>
<path id="Vector_56" d="M75.7359 61.8902C77.2226 61.8461 78.7029 61.8524 80.1581 62.4761C79.1565 63.2257 70.8162 62.9611 70.0854 62.1989C71.6477 62.0792 73.1847 61.9595 74.7281 61.8398C75.0619 61.8587 75.4021 61.8776 75.7359 61.8902Z" fill="#750000"/>
<path id="Vector_57" d="M63.4899 57.714C63.8931 57.4368 64.3341 57.4999 64.7687 57.5062C66.2554 57.5062 67.7609 57.6447 69.2286 57.4873C70.7468 57.3235 72.2397 57.5817 73.739 57.4998C73.972 57.4872 74.35 57.3928 74.3815 57.7329C74.413 58.1172 74.0098 57.9786 73.7894 58.029C73.1153 58.1676 72.4413 58.2999 71.761 58.407C71.509 58.4448 71.2444 58.451 70.9925 58.407C68.9956 58.0353 66.9798 58.2243 64.9703 58.1361C64.4411 58.1109 63.9561 58.0983 63.4836 57.714H63.4899Z" fill="#750000"/>
<path id="Vector_58" d="M72.958 65.0914C72.8131 65.1481 72.6683 65.1985 72.5234 65.2552C72.0509 64.9465 71.5407 65.2048 71.0619 65.2111C69.8335 65.2363 68.6241 65.0599 67.4209 64.8898C66.7091 64.7891 66.0036 65.0473 65.298 64.8332C65.1405 64.7828 65.0209 64.7765 64.9075 64.493C68.4981 64.5497 72.0131 64.1591 75.5534 64.3796C75.5345 64.8143 75.3896 64.9969 75.125 65.0914C75.0431 65.0914 74.9612 65.0914 74.8793 65.0851C74.2368 65.0851 73.5943 65.0851 72.9517 65.0914H72.958Z" fill="#750000"/>
<path id="Vector_59" d="M70.9108 60.1391C67.2068 60.2903 63.4965 60.6871 59.6287 59.7296C62.0161 59.7296 64.2272 59.843 66.4131 59.6918C67.8808 59.591 69.3107 59.5407 70.747 59.8367C70.81 59.8493 70.8667 59.8808 70.9234 59.906C70.9234 59.9816 70.9171 60.0635 70.9108 60.1391Z" fill="#750000"/>
<path id="Vector_60" d="M44.7371 59.8362C46.0851 59.3701 47.4647 59.515 48.8253 59.5213C49.386 59.5213 49.9529 59.4835 50.5136 59.5338C50.7277 59.5527 50.9797 59.6094 51.0049 59.811C51.0427 60.0693 50.7655 60.0882 50.5702 60.1197C49.0017 60.3717 47.4206 60.3843 45.8457 60.3276C45.4741 60.315 45.1465 59.9622 44.7434 59.8299L44.7371 59.8362Z" fill="#750000"/>
<path id="Vector_61" d="M50.0598 57.7323C50.6079 57.1527 51.2315 57.2031 51.8236 57.2157C52.3024 57.2283 52.7811 57.2976 53.2599 57.3606C53.4552 57.3858 53.726 57.4425 53.7512 57.6441C53.7953 57.9339 53.493 58.0032 53.2851 58.041C52.2142 58.2488 51.1622 58.1669 50.0598 57.726V57.7323Z" fill="#750000"/>
<path id="Vector_62" d="M52.9953 59.5473C53.7512 59.5473 54.5072 59.5347 55.2568 59.5536C55.4458 59.5536 55.6977 59.6418 55.7229 59.8749C55.7481 60.1143 55.5151 60.2024 55.3135 60.2591C54.419 60.53 53.6252 60.3536 52.989 59.541L52.9953 59.5473Z" fill="#750000"/>
<path id="Vector_63" d="M61.115 57.6691C60.0882 58.2612 59.1748 58.0974 58.2803 58.0723C58.211 58.0723 58.0914 57.94 58.0977 57.877C58.1165 57.7321 58.1732 57.5557 58.3622 57.5494C59.2126 57.5368 60.0693 57.4108 61.115 57.6628V57.6691Z" fill="#750000"/>
<path id="Vector_64" d="M58.2051 59.4149C57.7074 59.7676 57.3925 59.8369 56.9956 59.566C57.3547 59.3267 57.6822 59.3771 58.2051 59.4149Z" fill="#750000"/>
<path id="Vector_65" d="M49.5873 51.6916C49.5558 51.7294 49.5369 51.7924 49.4991 51.7987C49.3983 51.8302 49.3731 51.7546 49.392 51.679C49.3983 51.6412 49.4613 51.5908 49.4928 51.5908C49.5243 51.5908 49.5558 51.6538 49.5873 51.6916Z" fill="#750000"/>
</g>
<path id="Subtract" fill-rule="evenodd" clip-rule="evenodd" d="M61.6563 0.211969C64.035 0.373923 66.5703 2.16655 66.9557 4.7239C67.1846 6.25942 66.9946 7.78422 65.9839 8.99589C65.1521 9.98977 65.3251 10.7607 65.9114 11.7825C67.6758 14.8591 69.4634 18.4992 71.4791 21.4195C71.9257 22.0671 72.0989 22.3354 72.3167 23.0947C72.3865 23.3383 72.5841 23.8985 72.5959 23.9323L72.1651 26.4454L70.7123 30.8025L69.5836 32.3081L66.219 39.8133C66.175 39.6476 66.1346 39.4816 66.0985 39.3154L66.2331 39.2887L69.3043 26.4454L68.8692 25.3035C68.9583 25.0475 69.0476 24.7914 69.1391 24.5363C69.1949 24.3856 69.2672 24.2233 69.1724 24.0782C68.575 23.1681 68.3571 22.0736 67.7486 21.1635C67.6038 20.1326 66.8764 19.4241 66.3204 18.6136L64.5579 16.6731L61.5424 14.0253C61.37 13.5767 61.1669 13.1378 60.9136 12.7149C60.9734 13.1256 61.053 13.5328 61.1339 13.9392L60.1436 13.7309C60.1104 13.4139 60.0612 13.1007 59.9195 12.8044C60.0981 12.5252 60.0314 12.2454 59.8862 11.9886C59.8469 11.9217 59.6904 11.8941 59.5956 11.8997C59.5397 11.9 59.4507 12.0393 59.5454 12.1118C59.9528 12.4188 59.5066 12.4301 59.4004 12.5584C59.1715 12.5808 59.1379 12.7818 59.0486 12.9325C56.9714 16.3275 55.3913 19.952 54.0623 23.6932C53.9507 24.0058 53.9001 24.3076 54.0285 24.6704C54.3188 25.5022 54.5258 26.3621 54.7603 27.205C54.7993 27.2441 54.8325 27.2892 54.8715 27.3283L54.8606 27.3337C54.8662 27.4174 54.8774 27.5069 54.883 27.5906C54.9947 28.1824 55.0782 28.7858 55.5472 29.2325C55.5472 29.277 55.553 29.3163 55.5641 29.3552C55.4134 30.1089 55.5921 30.7961 56.0052 31.4214C56.0556 31.4993 56.1669 31.4998 56.1279 31.6559C55.9997 32.1471 55.456 32.9844 55.6235 33.4254C55.5472 35.1005 55.6255 33.2521 55.5641 34.8211C55.5306 35.7644 55.5614 35.7123 55.9458 37.0209C55.8115 37.5528 55.9698 37.079 55.8433 37.6131L54.4435 34.5872L54.516 34.2627L54.3262 33.6563C54.2217 32.8179 53.7146 31.5744 53.331 30.8025L51.3766 23.6932L51.249 22.6309C51.3853 22.6478 51.5115 22.5296 51.6564 22.2192C53.2422 18.8467 54.146 15.6014 56.0445 12.4019C56.413 11.7767 56.7984 11.1568 57.2338 10.5762C57.5018 10.219 57.4905 9.97301 57.2338 9.62137C56.078 8.06907 55.6537 6.3264 56.0222 4.42234C56.4076 2.42332 58.6411 0.0109581 61.6563 0.211969ZM63.2028 3.93647C63.2475 4.66782 63.4765 5.40523 62.9073 6.17007C62.8012 5.5672 62.7449 5.07576 62.5496 4.62356C62.4715 4.43925 62.6555 4.06532 62.3205 4.08207C62.0025 4.09342 61.9021 4.45597 61.8406 4.7239C61.7961 4.90253 61.8963 5.12063 61.9186 5.32157C61.9577 5.72353 62.0303 6.13134 61.7065 6.57797L61.701 6.56652C61.2154 5.94121 61.26 5.2431 61.1595 4.5843C61.1374 4.44469 61.3154 4.22149 61.081 4.1824C60.802 4.13226 60.8575 4.42262 60.8296 4.57339C60.651 5.67327 60.4445 6.76792 60.8296 7.88454C61.1424 8.789 62.1866 9.11826 62.9236 8.49857C63.6104 7.91787 64.0352 7.19188 64.2586 6.33203C64.465 5.52239 63.9733 4.37199 63.2028 3.93647ZM59.462 5.32702C59.1326 5.3047 59.2663 5.76817 59.1157 5.97485C59.0935 6.0028 59.1157 6.06439 59.1157 6.109H59.1097C59.0488 6.27068 59.2714 6.42138 59.2161 6.49399C58.9594 6.83451 59.3725 6.89085 59.4451 6.89643C59.7129 6.92983 59.6459 6.66712 59.6681 6.51635C59.6904 6.33779 59.6685 6.15341 59.6518 5.97485C59.6239 5.74037 59.7409 5.34397 59.462 5.32702Z" fill="#750000"/>
</g>
</g>
</g>
</svg>
