<svg width="389" height="195" viewBox="0 0 389 195" fill="none" xmlns="http://www.w3.org/2000/svg">
<path fill-rule="evenodd" clip-rule="evenodd" d="M39.8576 0C39.7256 0.18554 39.669 0.403928 39.705 0.661743C40.0143 2.61367 45.2733 2.24315 49.3977 2.21089L49.4492 2.1947C54.8625 2.27536 63.0595 2.33933 62.9564 0.645557C62.9362 0.389127 62.7723 0.176824 62.4927 0H258.85C258.718 0.185542 258.661 0.403924 258.697 0.661743C259.007 2.61367 264.266 2.24315 268.39 2.21089L268.441 2.1947C273.855 2.27536 282.052 2.33932 281.949 0.645557C281.929 0.389129 281.765 0.176823 281.485 0H369.206C368.391 0.359437 368.121 0.786776 368.573 1.23113C369.94 2.57922 373.548 1.95098 376.192 2.20232C376.545 2.23589 376.875 2.25145 377.182 2.25564C377.566 2.55338 378.133 2.70899 378.848 2.7479L379.082 2.71743L379.301 2.79456C379.694 2.82799 380.078 2.87282 380.47 2.91738C381.931 3.0834 381.659 3.15967 382.937 3.40488C383.873 3.58323 383.874 4.17041 383.874 4.17041V4.93213C383.613 5.13244 384.135 5.01084 383.874 5.21111C383.18 5.27796 383.631 5.55751 382.937 5.62434C381.71 5.82493 380.47 6.19433 379.243 6.19468C377.905 6.19476 376.967 7.06471 375.648 7.6667C377.108 9.27148 378.94 8.81535 380.52 9.1273C381.899 9.39455 383.359 9.21682 384.778 9.2168H384.781C385.545 9.21679 386.33 9.21667 386.862 9.91758C387.164 10.3076 387.525 10.8883 387.475 11.3229C387.394 12.036 386.69 11.8372 386.227 11.8371H378.365C379.01 14.1105 380.29 14.5778 381.759 14.6336C383.178 14.6781 384.608 14.5771 386.017 14.6774C386.48 14.7102 387.185 14.3684 387.396 15.4039C387.657 16.6508 386.521 16.5085 386.208 17.1311C385.424 18.6797 386.126 16.3539 385.654 16.8749C385.493 17.0642 385 16.8439 384.748 16.9882C383.239 17.88 381.908 19.1823 380.027 19.1268C379.867 19.1231 379.706 19.1736 379.57 19.2686C371.829 19.4412 366.943 20.3986 368.72 21.4443C370.998 22.7923 377.01 22.1642 381.416 22.4155C383.268 22.521 384.727 22.475 385.853 22.3165C387.358 23.7827 387.504 24.5043 385.825 25.6157C385.191 26.0391 384.94 26.8852 385.312 27.22C387.243 28.9587 386.168 31.5013 386.871 33.5299C386.992 33.8792 386.975 34.3684 387.072 34.7715C384.946 34.5892 382.289 34.6257 380.173 34.6658L380.133 34.6496C376.892 34.6174 372.76 34.2469 372.517 36.1988C372.275 38.4083 377.338 37.763 379.89 37.6984C382.201 37.632 385.522 37.8162 387.89 37.5756C387.646 37.7461 387.504 37.9041 387.442 38.044C386.88 38.1424 386.438 38.5026 386.394 39.6094L386.393 39.6151C386.106 39.5985 385.854 39.5675 385.648 39.5123H385.61C376.612 39.5351 370.6 40.575 372.542 41.7174C374.17 42.6814 377.709 42.6349 381.204 42.622C381.144 42.638 381.084 42.6551 381.025 42.6686C380.71 43.1921 380.256 43.2155 379.805 43.1933C379.184 45.2986 379.909 46.1776 381.475 46.2782L381.672 46.2478L381.858 46.3249C382.19 46.3583 382.515 46.4031 382.847 46.4477C383.005 46.3689 383.165 46.3013 383.325 46.2439C383.999 46.2206 384.655 46.1775 385.169 46.1649C385.493 46.1559 385.846 46.1546 386.215 46.1554C386.994 46.3386 387.938 46.6953 387.396 48.3311L387.379 48.3539C387.158 48.5542 386.927 48.7545 386.706 48.9547C386.119 49.0215 385.522 49.0878 384.935 49.1547C383.896 49.3552 382.848 49.7246 381.809 49.725C380.677 49.725 379.883 50.595 378.768 51.197C380.003 52.8015 381.553 52.3456 382.89 52.6576C384.057 52.9248 385.293 52.7471 386.493 52.7471H386.495C387.141 52.7471 387.805 52.7473 388.255 53.4479C388.511 53.8379 388.816 54.4187 388.773 54.8533C388.705 55.5662 388.11 55.3675 387.718 55.3674H381.066C381.611 57.6408 382.694 58.1081 383.937 58.1639C385.138 58.2084 386.349 58.1074 387.541 58.2077C387.933 58.2402 388.529 57.8992 388.707 58.9342C388.928 60.1811 387.967 60.0388 387.702 60.6614C387.038 62.2099 387.633 59.8846 387.234 60.4053C387.098 60.5945 386.681 60.3744 386.468 60.5186C385.19 61.4104 384.064 62.7127 382.471 62.6571C382.071 62.6465 381.664 63.1046 381.825 63.8063C381.978 64.4853 382.464 64.4411 382.881 64.4633C384.422 64.5523 385.888 64.1287 387.352 65.7887C388.672 67.2935 388.817 68.0203 387.379 69.146C386.842 69.5694 386.63 70.4155 386.944 70.7503C387.396 71.2314 387.652 71.7747 387.8 72.3509L380.153 72.3395C379.996 72.3728 379.828 72.4194 379.671 72.4528C379.327 72.9763 378.832 72.9997 378.34 72.9774C377.663 75.0828 378.453 75.9618 380.162 76.0624L380.377 76.0319L380.58 76.109C380.942 76.1425 381.297 76.1873 381.659 76.2319C382.829 75.697 384.066 75.6743 385.246 75.9196C386.109 76.0979 387.232 76.423 386.62 78.1152L386.602 78.1381C386.361 78.3383 386.109 78.5386 385.868 78.7389C385.228 78.8057 384.577 78.872 383.936 78.9388C382.803 79.1394 381.659 79.5088 380.526 79.5092C379.291 79.5092 378.425 80.3792 377.209 80.9812C378.556 82.5856 380.247 82.1297 381.705 82.4418C382.978 82.709 384.326 82.5313 385.636 82.5313H385.639C386.343 82.5313 387.068 82.5312 387.559 83.2321C387.838 83.6221 388.17 84.2028 388.124 84.6374C388.05 85.3504 387.4 85.1517 386.972 85.1516H379.716C380.31 87.4251 381.492 87.8923 382.849 87.9481C384.158 87.9925 385.478 87.8916 386.779 87.9918C387.206 88.0245 387.856 87.6832 388.051 88.7183C388.292 89.9652 387.245 89.823 386.956 90.4455C386.231 91.9946 386.879 89.6677 386.443 90.1894C386.295 90.3787 385.84 90.1584 385.607 90.3027C384.214 91.1945 382.986 92.4966 381.25 92.4412C380.813 92.4305 380.367 92.8886 380.543 93.5905C380.71 94.2696 381.24 94.2253 381.695 94.2475C383.376 94.3366 384.976 93.9125 386.574 95.5729C388.014 97.0777 388.171 97.8045 386.602 98.9301C386.017 99.3537 385.785 100.2 386.128 100.535C386.28 100.682 386.409 100.836 386.523 100.994C385.418 100.981 384.232 101.029 383.147 101.04L383.107 101.056C378.854 100.976 372.413 100.912 372.494 102.605C372.616 104.589 379.461 103.976 383.39 104.089C383.518 104.092 383.653 104.099 383.793 104.105C383.598 104.194 383.491 104.347 383.528 104.601C383.621 105.288 384.472 105.797 386.717 105.637C386.918 105.623 387.128 105.614 387.343 105.608C387.377 106.033 387.441 106.449 387.567 106.844C387.65 107.102 387.665 107.436 387.702 107.756C387.688 107.925 387.682 108.097 387.675 108.269C386.905 108.273 386.107 108.307 385.365 108.316L385.331 108.333C381.851 108.252 376.582 108.188 376.649 109.882C376.749 111.865 382.349 111.252 385.564 111.365C386.076 111.381 386.712 111.431 387.377 111.466C387.215 111.972 386.956 112.448 386.536 112.876C386.207 113.211 386.429 114.057 386.99 114.481C388.494 115.606 388.343 116.333 386.963 117.838C385.432 119.498 383.899 119.074 382.288 119.163C381.852 119.185 381.345 119.141 381.184 119.82C381.016 120.522 381.442 120.98 381.86 120.97C383.525 120.914 384.702 122.216 386.037 123.108C386.26 123.252 386.697 123.032 386.839 123.221C387.256 123.742 386.635 121.417 387.329 122.965C387.606 123.588 388.611 123.445 388.38 124.692C388.193 125.728 387.569 125.386 387.16 125.419C385.914 125.519 384.648 125.418 383.393 125.463C382.093 125.518 380.961 125.986 380.391 128.259H387.346C387.755 128.259 388.377 128.06 388.449 128.773C388.493 129.208 388.174 129.789 387.907 130.179C387.436 130.879 386.742 130.879 386.066 130.879H386.064C384.809 130.879 383.517 130.702 382.297 130.969C382.071 131.02 381.838 131.047 381.601 131.069C380.316 130.507 377.692 130.114 374.402 130.1H374.38C373.26 130.602 369.788 129.209 370.011 131.277C370.146 132.602 371.378 133.584 374.627 133.276C376.052 133.141 377.756 133.258 379.239 133.187C379.855 133.576 380.445 133.902 381.168 133.902C382.254 133.902 383.349 134.271 384.435 134.472C385.049 134.539 385.673 134.605 386.287 134.672C386.518 134.872 386.759 135.072 386.99 135.273L387.008 135.296C387.594 136.988 386.518 137.313 385.69 137.491C384.559 137.736 383.375 137.714 382.253 137.179C381.906 137.223 381.566 137.268 381.218 137.302L381.025 137.379L380.818 137.348C379.181 137.449 378.424 138.329 379.073 140.434C379.545 140.412 380.019 140.434 380.348 140.958C380.499 140.991 380.659 141.038 380.81 141.071L386.376 141.062C386.346 141.212 386.326 141.383 386.318 141.576C386.29 142.367 386.48 142.791 386.771 143.008C385.737 142.99 384.675 143.005 383.756 143.022L383.726 143.012C381.404 142.989 378.444 142.731 378.27 144.089C378.196 144.748 378.82 145.04 379.702 145.157C379.282 146.98 380.01 147.755 381.475 147.849L381.672 147.818L381.858 147.895C382.19 147.929 382.515 147.974 382.847 148.018C383.92 147.483 385.054 147.461 386.135 147.706C386.927 147.884 387.957 148.209 387.396 149.901L387.379 149.924C387.158 150.125 386.927 150.325 386.706 150.525C386.119 150.592 385.522 150.658 384.935 150.725C383.896 150.926 382.848 151.295 381.809 151.295C380.677 151.295 379.883 152.165 378.768 152.767C380.003 154.372 381.553 153.916 382.89 154.228C384.057 154.495 385.293 154.318 386.493 154.318H386.495C387.141 154.318 387.805 154.318 388.255 155.018C388.511 155.408 388.816 155.989 388.773 156.424C388.705 157.137 388.11 156.938 387.718 156.938H381.066C381.08 156.997 381.097 157.054 381.112 157.11L379.373 157.108C379.216 157.142 379.049 157.188 378.891 157.222C378.548 157.745 378.053 157.769 377.56 157.746C376.883 159.852 377.674 160.731 379.382 160.831L379.597 160.801L379.8 160.878C380.162 160.911 380.517 160.956 380.879 161.001C382.05 160.466 383.286 160.443 384.466 160.688C385.253 160.851 386.252 161.134 385.96 162.464C385.476 162.841 385.001 163.242 384.501 163.568C384.053 163.614 383.602 163.661 383.157 163.708C382.024 163.908 380.88 164.278 379.747 164.278C378.511 164.278 377.646 165.148 376.429 165.75C377.776 167.354 379.467 166.899 380.926 167.211C382.198 167.478 383.546 167.3 384.856 167.3H384.859C385.564 167.3 386.288 167.3 386.78 168.001C387.058 168.391 387.391 168.972 387.345 169.406C387.27 170.119 386.62 169.921 386.193 169.92H378.936C379.531 172.194 380.713 172.661 382.069 172.717C383.379 172.761 384.699 172.66 385.999 172.761C386.427 172.793 387.077 172.452 387.272 173.487C387.512 174.734 386.465 174.592 386.176 175.214C385.452 176.763 386.1 174.437 385.664 174.958C385.515 175.148 385.06 174.927 384.828 175.072C383.435 175.963 382.207 177.265 380.47 177.21C380.033 177.199 379.587 177.657 379.763 178.359C379.93 179.038 380.46 178.994 380.915 179.016C382.597 179.105 384.196 178.681 385.794 180.342C387.234 181.846 387.392 182.573 385.822 183.699C385.237 184.122 385.006 184.969 385.349 185.303C385.711 185.656 385.896 186.053 385.972 186.476C385.258 186.511 384.57 186.568 384.023 186.585C380.808 186.698 375.208 186.085 375.108 188.068C375.042 189.762 380.311 189.698 383.791 189.618L383.825 189.634C384.348 189.64 384.9 189.657 385.45 189.669C385.256 190.437 385.135 191.188 385.349 191.857C385.351 191.865 385.355 191.873 385.358 191.881C385.243 191.873 385.131 191.865 385.021 191.857C382.817 191.7 382.107 192.629 381.994 193.313C377.78 193.374 371.186 192.825 370.959 195H356.485C356.216 193.398 350.96 194.613 349.198 194.138H349.16C344.034 194.151 339.877 194.496 337.608 195H316.552C316.383 193.569 311.402 194.017 308.841 194.063C304.905 194.144 298.171 193.726 297.502 195H290.031C290.102 194.63 290.123 194.228 290.094 193.841C289.969 192.228 288.391 192.375 287.98 192.595C287.015 193.112 286.231 194.118 285.392 195H282.049C282.381 194.85 282.578 194.662 282.598 194.42C282.679 193.15 276.239 193.198 271.986 193.259L271.945 193.246C268.704 193.222 264.573 192.944 264.33 194.408C264.294 194.648 264.372 194.842 264.537 195H256.659C256.918 194.483 257.017 193.764 256.966 193.091C256.841 191.478 255.263 191.625 254.853 191.845C253.784 192.417 252.939 193.59 251.995 194.529C252.096 194.711 252.2 194.867 252.309 195H231.809C231.811 194.94 231.809 194.879 231.8 194.814C231.49 192.862 226.231 193.233 222.107 193.265L222.055 193.281C216.642 193.201 208.445 193.137 208.548 194.831C208.553 194.889 208.566 194.946 208.585 195H137.492C137.223 193.398 131.968 194.613 130.206 194.138H130.169C125.042 194.151 120.885 194.496 118.615 195H97.5599C97.3912 193.569 92.4098 194.017 89.8483 194.063C85.9125 194.144 79.1787 193.726 78.5098 195H71.0383C71.1096 194.63 71.131 194.228 71.1015 193.841C70.977 192.228 69.3985 192.375 68.9882 192.595C68.0226 193.112 67.2383 194.118 66.3995 195H63.0565C63.3891 194.85 63.586 194.662 63.6057 194.42C63.6868 193.15 57.2467 193.198 52.9934 193.259L52.9526 193.246C49.7122 193.222 45.5806 192.944 45.3373 194.408C45.302 194.648 45.3802 194.842 45.5443 195H37.6665C37.926 194.483 38.0249 193.764 37.9737 193.091C37.8491 191.478 36.2705 191.625 35.8604 191.845C34.7917 192.417 33.9469 193.59 33.0024 194.529C33.1032 194.711 33.2081 194.867 33.3164 195H17.0777C17.1644 194.878 17.2082 194.743 17.2011 194.595C17.104 193.023 12.7836 193.081 9.03946 193.117C9.65115 192.805 10.1489 192.39 10.0708 191.849C9.99573 191.294 6.41473 190.539 3.86017 190.354C3.84389 189.885 3.71482 189.396 3.55104 188.901C3.81529 188.895 4.07638 188.887 4.33066 188.884L4.36371 188.868C7.84366 188.949 13.1137 189.013 13.0474 187.319C12.9471 185.335 7.34596 185.948 4.13138 185.836C3.74419 185.824 3.28633 185.792 2.79865 185.762C2.84788 185.378 3.00004 185.016 3.30608 184.686C3.61693 184.351 3.40722 183.505 2.87738 183.081C1.45573 181.955 1.59857 181.228 2.90266 179.722C4.34994 178.06 5.79878 178.485 7.32178 178.395C7.73382 178.373 8.21327 178.417 8.36483 177.738C8.52444 177.035 8.12051 176.577 7.72519 176.587C6.15178 176.643 5.03972 175.339 3.77754 174.447C3.56702 174.303 3.15488 174.524 3.02028 174.335C2.62563 173.813 3.21267 176.14 2.55659 174.591C2.29495 173.968 1.34616 174.11 1.56409 172.863C1.74073 171.827 2.32991 172.168 2.71699 172.135C3.89477 172.035 5.09059 172.136 6.27678 172.091C7.5053 172.036 8.57565 171.568 9.11431 169.293H2.54104C2.15398 169.293 1.56544 169.492 1.49799 168.779C1.45631 168.344 1.75799 167.763 2.01028 167.372C2.45561 166.671 3.1118 166.672 3.75032 166.672H3.75226C4.93856 166.672 6.15938 166.849 7.31206 166.581C7.80955 166.464 8.33701 166.455 8.86643 166.404C10.2951 166.817 12.5655 167.089 15.2929 167.1H15.3153C16.4355 166.598 19.9075 167.991 19.6838 165.923C19.5494 164.598 18.317 163.615 15.0684 163.924C13.4054 164.082 11.3614 163.892 9.73353 164.065C9.31041 163.82 8.87867 163.648 8.38038 163.648C7.35423 163.647 6.3182 163.277 5.29205 163.076C4.71198 163.01 4.12236 162.943 3.54229 162.876C3.32384 162.676 3.09581 162.475 2.87738 162.275L2.85989 162.252C2.30614 160.558 3.32387 160.234 4.10611 160.055C5.17469 159.81 6.29465 159.832 7.35483 160.368C7.68282 160.323 8.00379 160.278 8.33178 160.245L8.5155 160.168L8.71089 160.199C10.2581 160.098 10.973 159.218 10.3596 157.111C9.91378 157.133 9.46634 157.11 9.15514 156.586C9.01257 156.552 8.86121 156.507 8.71867 156.473L1.39398 156.485C1.3902 156.349 1.38569 156.214 1.38328 156.08L1.3444 156.026C1.40339 154.301 1.45551 152.306 1.39009 150.368C2.49819 150.391 3.94515 150.16 4.61159 150.37H4.63589C10.3951 150.353 14.2424 149.573 12.9998 148.716C11.542 147.705 7.69404 148.176 4.87406 147.988C3.22336 147.878 2.06163 147.99 1.28121 148.242C1.52899 146.351 1.03699 144.164 2.30871 142.616C2.5826 142.282 2.39797 141.437 1.93057 141.015C0.676193 139.892 0.801341 139.168 1.95196 137.666C3.22898 136.01 4.50814 136.433 5.85198 136.344C6.21552 136.322 6.63795 136.365 6.77157 135.688C6.91241 134.988 6.55657 134.531 6.20776 134.541C4.81949 134.597 3.83837 133.297 2.72477 132.408C2.53902 132.264 2.17472 132.484 2.05597 132.295C1.70779 131.775 2.22653 134.096 1.64769 132.55C1.41681 131.929 0.578377 132.071 0.770867 130.827C0.926761 129.794 1.44712 130.135 1.78864 130.103C2.82783 130.002 3.88285 130.103 4.92946 130.059C6.01343 130.003 6.95827 129.537 7.43357 127.269H1.63408C1.29253 127.269 0.772967 127.467 0.713514 126.756C0.676743 126.322 0.941972 125.743 1.16456 125.354C1.5575 124.655 2.13701 124.654 2.70046 124.654H2.70241C3.74907 124.654 4.82623 124.832 5.84323 124.566C7.00884 124.254 8.36045 124.709 9.43704 123.108C8.46458 122.507 7.7726 121.64 6.78518 121.64C5.87982 121.639 4.96577 121.271 4.06042 121.07C3.54861 121.004 3.02853 120.938 2.51674 120.871C2.32406 120.672 2.12323 120.471 1.93057 120.272L1.91502 120.249C1.42623 118.56 2.3242 118.236 3.01445 118.058C3.95718 117.813 4.94485 117.837 5.88017 118.37C6.16969 118.326 6.45387 118.281 6.74338 118.247L6.90475 118.17L7.07681 118.202C8.43594 118.102 9.0669 117.232 8.53883 115.152C9.37451 115.027 9.95621 114.735 9.8842 114.098C9.71006 112.74 6.74983 112.999 4.42787 113.021L4.3987 113.031C3.89956 113.022 3.35835 113.016 2.80253 113.012C2.97896 112.718 3.07898 112.283 3.05625 111.646C3.03861 111.211 2.96693 110.873 2.85503 110.612L7.49189 110.621C7.61765 110.587 7.75106 110.542 7.87684 110.508C8.15152 109.986 8.54692 109.963 8.94031 109.986C9.48163 107.885 8.85034 107.007 7.48509 106.906L7.31303 106.938L7.15069 106.861C6.8612 106.827 6.57794 106.782 6.28845 106.738C5.35294 107.271 4.36467 107.295 3.42175 107.05C2.73151 106.872 1.83354 106.548 2.32232 104.859L2.33787 104.836C2.53058 104.636 2.73132 104.436 2.92404 104.236C3.43596 104.17 3.95676 104.104 4.46869 104.037C5.37405 103.837 6.2881 103.468 7.19346 103.468C7.57236 103.468 7.90723 103.339 8.23165 103.148C9.85311 103.314 11.8779 103.128 13.5276 103.285C16.7762 103.594 18.0086 102.611 18.1431 101.286C18.3667 99.2184 14.8947 100.611 13.7745 100.109H13.7521C11.2139 100.12 9.07132 100.355 7.63479 100.72C7.1635 100.668 6.69338 100.66 6.25053 100.542C5.2336 100.276 4.15629 100.454 3.10971 100.454H3.10777C2.54438 100.454 1.96573 100.453 1.57284 99.7537C1.35023 99.3647 1.08404 98.7858 1.12082 98.3522C1.18025 97.6407 1.69983 97.8389 2.04139 97.839H7.84087C7.36561 95.5711 6.42156 95.1049 5.33774 95.0492C4.2912 95.0048 3.23604 95.1054 2.19692 95.0054C1.8554 94.9727 1.33507 95.3136 1.17914 94.2808C0.986655 93.0368 1.82411 93.1785 2.055 92.5574C2.63394 91.012 2.11602 93.3331 2.46425 92.8126C2.58313 92.624 2.94639 92.8441 3.13207 92.7002C4.24581 91.8105 5.22762 90.511 6.61604 90.5665C6.96471 90.5768 7.32062 90.12 7.17985 89.4201C7.04621 88.7424 6.62292 88.7862 6.25928 88.764C4.9155 88.6752 3.63721 89.0983 2.36023 87.4415C1.20953 85.9403 1.0837 85.2158 2.33787 84.0928C2.8054 83.6703 2.99018 82.8262 2.71602 82.4922C2.43918 82.1552 2.2476 81.7871 2.11235 81.3992C2.2808 81.3898 2.44093 81.38 2.59062 81.3754C5.80519 81.2625 11.4064 81.8756 11.5066 79.8919C11.5729 78.1981 6.3029 78.2621 2.82295 78.3428L2.7899 78.3266C2.46041 78.3226 2.11954 78.3131 1.77504 78.3037C1.77449 78.2717 1.77372 78.2396 1.77309 78.2076C1.8524 77.7991 1.83683 77.2931 1.92863 76.9345C2.03206 76.5312 2.08231 76.1075 2.10943 75.6739C3.85519 75.6941 4.54311 75.2247 4.62617 74.6113C4.6629 74.3571 4.55578 74.2046 4.36079 74.1152C4.50087 74.1095 4.63585 74.1023 4.76421 74.0991C8.69319 73.9862 15.5378 74.5992 15.6604 72.6156C15.7414 70.9218 9.30037 70.9858 5.04709 71.0665L5.00723 71.0503C4.30213 71.0433 3.55445 71.022 2.8142 71.0103C2.89266 70.8831 2.9801 70.7589 3.07861 70.6389C3.35277 70.305 3.16799 69.4609 2.70046 69.0384C1.44629 67.9154 1.57212 67.1909 2.72282 65.6897C3.9998 64.0329 5.27809 64.456 6.62187 64.3671C6.98551 64.345 7.40879 64.3888 7.54244 63.7111C7.68321 63.0112 7.3273 62.5544 6.97863 62.5647C5.59021 62.6202 4.6084 61.3207 3.49466 60.431C3.30898 60.287 2.94571 60.5071 2.82684 60.3186C2.47861 59.7981 2.99653 62.1192 2.41759 60.5738C2.1867 59.9526 1.34924 60.0944 1.54173 58.8504C1.69765 57.8176 2.21799 58.1585 2.55951 58.1258C3.59863 58.0258 4.65379 58.1264 5.70033 58.082C6.78415 58.0263 7.7282 57.5601 8.20346 55.2922H2.40398C2.06242 55.2923 1.54284 55.4905 1.48341 54.779C1.44663 54.3454 1.71282 53.7665 1.93543 53.3774C2.32832 52.6781 2.90697 52.6776 3.47036 52.6776H3.4723C4.51888 52.6776 5.59619 52.8555 6.61312 52.5891C7.77879 52.2777 9.13129 52.7324 10.2079 51.1313C9.23545 50.5307 8.54343 49.6632 7.55605 49.6631C6.65069 49.6628 5.73664 49.2939 4.83128 49.0937C4.31935 49.027 3.79855 48.9614 3.28663 48.8947C3.09391 48.6949 2.89317 48.4947 2.70046 48.2949L2.68491 48.272C2.19613 46.5834 3.0941 46.2591 3.78434 46.0811C4.72726 45.8365 5.71553 45.8597 6.65103 46.3934C6.94053 46.349 7.22379 46.304 7.51328 46.2706L7.67562 46.1935L7.84768 46.2249C9.20639 46.1249 9.83727 45.2551 9.3097 43.1761C10.1451 43.0513 10.727 42.759 10.6551 42.1221C10.4809 40.7646 7.51974 41.0228 5.19776 41.0452L5.16957 41.0557C4.79309 41.0488 4.39228 41.0419 3.97973 41.0376C4.20331 39.4656 3.60981 38.956 2.83364 38.7267L8.27928 38.7372C8.41708 38.7039 8.56334 38.6573 8.70117 38.6239C9.00182 38.1006 9.43421 38.078 9.86476 38.1002C10.4575 35.9945 9.76648 35.1149 8.27151 35.0143L8.08292 35.0448L7.906 34.9677C7.5891 34.9342 7.279 34.8894 6.9621 34.8448C5.93785 35.3798 4.85559 35.4024 3.82323 35.1571C3.06752 34.9788 2.08467 34.6539 2.61978 32.9615L2.63631 32.9386C2.84731 32.7383 3.06783 32.5381 3.27886 32.3378C3.83924 32.271 4.40892 32.2047 4.96932 32.1379C5.9606 31.9373 6.96137 31.5679 7.95266 31.5675C8.40818 31.5675 8.80525 31.4113 9.19305 31.1876C10.7806 31.3217 12.7128 31.1588 14.2985 31.3095C17.5469 31.6179 18.7795 30.6352 18.9139 29.31C19.1375 27.2427 15.6646 28.6358 14.5444 28.1331H14.522C11.8712 28.1444 9.65224 28.4007 8.21804 28.7939C7.7756 28.7573 7.33688 28.7368 6.9203 28.6349C5.80693 28.3678 4.62786 28.5454 3.48202 28.5454H3.48008C2.86331 28.5454 2.22954 28.5452 1.79934 27.8446C1.55561 27.4546 1.26428 26.8739 1.30454 26.4393C1.36968 25.7265 1.9377 25.9249 2.31163 25.9251H8.66132C8.14098 23.6519 7.10763 23.1844 5.921 23.1286C4.77504 23.0841 3.61957 23.1851 2.48174 23.0848C2.10781 23.0521 1.5384 23.3937 1.36773 22.3584C1.15698 21.1114 2.07439 21.2537 2.32718 20.6312C2.96087 19.0826 2.39361 21.4075 2.77434 20.8873C2.90436 20.698 3.30296 20.9183 3.50633 20.774C4.72554 19.8822 5.79994 18.58 7.31983 18.6355C7.70173 18.6462 8.09227 18.1881 7.93808 17.4862C7.79173 16.807 7.32813 16.8514 6.93002 16.8292C5.45877 16.7401 4.05872 17.1644 2.66061 15.5038C1.40073 13.9991 1.26321 13.2722 2.63631 12.1466C3.14824 11.723 3.35074 10.8769 3.05042 10.5422C2.74168 10.198 2.59386 9.82793 2.54882 9.44055C2.84088 9.42248 3.11489 9.40625 3.36051 9.39866C6.57509 9.28574 12.1763 9.89886 12.2765 7.91521C12.3428 6.2214 7.0728 6.28541 3.59284 6.36606L3.55979 6.34988C3.47019 6.34879 3.37969 6.34497 3.28858 6.34321C3.49151 5.67519 3.61236 5.01231 3.43634 4.38369C3.42984 4.36045 3.42021 4.33694 3.41203 4.31228C5.30563 4.33881 6.05255 3.69625 6.14263 2.85835C6.19013 2.4442 6.01534 2.22638 5.72172 2.11853C9.67675 2.02905 16.3096 2.5913 16.4303 0.638892C16.4422 0.388912 16.3108 0.178984 16.0667 0H39.8576ZM107.37 191.847C105.63 191.783 102.178 191.138 102.344 193.347C102.509 195.299 105.326 194.929 107.535 194.896L107.564 194.88C110.464 194.961 114.855 195.025 114.8 193.331C114.716 191.347 110.049 191.96 107.37 191.847ZM326.362 191.847C324.623 191.783 321.171 191.138 321.336 193.347C321.501 195.299 324.318 194.929 326.528 194.896L326.556 194.88C329.456 194.961 333.847 195.025 333.792 193.331C333.709 191.347 329.041 191.96 326.362 191.847ZM166.102 193.273C165.792 191.809 160.533 192.087 156.409 192.111L156.358 192.124C150.944 192.063 142.747 192.015 142.85 193.285C143.005 194.773 151.719 194.314 156.719 194.398C159.967 194.447 166.411 194.93 166.102 193.273ZM179.455 191.363C179.331 189.75 177.752 189.896 177.342 190.116C176.273 190.688 175.429 191.862 174.484 192.801C175.491 194.619 176.908 193.827 177.977 193.989C179.095 194.15 179.555 192.668 179.455 191.363ZM190.93 191.643C186.382 191.411 184.657 192.148 184.469 193.142C184.155 194.693 189.017 193.648 190.585 194.025H190.616C198.175 194.008 203.225 193.228 201.594 192.371C199.68 191.36 194.631 191.831 190.93 191.643ZM138.034 190.719C137.909 189.106 136.331 189.253 135.92 189.473C134.852 190.045 134.006 191.218 133.062 192.157C134.068 193.976 135.485 193.184 136.554 193.345C137.673 193.507 138.133 192.024 138.034 190.719ZM374.706 191.086C374.88 189.549 371.253 189.998 369.424 190.043C366.609 190.122 361.703 189.695 361.616 191.075C361.559 192.253 366.174 192.208 369.221 192.152L369.249 192.163C371.571 192.185 374.532 192.443 374.706 191.086ZM20.7638 189.843C18.0958 189.795 12.802 189.311 13.0561 190.969C13.3104 192.432 17.6298 192.154 21.0175 192.13L21.0603 192.118C25.5069 192.178 32.2404 192.227 32.1557 190.956C32.0284 189.468 24.8716 189.928 20.7638 189.843ZM213.529 190.373C213.452 188.909 212.137 189.187 211.106 189.211L211.093 189.223C209.74 189.163 207.69 189.115 207.716 190.385C207.755 191.873 209.933 191.413 211.183 191.498C211.995 191.546 213.606 192.03 213.529 190.373ZM244.741 190.692C244.607 189.699 243.374 188.962 240.126 189.193C237.482 189.381 233.874 188.91 232.507 189.921C231.343 190.778 234.95 191.558 240.349 191.575H240.371C241.492 191.198 244.965 192.243 244.741 190.692ZM361.922 184.697C361.277 184.652 359.997 184.203 360.058 185.739C360.119 187.097 361.164 186.839 361.984 186.816L361.994 186.806C363.07 186.862 364.698 186.906 364.678 185.729C364.648 184.349 362.916 184.775 361.922 184.697ZM373.917 183.256C370.668 183.025 369.436 183.762 369.302 184.756C369.078 186.306 372.55 185.262 373.67 185.638H373.693C379.092 185.621 382.699 184.841 381.534 183.985C380.168 182.974 376.561 183.445 373.917 183.256ZM18.8527 184.005C18.7183 183.011 17.4859 182.274 14.2372 182.505C11.5935 182.693 7.98657 182.222 6.61993 183.233C5.45507 184.09 9.06237 184.87 14.4618 184.887H14.4841C15.6044 184.51 19.0763 185.555 18.8527 184.005ZM377.593 178.781C377.791 177.124 373.649 177.607 371.561 177.656C368.346 177.74 362.745 177.281 362.646 178.769C362.579 180.039 367.848 179.991 371.328 179.93L371.362 179.943C374.014 179.967 377.393 180.245 377.593 178.781ZM16.5936 176.906C14.5055 176.858 10.3629 176.374 10.5618 178.032C10.7608 179.496 14.1415 179.218 16.7928 179.193L16.8259 179.181C20.3058 179.242 25.5759 179.29 25.5096 178.019C25.4099 176.531 19.8083 176.991 16.5936 176.906ZM371.918 170.278C371.246 170.781 369.164 169.388 369.298 171.455C369.378 172.78 370.117 173.763 372.066 173.455C373.652 173.203 375.817 173.832 376.637 172.484C377.336 171.341 375.172 170.301 371.932 170.278H371.918ZM16.2222 169.528C12.9826 169.551 10.8185 170.591 11.5173 171.733C12.3373 173.081 14.5018 172.453 16.0881 172.704C18.037 173.013 18.7759 172.03 18.8566 170.705C18.9908 168.638 16.9079 170.031 16.2358 169.528H16.2222ZM368.232 164.785C365.019 164.567 363.8 165.264 363.667 166.202C363.446 167.667 366.88 166.679 367.988 167.035H368.011C373.351 167.019 376.918 166.283 375.767 165.474C374.415 164.519 370.847 164.963 368.232 164.785ZM17.7192 159.824C16.5244 160.201 12.8204 159.156 13.059 160.706C13.2024 161.7 14.5165 162.437 17.9817 162.206C20.8017 162.018 24.6496 162.489 26.1074 161.478C27.3491 160.621 23.5015 159.841 17.7426 159.824H17.7192ZM369.989 158.723C364.23 158.74 360.382 159.52 361.625 160.377C363.083 161.388 366.93 160.917 369.75 161.105C373.215 161.337 374.53 160.6 374.673 159.606C374.912 158.055 371.208 159.1 370.013 158.723H369.989ZM18.2286 153.361C18.1513 151.409 16.8363 151.779 15.8052 151.812L15.7926 151.828C14.4392 151.747 12.3897 151.683 12.4155 153.377C12.4545 155.36 14.6329 154.747 15.883 154.86C16.695 154.925 18.3057 155.57 18.2286 153.361ZM371.52 149.774C370.489 149.742 369.174 149.371 369.096 151.323C369.019 153.532 370.63 152.887 371.442 152.823C372.692 152.71 374.871 153.323 374.91 151.339C374.935 149.645 372.886 149.709 371.533 149.79L371.52 149.774ZM11.4629 142.647C8.2223 142.615 4.09057 142.244 3.84753 144.196C3.60515 146.406 8.66801 145.76 11.2199 145.696C15.1488 145.583 21.9934 146.196 22.116 144.212C22.197 142.519 15.757 142.583 11.5037 142.663L11.4629 142.647ZM376.984 140.771C376.841 139.777 375.526 139.04 372.06 139.272C369.24 139.46 365.393 138.989 363.936 140C362.693 140.857 366.54 141.637 372.299 141.654H372.324C373.519 141.277 377.223 142.322 376.984 140.771ZM13.0464 131.958C10.3952 131.934 7.01543 131.656 6.81629 133.12C6.61744 134.777 10.7601 134.294 12.8481 134.245C16.0629 134.161 21.6634 134.62 21.7631 133.132C21.8294 131.862 16.5594 131.91 13.0795 131.971L13.0464 131.958ZM18.9023 127.04C18.8216 125.715 18.082 124.732 16.1328 125.041C14.5466 125.292 12.382 124.664 11.562 126.012C10.8636 127.154 13.0278 128.194 16.2669 128.217H16.2806C16.9526 127.715 19.0364 129.108 18.9023 127.04ZM373.607 124.495C371.658 124.187 370.919 125.17 370.838 126.495C370.704 128.562 372.787 127.169 373.459 127.672H373.473C376.712 127.649 378.876 126.609 378.178 125.467C377.358 124.118 375.193 124.747 373.607 124.495ZM17.2711 119.021C13.8834 118.997 9.564 118.719 9.3097 120.183C9.05561 121.841 14.3494 121.357 17.0174 121.308C21.1251 121.224 28.2819 121.683 28.4093 120.195C28.494 118.925 21.7605 118.973 17.3139 119.034L17.2711 119.021ZM379.133 119.168C378.934 117.704 375.554 117.982 372.903 118.006L372.869 118.019C369.389 117.958 364.12 117.91 364.186 119.18C364.286 120.668 369.887 120.209 373.101 120.293C375.189 120.342 379.332 120.826 379.133 119.168ZM375.211 112.313C374.091 112.69 370.619 111.645 370.842 113.195C370.977 114.189 372.209 114.926 375.458 114.695C378.102 114.506 381.708 114.977 383.075 113.966C384.24 113.11 380.633 112.33 375.233 112.313H375.211ZM16.4409 105.004C12.9757 104.773 11.6617 105.51 11.5183 106.504C11.2796 108.054 14.9836 107.009 16.1785 107.386H16.2018C21.9607 107.369 25.8083 106.589 24.5666 105.732C23.1089 104.721 19.2609 105.192 16.4409 105.004ZM17.3158 96.505C17.2352 95.1798 16.4962 94.1972 14.5473 94.5055C12.9611 94.7568 10.7966 94.1286 9.97655 95.4767C9.27772 96.6191 11.4419 97.659 14.6815 97.6819H14.6951C15.3672 97.1792 17.45 98.5724 17.3158 96.505ZM376.143 89.043C375.112 89.0108 373.797 88.6402 373.72 90.5922C373.643 92.8014 375.253 92.1565 376.065 92.0918C377.315 91.9789 379.494 92.592 379.533 90.6084C379.559 88.9145 377.509 88.9785 376.156 89.0592L376.143 89.043ZM15.2521 88.0166C12.6008 87.9924 9.22005 87.7145 9.02099 89.1782C8.82214 90.8357 12.9647 90.3521 15.0528 90.3037C18.2676 90.219 23.8692 90.6786 23.9688 89.1906C24.0351 87.9202 18.7651 87.9685 15.2851 88.029L15.2521 88.0166ZM12.921 82.3218C7.52161 82.3389 3.9143 83.1189 5.07917 83.9757C6.44581 84.9867 10.0527 84.5156 12.6965 84.7041C15.9451 84.9354 17.1775 84.1984 17.3119 83.2044C17.5356 81.654 14.0637 82.6987 12.9434 82.3218H12.921ZM374.838 79.1283C374.713 77.5155 373.135 77.662 372.724 77.8819C371.655 78.4539 370.81 79.6274 369.865 80.566C370.872 82.3847 372.289 81.593 373.358 81.7543C374.477 81.9157 374.937 80.4336 374.838 79.1283ZM19.4768 75.0807C16.0891 75.0565 11.7697 74.7786 11.5154 76.2423C11.2613 77.8998 16.5551 77.4162 19.2231 77.3678C23.3308 77.2831 30.4876 77.7427 30.615 76.2547C30.6997 74.9844 23.9662 75.0326 19.5196 75.0931L19.4768 75.0807ZM383.574 67.614C383.369 66.2565 379.886 66.5146 377.154 66.5371L377.12 66.5476C373.535 66.4915 368.107 66.4469 368.174 67.6244C368.276 69.0043 374.047 68.578 377.359 68.6566C379.51 68.7014 383.778 69.1506 383.574 67.614ZM16.474 60.6023C16.3967 58.6504 15.0817 59.0209 14.0506 59.0532L14.0379 59.0694C12.6846 58.9887 10.6351 58.9247 10.6609 60.6185C10.6999 62.6022 12.8782 61.9891 14.1283 62.102C14.9404 62.1667 16.5511 62.8115 16.474 60.6023ZM380.242 58.7314C379.236 56.9127 377.819 57.7044 376.75 57.5431C375.631 57.3821 375.172 58.8639 375.271 60.1691C375.396 61.7815 376.973 61.6353 377.384 61.4155C378.452 60.8435 379.298 59.67 380.242 58.7314ZM17.9856 41.7955C15.527 41.7731 12.3929 41.5149 12.2085 42.8724C12.0245 44.409 15.8648 43.9599 17.8009 43.915C20.7819 43.8365 25.9763 44.2628 26.0685 42.8829C26.1287 41.7054 21.2432 41.7499 18.0167 41.806L17.9856 41.7955ZM17.2108 33.0272C13.7456 32.7958 12.4316 33.5329 12.2882 34.5268C12.0495 36.0774 15.7535 35.0325 16.9484 35.4095H16.9717C22.7306 35.3923 26.5782 34.6123 25.3365 33.7556C23.8788 32.7445 20.0308 33.2157 17.2108 33.0272ZM384.956 31.2933C384.768 30.2994 383.043 29.5623 378.495 29.7937C374.794 29.9821 369.744 29.5112 367.831 30.5221C366.2 31.3789 371.249 32.1588 378.809 32.176H378.84C380.408 31.799 385.269 32.8439 384.956 31.2933ZM377.498 23.3305C375.731 23.2982 373.477 22.9277 373.345 24.8796C373.212 27.0892 375.974 26.4438 377.366 26.3793C379.509 26.2665 383.243 26.8793 383.309 24.8958C383.354 23.2021 379.841 23.266 377.521 23.3467L377.498 23.3305ZM18.0867 24.5292C18.006 23.204 17.2664 22.2213 15.3172 22.5297C13.731 22.781 11.5664 22.1529 10.7464 23.5009C10.048 24.6432 12.2122 25.6832 15.4514 25.7061H15.465C16.1371 25.2035 18.2209 26.5966 18.0867 24.5292ZM16.0229 16.0408C13.3716 16.0166 9.99092 15.7387 9.79186 17.2025C9.59301 18.8599 13.7356 18.3763 15.8237 18.3279C19.0384 18.2432 24.64 18.7029 24.7397 17.2148C24.806 15.9445 19.536 15.9927 16.056 16.0532L16.0229 16.0408ZM375.826 14.0175C375.746 12.6923 375.006 11.7096 373.057 12.018C371.471 12.2693 369.306 11.6411 368.486 12.9892C367.788 14.1315 369.952 15.1715 373.191 15.1944H373.205C373.877 14.6917 375.96 16.0848 375.826 14.0175ZM13.6909 10.3451C8.29209 10.3622 4.68516 11.1423 5.84906 11.999C7.21574 13.01 10.8236 12.5389 13.4673 12.7274C16.7158 12.9586 17.9484 12.2216 18.0828 11.2277C18.3063 9.67732 14.8334 10.7221 13.7133 10.3451H13.6909ZM130.109 6.40415C129.297 6.35564 127.686 5.87231 127.764 7.52959C127.841 8.99335 129.156 8.71541 130.187 8.69121L130.2 8.67883C131.553 8.73933 133.603 8.78757 133.577 7.51721C133.538 6.0292 131.359 6.48884 130.109 6.40415ZM349.102 6.40415C348.289 6.35564 346.679 5.8723 346.756 7.52959C346.833 8.99335 348.148 8.71541 349.179 8.69121L349.192 8.67883C350.545 8.73933 352.595 8.78757 352.569 7.51721C352.53 6.0292 350.352 6.48884 349.102 6.40415ZM368.008 6.30227C360.448 6.31941 355.399 7.09932 357.03 7.95615C358.943 8.96701 363.993 8.49609 367.694 8.68455C372.242 8.91589 373.967 8.17884 374.155 7.18491C374.468 5.63433 369.607 6.67926 368.039 6.30227H368.008ZM151.377 4.87595C150.256 5.25289 146.784 4.20809 147.008 5.75859C147.143 6.75252 148.375 7.48957 151.624 7.25823C154.267 7.06978 157.874 7.54086 159.241 6.52983C160.406 5.67303 156.798 4.89309 151.399 4.87595H151.377ZM180.565 4.95308C179.753 4.90456 178.142 4.42124 178.219 6.07852C178.296 7.54227 179.611 7.26433 180.642 7.24014L180.655 7.22776C182.008 7.28825 184.058 7.3365 184.032 6.06614C183.993 4.57813 181.815 5.03777 180.565 4.95308ZM39.6943 4.29419C38.6875 2.47556 37.2705 3.26724 36.2016 3.10591C35.0832 2.94493 34.6236 4.42672 34.723 5.73193C34.8476 7.34428 36.4247 7.19816 36.8354 6.9783C37.9042 6.40632 38.7497 5.23284 39.6943 4.29419ZM258.687 4.29419C257.68 2.47555 256.263 3.26724 255.194 3.10591C254.075 2.94491 253.616 4.42671 253.715 5.73193C253.84 7.34429 255.417 7.19817 255.828 6.9783C256.897 6.40632 257.742 5.23284 258.687 4.29419ZM217.265 3.65054C216.258 1.83192 214.841 2.62351 213.772 2.46226C212.654 2.30092 212.193 3.78293 212.293 5.08828C212.417 6.70115 213.996 6.55462 214.406 6.33464C215.475 5.76264 216.32 4.58921 217.265 3.65054ZM60.3211 3.97808C59.5091 3.92968 57.8981 3.44599 57.9754 5.10352C58.0528 6.56705 59.3669 6.2894 60.3979 6.26514L60.4115 6.25276C61.7648 6.31325 63.8133 6.3614 63.7875 5.09114C63.7487 3.6032 61.5713 4.06272 60.3211 3.97808ZM279.313 3.97808C278.501 3.92968 276.89 3.44599 276.968 5.10352C277.045 6.56706 278.359 6.28939 279.39 6.26514L279.404 6.25276C280.757 6.31325 282.806 6.36139 282.78 5.09114C282.741 3.6032 280.564 4.06272 279.313 3.97808ZM20.2476 3.10496C16.8599 3.08076 12.5407 2.80286 12.2862 4.26658C12.0321 5.9241 17.326 5.44041 19.9939 5.39202C24.1017 5.30737 31.2574 5.76688 31.3849 4.27895C31.4696 3.00859 24.7361 3.05684 20.2894 3.11733L20.2476 3.10496ZM97.0203 2.67554C96.0136 0.856905 94.5965 1.64859 93.5276 1.48726C92.4092 1.32627 91.9497 2.80807 92.0491 4.11328C92.1736 5.72563 93.7507 5.57951 94.1614 5.35964C95.2303 4.78767 96.0758 3.61419 97.0203 2.67554ZM316.013 2.67554C315.006 0.856897 313.589 1.64859 312.52 1.48726C311.402 1.32626 310.942 2.80806 311.041 4.11328C311.166 5.72564 312.743 5.57951 313.154 5.35964C314.223 4.78767 315.068 3.61419 316.013 2.67554ZM201.132 2.42607C193.573 2.44324 188.524 3.22316 190.154 4.07996C192.068 5.09102 197.118 4.61985 200.819 4.80835C205.367 5.03966 207.092 4.30263 207.281 3.30872C207.594 1.75832 202.733 2.80294 201.164 2.42607H201.132ZM235.03 2.05283C231.782 2.00444 225.337 1.52075 225.646 3.17827C225.956 4.6421 231.215 4.36409 235.339 4.33989L235.39 4.32751C240.804 4.38801 249.001 4.43626 248.898 3.16589C248.742 1.67793 240.031 2.13751 235.03 2.05283ZM80.8885 1.45107C73.3292 1.46821 68.2797 2.24812 69.9107 3.10496C71.8242 4.11582 76.8735 3.64489 80.5745 3.83335C85.1227 4.0647 86.8478 3.32765 87.036 2.33372C87.3492 0.783131 82.4879 1.82807 80.9196 1.45107H80.8885ZM299.881 1.45107C292.322 1.46821 287.272 2.24812 288.903 3.10496C290.816 4.11581 295.866 3.64489 299.567 3.83335C304.115 4.0647 305.84 3.32765 306.028 2.33372C306.341 0.783135 301.48 1.82807 299.912 1.45107H299.881ZM169.332 0.137109C166.084 0.0725873 159.64 -0.572755 159.949 1.63674C160.258 3.58866 165.517 3.21815 169.641 3.18589L169.693 3.1697C175.106 3.25036 183.303 3.31437 183.2 1.62056C183.044 -0.363031 174.333 0.250004 169.332 0.137109ZM109.708 0.643652C108.588 1.02059 105.116 -0.0242116 105.339 1.52629C105.474 2.52022 106.706 3.25727 109.955 3.02593C112.599 2.83748 116.206 3.30856 117.572 2.29753C118.737 1.44073 115.13 0.660788 109.73 0.643652H109.708ZM130.508 0.745532C127.26 0.69711 120.816 0.213505 121.125 1.87097C121.435 3.3347 126.694 3.05679 130.818 3.03259L130.869 3.02022C136.283 3.08071 144.48 3.12892 144.377 1.85859C144.222 0.370552 135.509 0.830222 130.508 0.745532ZM328.7 0.643652C327.58 1.0206 324.108 -0.0242207 324.332 1.52629C324.466 2.52022 325.699 3.25727 328.947 3.02593C331.591 2.83748 335.198 3.30856 336.565 2.29753C337.729 1.44073 334.122 0.660788 328.723 0.643652H328.7ZM349.5 0.745532C346.252 0.697137 339.807 0.213451 340.117 1.87097C340.426 3.3348 345.685 3.05679 349.809 3.03259L349.861 3.02022C355.274 3.08071 363.471 3.12896 363.368 1.85859C363.213 0.370626 354.501 0.830207 349.5 0.745532Z" fill="#BA2A14"/>
<path d="M388.999 143.126C388.86 143.112 388.717 143.098 388.571 143.087C388.603 143.083 388.634 143.078 388.664 143.076C388.77 143.066 388.883 143.062 389 143.061C389 143.083 388.999 143.104 388.999 143.126Z" fill="#BA2A14"/>
<path d="M0.143869 2.15757C0.0978006 2.16223 0.0521113 2.16697 0.00680463 2.17185C0.00428043 2.16041 0.00195148 2.14876 0 2.13662C0.0473468 2.14419 0.0953535 2.15082 0.143869 2.15757Z" fill="#BA2A14"/>
</svg>
